<?xml version="1.0" encoding="UTF-8" standalone="no"?>
<svg xmlns="http://www.w3.org/2000/svg" version="1.2" baseProfile="tiny" viewBox="0.00 0.00 603.00 612.00">
<path fill="rgb(255, 166, 24)" d="
  M 313.24 122.74
  Q 308.72 135.67 299.24 146.24
  C 266.74 182.46 223.33 217.51 242.36 272.84
  Q 249.15 292.58 262.17 309.10
  A 0.32 0.32 0.0 0 1 261.78 309.59
  C 223.66 291.71 189.61 256.62 208.69 211.36
  Q 216.25 193.43 228.80 180.29
  Q 251.15 156.89 265.31 133.55
  C 284.89 101.26 297.38 60.32 285.88 22.90
  A 0.14 0.14 0.0 0 1 286.13 22.77
  C 331.32 81.31 441.18 245.72 344.09 306.59
  A 0.35 0.35 0.0 0 1 343.57 306.18
  Q 351.39 283.35 356.54 259.70
  Q 363.56 227.46 350.51 195.95
  C 339.63 169.67 327.33 147.12 313.79 122.69
  Q 313.46 122.10 313.24 122.74
  Z"
/>
<path fill="rgb(135, 11, 11)" d="
  M 315.07 306.66
  L 313.86 308.25
  A 0.34 0.34 0.0 0 1 313.30 307.87
  C 330.51 277.89 335.83 241.39 320.49 209.75
  A 0.52 0.52 0.0 0 0 319.52 209.84
  C 315.00 226.57 304.95 234.89 290.74 246.22
  C 270.17 262.63 274.80 285.22 278.71 306.75
  Q 278.92 307.92 278.22 306.96
  C 265.20 289.37 256.63 265.18 258.31 243.88
  C 260.78 212.53 289.18 179.64 311.16 158.56
  A 0.71 0.70 -39.4 0 1 312.23 158.66
  C 343.77 204.13 352.60 260.51 315.60 306.33
  Q 315.53 306.43 315.30 306.50
  Q 315.16 306.55 315.07 306.66
  Z"
/>
<path fill="rgb(252, 126, 26)" d="
  M 128.34 497.41
  C 87.38 462.00 59.78 413.87 53.51 359.75
  Q 53.24 357.44 53.84 354.86
  A 1.11 1.09 -6.9 0 1 54.42 354.14
  Q 56.77 352.98 59.09 353.87
  C 82.66 362.94 106.24 372.38 131.28 376.59
  C 196.21 387.49 250.88 363.03 298.04 320.28
  C 299.56 318.91 302.92 319.36 304.66 320.79
  C 347.79 356.09 399.72 384.61 457.74 379.09
  C 488.64 376.16 517.40 364.87 544.83 353.53
  C 550.65 351.12 552.80 355.01 551.88 360.21
  C 533.55 463.08 451.13 541.15 349.33 560.15
  C 269.95 574.97 188.83 549.68 128.34 497.41
  Z
  M 285.14 358.12
  C 230.47 395.91 167.22 409.91 102.50 391.11
  Q 100.07 390.40 99.66 392.89
  C 98.84 397.79 103.17 398.49 106.98 399.36
  C 176.70 415.35 243.69 400.46 299.49 355.99
  A 2.11 2.10 -45.4 0 1 302.10 355.97
  C 322.71 371.88 343.51 385.81 367.17 396.83
  C 410.92 417.20 459.65 423.68 506.06 406.57
  Q 507.34 406.10 508.26 405.05
  A 1.25 1.23 63.6 0 0 508.56 404.14
  C 508.25 400.64 502.95 401.21 500.71 401.85
  C 428.70 422.43 358.35 395.15 303.63 347.79
  A 2.92 2.92 0.0 0 0 300.00 347.63
  Q 293.12 352.61 285.14 358.12
  Z"
/>
</svg>
