<svg xmlns="http://www.w3.org/2000/svg" version="1.1" viewBox="106.7 143.58 1473.33 547.28">
<path stroke="#bf5816" stroke-width="2.00" fill="none" stroke-linecap="butt" vector-effect="non-scaling-stroke" d="   M 1567.00 488.05   Q 1565.84 486.88 1564.77 484.49   Q 1559.94 473.74 1555.11 463.27   A 0.98 0.97 -40.2 0 0 1553.42 463.13   Q 1544.07 476.79 1544.06 494.07"/>
<path fill="#f7a520" d="   M 369.23 243.95   C 364.56 256.90 355.93 266.76 346.33 276.83   C 319.51 304.96 288.38 336.07 294.54 378.65   C 297.19 396.93 306.83 415.64 318.18 430.17   A 0.26 0.26 0.0 0 1 317.86 430.57   C 298.93 421.91 278.50 407.00 267.80 388.69   C 256.63 369.57 256.70 350.44 265.43 330.48   C 273.30 312.50 287.37 298.54 299.80 284.07   C 331.21 247.52 357.02 193.15 341.93 143.98   Q 341.71 143.28 342.17 143.86   C 386.51 201.14 497.86 368.33 400.01 427.50   A 0.34 0.33 84.0 0 1 399.52 427.10   Q 406.49 407.15 411.36 386.52   C 416.75 363.60 416.61 343.33 408.06 320.93   C 397.74 293.88 383.84 268.68 369.82 243.90   Q 369.47 243.29 369.23 243.95   Z"/>
<path fill="#860b0c" d="   M 370.48 428.35   Q 367.83 431.33 369.83 427.87   C 386.66 398.81 391.56 361.89 376.49 330.64   A 0.51 0.51 0.0 0 0 375.54 330.73   C 371.19 347.15 360.26 356.91 346.86 367.36   C 326.90 382.90 329.92 406.15 334.78 427.86   A 0.30 0.30 0.0 0 1 334.24 428.10   Q 321.87 410.33 316.67 389.93   Q 309.14 360.40 324.72 333.21   C 336.58 312.49 350.57 295.36 367.34 279.49   Q 367.83 279.03 368.21 279.59   C 383.85 302.42 395.31 329.21 395.92 357.23   C 396.48 382.74 387.78 408.99 370.48 428.35   Z"/>
<path fill="#f7a520" d="   M 1567.00 488.05   Q 1565.84 486.88 1564.77 484.49   Q 1559.94 473.74 1555.11 463.27   A 0.98 0.97 -40.2 0 0 1553.42 463.13   Q 1544.07 476.79 1544.06 494.07   C 1518.11 487.02 1542.87 443.34 1550.82 430.86   Q 1551.37 430.01 1551.87 429.85   Q 1552.96 429.52 1553.35 430.13   C 1561.49 442.84 1579.79 474.12 1567.00 488.05   Z"/>
<path fill="#fb7e1a" d="   M 297.50 683.82   C 202.82 660.83 116.90 586.06 106.74 484.50   Q 106.60 483.09 107.73 481.64   Q 108.03 481.25 108.52 481.25   C 109.98 481.26 111.37 481.07 112.76 481.61   Q 120.81 484.75 144.70 493.51   C 211.10 517.89 275.88 507.76 331.55 464.29   Q 341.76 456.32 351.52 447.77   C 353.31 446.21 355.34 446.74 357.16 448.19   C 401.40 483.50 452.06 512.22 510.72 506.58   C 542.06 503.56 571.74 492.16 599.44 480.42   C 601.87 479.39 604.81 481.86 604.85 484.43   Q 604.85 484.77 604.32 487.72   C 578.87 628.39 434.84 717.18 297.50 683.82   Z   M 354.34 483.15   C 374.98 498.59 394.66 512.51 419.42 524.08   C 463.64 544.75 514.37 551.47 560.79 533.29   A 1.25 1.23 1.7 0 0 561.46 532.67   C 564.23 526.92 555.19 527.82 553.00 528.46   C 483.13 548.79 410.25 521.79 357.23 474.49   C 355.85 473.26 354.02 473.32 352.46 474.43   C 337.26 485.28 325.10 493.54 310.15 501.39   Q 236.43 540.14 155.72 517.80   C 153.74 517.25 151.62 517.28 151.79 519.96   Q 152.11 525.10 157.01 526.25   Q 186.53 533.15 216.77 533.00   C 268.31 532.73 312.81 514.47 353.32 483.16   A 0.85 0.84 -45.3 0 1 354.34 483.15   Z"/>
<path fill="#860b0c" d="   M 1567.00 488.05   Q 1558.78 504.22 1544.06 494.07   Q 1544.07 476.79 1553.42 463.13   A 0.98 0.97 -40.2 0 1 1555.11 463.27   Q 1559.94 473.74 1564.77 484.49   Q 1565.84 486.88 1567.00 488.05   Z"/>
<path fill="#860b0c" d="   M 643.14 500.12   Q 636.70 495.26 636.00 486.49   C 635.73 483.06 637.24 481.44 640.73 481.48   Q 669.58 481.78 698.43 481.78   Q 700.41 481.78 702.84 483.47   Q 703.24 483.76 703.41 484.22   Q 705.76 490.60 702.05 495.75   C 698.54 500.64 692.76 499.35 692.76 507.53   Q 692.74 590.38 692.75 673.22   C 692.75 675.09 693.74 676.36 695.34 677.00   Q 706.36 681.41 709.97 670.21   Q 712.42 662.58 713.38 658.16   C 715.41 648.81 720.05 636.12 732.83 640.70   C 736.58 642.05 735.97 645.26 735.47 648.99   Q 731.84 675.83 730.41 685.18   C 729.93 688.34 727.72 689.75 724.50 689.75   Q 681.63 689.75 638.69 689.75   A 1.43 1.42 75.2 0 1 637.45 689.02   C 628.73 673.26 645.50 674.15 645.50 663.44   Q 645.52 584.22 645.54 505.00   Q 645.55 501.93 643.14 500.12   Z"/>
<path fill="#860b0c" d="   M 1382.33 530.68   A 1.65 1.64 -75.3 0 1 1381.50 529.25   L 1381.50 517.27   A 2.00 1.99 83.9 0 1 1383.07 515.32   Q 1409.19 509.77 1415.47 483.90   A 2.74 2.74 0.0 0 1 1418.09 481.81   L 1430.06 481.63   A 1.92 1.91 -0.1 0 1 1432.01 483.56   L 1431.67 512.48   Q 1431.64 514.81 1433.98 514.87   L 1441.77 515.06   A 2.03 2.03 0.0 0 1 1443.75 517.09   L 1443.75 529.07   A 2.37 2.37 0.0 0 1 1441.43 531.44   L 1434.84 531.61   A 2.65 2.65 0.0 0 0 1432.26 534.26   Q 1432.24 599.24 1432.25 663.75   C 1432.25 666.16 1432.27 667.45 1434.13 669.23   C 1437.46 672.43 1445.43 684.56 1442.14 689.29   A 1.07 1.05 -72.2 0 1 1441.27 689.75   L 1399.20 689.75   A 1.52 1.51 -24.9 0 1 1398.23 689.40   C 1388.99 681.80 1388.71 645.79 1388.58 634.31   C 1388.20 602.11 1389.30 569.94 1389.59 537.75   Q 1389.62 535.19 1389.23 533.54   A 2.59 2.58 80.5 0 0 1386.47 531.56   Q 1384.23 531.78 1382.33 530.68   Z"/>
<path fill="#860b0c" d="   M 920.76 595.51   A 0.87 0.87 0.0 0 0 922.43 595.85   L 947.26 538.50   A 2.69 2.68 28.6 0 0 946.28 535.20   L 938.56 530.03   A 4.67 4.66 -71.5 0 1 936.50 525.89   L 937.04 516.58   A 1.68 1.67 -88.4 0 1 938.71 515.00   L 976.67 515.00   A 2.08 2.08 0.0 0 1 978.66 516.47   Q 982.61 529.34 970.54 534.75   C 969.45 535.24 967.95 536.72 967.41 537.79   C 965.12 542.35 956.46 556.88 957.51 561.23   Q 971.51 619.00 983.77 662.25   C 986.43 671.60 993.63 676.75 991.33 688.16   A 1.98 1.98 0.0 0 1 989.39 689.75   Q 971.63 689.75 953.17 689.75   C 948.71 689.75 945.84 687.62 944.90 683.38   Q 938.03 652.36 931.15 621.33   C 930.87 620.07 930.85 618.67 929.49 618.14   A 1.65 1.64 22.7 0 0 927.39 619.00   Q 918.67 638.29 920.52 658.77   C 921.44 669.01 926.28 677.60 925.99 688.08   A 1.72 1.72 0.0 0 1 924.27 689.75   L 874.28 689.75   A 1.90 1.88 75.4 0 1 872.63 688.77   Q 868.82 681.76 872.69 675.38   C 874.28 672.76 878.25 671.51 878.25 667.78   Q 878.25 585.76 878.25 503.71   A 1.81 1.80 17.7 0 0 877.49 502.24   Q 867.14 494.86 871.92 482.48   A 1.16 1.15 -79.1 0 1 872.99 481.75   L 918.50 481.75   A 2.25 2.25 0.0 0 1 920.75 484.00   L 920.76 595.51   Z"/>
<path fill="#860b0c" d="   M 1002.90 498.88   Q 995.69 491.96 1000.49 482.21   A 0.83 0.82 -76.6 0 1 1001.23 481.75   L 1046.93 481.75   A 2.48 2.48 0.0 0 1 1049.41 484.19   L 1050.10 522.95   A 1.53 1.53 0.0 0 0 1052.24 524.32   C 1076.40 513.74 1110.44 506.71 1111.05 546.50   Q 1111.85 598.47 1112.64 650.45   C 1112.83 662.82 1114.18 672.28 1117.69 683.17   C 1118.86 686.81 1117.28 689.69 1113.37 689.74   Q 1099.54 689.89 1085.73 689.55   C 1070.35 689.17 1069.18 679.21 1069.33 665.96   Q 1070.06 604.61 1069.75 543.25   C 1069.70 533.60 1050.02 533.79 1050.01 545.47   Q 1049.96 591.96 1050.03 638.44   C 1050.05 656.21 1051.58 669.37 1056.80 685.49   C 1057.66 688.17 1056.09 689.73 1053.40 689.74   Q 1029.37 689.76 1005.36 689.76   C 1000.59 689.76 997.86 686.81 999.94 682.23   C 1003.86 673.58 1007.54 666.07 1007.53 656.25   Q 1007.51 580.88 1007.49 505.50   C 1007.49 501.14 1005.39 501.28 1002.90 498.88   Z"/>
<path fill="#860b0c" d="   M 1182.89 522.62   C 1207.02 509.06 1228.53 516.37 1237.52 542.88   Q 1243.51 560.52 1244.68 579.18   Q 1246.91 614.79 1240.89 653.18   Q 1239.47 662.25 1235.58 668.56   C 1228.98 679.27 1217.90 691.35 1204.24 689.72   C 1196.19 688.76 1187.95 684.06 1180.74 679.83   A 1.30 1.30 0.0 0 0 1178.81 680.74   C 1178.36 683.53 1180.39 687.13 1178.31 689.39   Q 1177.99 689.75 1177.50 689.75   L 1131.49 689.75   Q 1130.01 689.75 1129.68 688.31   Q 1127.08 676.95 1135.87 669.84   Q 1136.27 669.52 1136.36 669.02   Q 1136.75 667.01 1136.75 666.25   Q 1136.75 585.50 1136.79 504.75   Q 1136.79 503.17 1136.24 501.72   Q 1136.04 501.23 1135.58 500.97   C 1128.97 497.29 1126.42 489.58 1130.52 482.29   A 1.05 1.05 0.0 0 1 1131.44 481.75   L 1177.49 481.75   A 1.48 1.48 0.0 0 1 1178.97 483.20   Q 1179.43 502.31 1179.21 521.24   C 1179.19 523.24 1181.35 523.49 1182.89 522.62   Z   M 1198.24 544.96   A 9.45 9.45 0.0 0 0 1188.79 535.51   L 1188.49 535.51   A 9.45 9.45 0.0 0 0 1179.04 544.96   L 1179.04 659.72   A 9.45 9.45 0.0 0 0 1188.49 669.17   L 1188.79 669.17   A 9.45 9.45 0.0 0 0 1198.24 659.72   L 1198.24 544.96   Z"/>
<path fill="#860b0c" d="   M 1458.61 533.00   C 1450.05 531.52 1450.79 522.17 1453.71 516.08   A 1.11 1.10 4.3 0 1 1454.39 515.50   C 1469.65 510.90 1480.64 502.72 1485.47 487.50   Q 1486.53 484.19 1487.32 482.38   A 1.05 1.04 -78.5 0 1 1488.26 481.75   L 1500.24 481.75   A 1.75 1.74 89.8 0 1 1501.98 483.49   L 1502.05 512.55   A 2.31 2.31 0.0 0 0 1504.30 514.86   L 1512.53 515.07   A 2.02 2.02 0.0 0 1 1514.50 517.09   L 1514.50 528.75   A 2.76 2.75 -0.1 0 1 1511.75 531.50   L 1503.89 531.51   Q 1501.78 531.51 1501.80 533.63   C 1502.32 576.61 1500.65 621.64 1503.78 662.50   C 1503.99 665.26 1505.69 669.18 1507.30 672.23   C 1508.91 675.27 1515.67 685.44 1512.38 689.29   A 1.24 1.22 -69.3 0 1 1511.45 689.72   Q 1480.68 689.82 1469.82 689.72   C 1459.65 689.62 1460.75 649.99 1460.76 644.11   Q 1460.85 589.71 1460.58 535.32   A 2.37 2.36 -85.4 0 0 1458.61 533.00   Z"/>
<path fill="#860b0c" d="   M 1322.41 565.86   A 3.07 3.05 78.3 0 0 1324.23 563.07   Q 1324.30 550.91 1324.22 538.56   Q 1324.20 536.14 1322.20 534.37   C 1318.85 531.43 1314.37 529.09 1310.43 532.91   C 1303.77 539.35 1303.97 546.11 1304.70 554.76   C 1304.93 557.46 1304.09 558.34 1302.25 559.99   C 1293.08 568.22 1279.20 571.99 1268.60 565.32   C 1259.60 559.66 1260.36 548.77 1264.70 540.04   C 1275.66 518.02 1304.46 512.37 1326.76 515.76   C 1347.02 518.84 1363.83 529.44 1366.08 551.43   Q 1366.44 554.92 1366.49 560.22   C 1366.90 604.38 1365.99 639.41 1366.67 668.40   A 1.21 1.19 -71.2 0 0 1367.11 669.31   C 1370.99 672.56 1376.51 683.75 1369.37 686.72   Q 1344.16 697.17 1324.54 678.98   C 1323.27 677.81 1321.47 678.19 1320.07 679.20   C 1309.58 686.81 1294.05 693.30 1281.51 688.32   C 1261.48 680.37 1256.83 649.64 1257.47 631.46   C 1258.02 615.39 1261.03 601.39 1272.77 590.56   C 1286.38 578.01 1305.99 573.21 1322.41 565.86   Z   M 1307.90 665.22   C 1308.90 669.22 1313.38 670.96 1316.90 669.68   C 1324.90 666.78 1325.36 643.16 1325.39 636.25   Q 1325.52 610.15 1324.35 584.33   A 1.35 1.35 0.0 0 0 1322.69 583.08   C 1304.30 587.47 1303.33 616.78 1303.47 630.97   Q 1303.64 648.32 1307.90 665.22   Z"/>
<path fill="#860b0c" d="   M 1530.14 533.87   Q 1523.00 528.40 1525.45 518.69   C 1526.13 516.03 1526.71 515.17 1529.66 515.04   C 1543.55 514.41 1557.75 515.04 1571.54 514.99   A 3.87 3.87 0.0 0 1 1575.43 518.92   C 1574.45 578.43 1575.42 632.39 1580.03 689.12   A 0.57 0.56 87.6 0 1 1579.47 689.74   Q 1555.69 689.78 1531.72 689.73   C 1527.13 689.72 1525.45 686.91 1526.61 682.75   Q 1532.49 661.62 1532.69 642.19   Q 1533.08 606.54 1532.32 537.64   C 1532.30 535.84 1531.45 534.86 1530.14 533.87   Z"/>
<path fill="#860b0c" d="   M 811.68 543.00   C 811.28 529.92 801.96 528.89 793.69 536.63   A 1.41 1.40 72.9 0 0 793.25 537.47   Q 791.92 547.75 790.77 558.00   C 790.56 559.92 788.47 561.38 786.51 562.78   C 773.60 571.96 749.46 573.46 749.98 550.87   C 750.38 533.15 764.36 522.07 780.46 517.74   C 800.25 512.42 827.42 514.17 842.92 528.56   C 851.69 536.70 853.64 546.75 853.78 558.31   Q 854.32 602.27 854.25 646.22   C 854.24 651.45 853.78 660.27 854.12 667.32   C 854.34 672.00 857.83 671.81 859.47 675.50   C 861.14 679.24 860.83 684.11 856.70 686.13   C 841.72 693.45 825.83 691.04 813.10 680.42   C 810.04 677.86 802.86 682.85 798.98 684.68   C 774.17 696.42 754.93 688.15 748.88 661.22   Q 745.10 644.36 745.89 627.22   C 746.43 615.54 747.56 604.85 754.32 596.58   C 767.81 580.08 790.66 573.62 809.72 566.19   A 2.42 2.42 0.0 0 0 811.25 564.13   Q 812.02 553.77 811.68 543.00   Z   M 810.38 669.78   L 812.93 584.25   A 0.68 0.67 89.6 0 0 812.23 583.55   C 802.31 583.85 794.38 591.57 792.73 601.26   Q 792.52 602.51 792.10 613.77   Q 791.51 629.87 791.29 645.95   Q 791.19 653.03 792.25 656.42   C 794.57 663.83 801.13 670.54 809.30 670.79   A 1.05 1.04 1.6 0 0 810.38 669.78   Z"/>
</svg>