<svg width="32" height="32" viewBox="0 0 32 32" fill="none" xmlns="http://www.w3.org/2000/svg">
<circle cx="16" cy="16" r="16" fill="white"/>
<path fill-rule="evenodd" clip-rule="evenodd" d="M13.032 22.7377C19.0696 22.7377 22.372 17.8365 22.372 13.5866C22.372 13.4471 22.372 13.3086 22.3624 13.1707C23.0048 12.7161 23.5592 12.1516 24 11.5058C23.4016 11.766 22.7656 11.9367 22.1152 12.0119C22.8 11.6098 23.3128 10.9781 23.5584 10.2327C22.9136 10.6073 22.2088 10.8718 21.4736 11.0136C20.2304 9.71878 18.1512 9.65605 16.8288 10.8741C15.9768 11.6595 15.6144 12.8304 15.8792 13.9474C13.24 13.8173 10.7808 12.5961 9.1136 10.5872C8.2424 12.0568 8.688 13.9362 10.1304 14.8799C9.608 14.865 9.0968 14.7272 8.64 14.478V14.5188C8.6408 16.0496 9.7424 17.3677 11.2736 17.671C10.7904 17.8003 10.2832 17.8191 9.792 17.7258C10.2216 19.0364 11.4544 19.934 12.8584 19.9598C11.696 20.855 10.26 21.341 8.7816 21.3394C8.5208 21.3387 8.26 21.3237 8 21.2932C9.5016 22.2369 11.248 22.7377 13.032 22.7354" fill="#0A71FF"/>
</svg>
