<svg width="32" height="32" viewBox="0 0 32 32" fill="none" xmlns="http://www.w3.org/2000/svg">
<circle cx="16" cy="16" r="16" fill="#0A71FF"/>
<path d="M23.6651 11.7599C23.5787 11.4148 23.4027 11.0985 23.155 10.8432C22.9073 10.5878 22.5966 10.4023 22.2542 10.3054C21.0034 10 16 10 16 10C16 10 10.9966 10 9.74578 10.3345C9.40343 10.4314 9.09271 10.6169 8.84499 10.8723C8.59727 11.1276 8.42133 11.4439 8.33494 11.789C8.10602 13.0584 7.99404 14.3462 8.00042 15.6361C7.99226 16.9357 8.10424 18.2332 8.33494 19.5122C8.43018 19.8467 8.61006 20.1509 8.8572 20.3954C9.10434 20.64 9.41039 20.8168 9.74578 20.9085C10.9966 21.2431 16 21.2431 16 21.2431C16 21.2431 21.0034 21.2431 22.2542 20.9085C22.5966 20.8117 22.9073 20.6262 23.155 20.3708C23.4027 20.1154 23.5787 19.7992 23.6651 19.4541C23.8922 18.1942 24.0042 16.9162 23.9996 15.6361C24.0077 14.3365 23.8958 13.0389 23.6651 11.7599Z" stroke="white" stroke-width="2" stroke-linecap="round" stroke-linejoin="round"/>
<path d="M14.3633 18.0139L18.5449 15.6359L14.3633 13.2578V18.0139Z" stroke="white" stroke-width="2" stroke-linecap="round" stroke-linejoin="round"/>
</svg>
