<svg width="16" height="12" viewBox="0 0 16 12" fill="none" xmlns="http://www.w3.org/2000/svg">
<path fill-rule="evenodd" clip-rule="evenodd" d="M16 6.00009C16 5.86659 15.945 5.73909 15.8535 5.64309L10.904 0.643593C10.7085 0.446093 10.392 0.446593 10.197 0.643593C10.0015 0.840593 10.0015 1.16059 10.197 1.35759L14.2935 5.49509H0.5C0.224 5.49509 0 5.72109 0 6.00009C0 6.27909 0.224 6.50509 0.5 6.50509H14.293L10.197 10.6426C10.0015 10.8396 10.002 11.1596 10.197 11.3566C10.3925 11.5536 10.709 11.5536 10.904 11.3566L15.8535 6.35709C15.947 6.26259 15.9985 6.13259 16 6.00009Z" fill="#0A71FF"/>
</svg>
