<svg width="33" height="23" viewBox="0 0 33 23" fill="none" xmlns="http://www.w3.org/2000/svg">
    <path fill-rule="evenodd" clip-rule="evenodd"
        d="M32.0977 11.4708C32.0977 11.2038 31.9877 10.9488 31.8047 10.7568L21.9057 0.757789C21.5147 0.362789 20.8817 0.363789 20.4917 0.757789C20.1007 1.15179 20.1007 1.79179 20.4917 2.18579L28.6847 10.4608L1.09766 10.4608C0.545656 10.4608 0.0976563 10.9128 0.0976563 11.4708C0.0976563 12.0288 0.545656 12.4808 1.09766 12.4808L28.6837 12.4808L20.4917 20.7558C20.1007 21.1498 20.1017 21.7898 20.4917 22.1838C20.8827 22.5778 21.5157 22.5778 21.9057 22.1838L31.8047 12.1848C31.9917 11.9958 32.0947 11.7358 32.0977 11.4708Z"
        fill="white" />
</svg>