<svg width="195" height="130" viewBox="0 0 195 130" fill="none" xmlns="http://www.w3.org/2000/svg">
    <path
        d="M68.5102 74.88C68.5102 74.88 79.1702 71.045 82.8102 76.96C86.4502 82.875 81.4452 91.26 78.9102 95.16C76.3752 99.06 70.5252 104.13 54.9902 99.905C39.4552 95.68 32.6952 71.63 32.7602 54.925C32.8252 38.22 33.8002 17.355 46.5402 13.52C59.2802 9.68499 60.9702 28.665 60.9702 28.665C60.9702 28.665 69.8536 22.1866 74.2737 32.1534C78.6937 42.1203 79.2137 55.8132 68.5102 74.88Z"
        fill="#F0F6F0" />
    <path
        d="M53.4299 87.3601C53.4299 87.3601 51.0249 88.4326 51.6749 90.3176C52.3249 92.2026 55.2824 92.4951 57.5574 92.4951C59.8324 92.4951 69.5174 92.5926 70.1349 87.4901C70.7524 82.3876 62.9849 84.2076 62.9849 84.2076C62.9849 84.2076 56.6474 85.6051 53.4299 87.3601Z"
        fill="#E8F4FF" />
    <path
        d="M49.1735 77.87C49.1735 77.87 46.2485 79.1375 47.906 81.4125C49.5635 83.6875 53.886 81.77 53.886 81.77C53.886 81.77 58.2085 80.5025 57.916 78.2925C57.6235 76.0825 54.3735 75.53 49.1735 77.87Z"
        fill="#E8F4FF" />
    <path
        d="M39.1305 70.8175C39.1305 70.8175 41.958 74.6525 51.4155 63.3425C60.873 52.0325 63.343 45.7275 63.343 45.7275C63.343 45.7275 65.228 41.405 65.3905 38.09C65.553 34.775 65.423 28.5025 60.5155 29.445C55.608 30.3875 50.278 38.9025 50.278 38.9025C50.278 38.9025 42.088 52.2925 40.138 57.1025C38.188 61.9125 36.1405 67.8925 39.1305 70.8175Z"
        fill="#E8F4FF" />
    <path
        d="M37.3754 45.76C37.3754 45.76 39.2929 47.255 43.1604 40.495C47.0279 33.735 51.7729 22.1975 47.1904 20.7675C42.6079 19.3375 38.0254 31.785 38.0254 31.785C38.0254 31.785 33.8654 43.68 37.3754 45.76Z"
        fill="#E8F4FF" />
    <path
        d="M31.1573 70.07C31.1573 70.07 29.3808 69.8534 28.7308 71.8469C28.0808 73.8403 27.6473 77.9137 30.4208 78.3903C33.1942 78.8669 33.4108 73.6666 33.0208 72.1934C32.6308 70.7203 32.0242 70.2866 31.1573 70.07Z"
        fill="#E8F4FF" stroke="#E8F4FF" stroke-miterlimit="10" />
    <path
        d="M31.2012 75.5734C31.2012 75.5734 38.6546 96.72 54.6877 99.84C54.6877 99.84 42.4678 93.4266 32.1978 74.1L31.2012 75.5734Z"
        fill="#E8F4FF" stroke="#E8F4FF" stroke-miterlimit="10" />
    <path
        d="M52.2571 98.7904C53.3164 99.4422 54.5545 99.7542 55.7698 99.9965C56.9959 100.226 58.2449 100.316 59.4914 100.335L60.4271 100.336L61.3624 100.296C61.9861 100.282 62.607 100.2 63.2289 100.156C63.85 100.096 64.4686 100.007 65.0879 99.9341L66.0093 99.7778C66.3078 99.7081 66.6073 99.6502 66.9048 99.5716C68.0982 99.2609 69.2521 98.8101 70.3261 98.2178C71.3937 97.6146 72.3861 96.8801 73.2537 96.0164C74.9897 94.2939 76.2947 92.1325 77.0416 89.8076C77.1352 89.5177 77.2177 89.2247 77.286 88.9324C77.3042 88.8594 77.3193 88.7868 77.3341 88.7143L77.3552 88.6098L77.3757 88.4938C77.4041 88.3386 77.4317 88.1839 77.4504 88.038C77.5362 87.4447 77.5827 86.8342 77.5775 86.2357C77.5653 85.6362 77.4948 85.0434 77.356 84.4737C77.2195 83.902 76.9769 83.3716 76.6727 82.8895C76.3714 82.3999 75.9405 82.0159 75.4887 81.6688C75.004 81.3584 74.49 81.0934 73.917 80.9221C73.769 80.8766 73.6146 80.8186 73.4724 80.7838L73.0522 80.6902C72.9149 80.6533 72.7688 80.634 72.6216 80.6166C72.475 80.5997 72.3299 80.5727 72.1825 80.5612C71.5926 80.5176 70.9925 80.5357 70.3823 80.5906C69.1605 80.7099 67.8923 80.9039 66.6133 80.959C65.3333 81.0181 64.05 80.9585 62.782 80.8228C61.5121 80.6951 60.2586 80.4195 59.0413 80.2211C57.8217 80.0243 56.5815 79.9081 55.3439 79.8712C54.1058 79.8376 52.864 79.8881 51.6435 80.0612C51.0344 80.1502 50.4309 80.2726 49.8475 80.4458C49.2692 80.6216 48.6967 80.8509 48.2438 81.1902C48.0202 81.3584 47.8343 81.5664 47.7748 81.7843C47.7113 81.9985 47.7698 82.2302 47.9211 82.4506C47.9601 82.5047 47.9926 82.5622 48.0452 82.6113L48.1751 82.7515C48.2968 82.8477 48.4229 82.9613 48.5345 83.0104C48.7544 83.1493 49.0529 83.2439 49.3321 83.3204C49.9101 83.46 50.5274 83.4823 51.1379 83.4446C51.7499 83.4062 52.3617 83.3092 52.9643 83.1695C54.1692 82.882 55.3405 82.4441 56.4652 81.9101C57.5882 81.3698 58.6591 80.7219 59.6801 80.0051C60.6996 79.2851 61.6718 78.496 62.5807 77.6386C63.4873 76.7785 64.3354 75.8581 65.13 74.8943C65.533 74.4166 65.9045 73.9138 66.2821 73.4162C66.6398 72.904 67.008 72.399 67.34 71.8694C67.6887 71.3507 67.9988 70.8076 68.3218 70.2728L69.2118 68.6181C69.3545 68.3394 69.5165 68.0672 69.6436 67.7825L70.0375 66.9333C70.2939 66.3642 70.5796 65.8104 70.7998 65.2238L71.4977 63.4842L72.1139 61.7141C72.8887 59.339 73.4747 56.9046 73.8634 54.4416C73.9723 53.8278 74.0306 53.2064 74.1169 52.5896C74.152 52.2802 74.177 51.9698 74.2074 51.6601C74.2381 51.3502 74.2667 51.0406 74.2823 50.7296C74.3694 49.4938 74.4076 48.2333 74.3397 47.0241L74.3384 47.0012L74.339 46.9788C74.3819 45.034 74.3465 43.07 74.2615 41.1184C74.1705 39.1653 74.0316 37.2151 73.8091 35.277C73.5855 33.3398 73.2826 31.4124 72.8338 29.5279C72.3775 27.6525 71.7954 25.7875 70.8547 24.1586C70.3836 23.3516 69.8108 22.6098 69.1096 22.0724C68.9346 21.9385 68.7513 21.8199 68.5617 21.7157C68.4645 21.6691 68.3719 21.6119 68.2721 21.5732L68.1234 21.5124L68.049 21.4817C68.0568 21.4838 68.0051 21.4661 68.062 21.4843L68.0399 21.4778L67.9957 21.4648C67.7635 21.4011 67.5165 21.3155 67.2963 21.2695C67.0834 21.2425 66.8824 21.1941 66.6617 21.1762C65.767 21.0927 64.8469 21.2141 63.9559 21.4718C63.063 21.7284 62.1962 22.1163 61.367 22.5804C59.7054 23.5102 58.18 24.7093 56.7442 26.0031C55.3127 27.3052 53.9708 28.7172 52.7189 30.2016C52.0866 30.9446 51.5037 31.6999 50.9395 32.4976C50.3755 33.2937 49.8124 34.093 49.2679 34.9052C48.1731 36.5258 47.1221 38.1773 46.1055 39.8494C45.0999 41.5282 44.1228 43.2244 43.2013 44.9508C42.7365 45.812 42.2966 46.6858 41.8507 47.5568L41.2095 48.8768C40.9934 49.316 40.7813 49.7567 40.5811 50.2028L39.9688 51.5366C39.7628 51.9805 39.5827 52.4352 39.3885 52.884C39.1997 53.3338 39.001 53.7859 38.8206 54.2339L38.2798 55.6049L36.1174 61.0885L33.9347 66.5644C33.5624 67.4744 33.2189 68.3932 32.877 69.3131L31.8339 72.0683L31.7354 72.0353L32.6729 69.239C32.9867 68.3066 33.3021 67.3745 33.6451 66.4544L35.6608 60.9151L37.6969 55.3836L38.2057 54.0007C38.3815 53.5334 38.5684 53.0816 38.7491 52.6211C38.9345 52.1643 39.1061 51.701 39.3032 51.2488L39.8895 49.8901L40.1838 49.2112L40.4968 48.5409L41.1247 47.2011C41.562 46.3171 41.9931 45.4295 42.4494 44.5554C43.354 42.8022 44.3144 41.0789 45.3042 39.3728C46.3052 37.6732 47.3408 35.9938 48.4229 34.3428C48.9601 33.515 49.517 32.6996 50.0859 31.8905C50.6509 31.0801 51.2639 30.2746 51.9007 29.5175C53.1721 27.9903 54.5332 26.5387 56.0001 25.1872C57.4678 23.8386 59.0606 22.6031 60.8293 21.6099C61.7141 21.1164 62.6527 20.6944 63.6493 20.4081C64.6428 20.1229 65.7041 19.9739 66.7688 20.0798C67.0368 20.1037 67.3169 20.1671 67.5891 20.2134C67.8478 20.2722 68.0662 20.3515 68.3064 20.4196L68.3506 20.4328L68.3727 20.4393C68.4437 20.4635 68.4063 20.4518 68.4281 20.4596L68.5241 20.4994L68.7157 20.5797C68.8441 20.6323 68.9622 20.7035 69.0854 20.7651C69.3251 20.8993 69.5534 21.0506 69.7674 21.2165C70.6235 21.8855 71.2587 22.7424 71.7696 23.6303C72.7826 25.4225 73.3598 27.3608 73.8174 29.297C74.2638 31.2395 74.5558 33.2035 74.7674 35.1707C74.9791 37.1381 75.1041 39.111 75.1642 41.0841C75.2229 43.0591 75.2318 45.0268 75.1608 47.0095L75.16 46.9643C75.2133 48.2651 75.16 49.5211 75.0467 50.7886C75.024 51.105 74.9884 51.4199 74.9507 51.7345C74.913 52.0491 74.8811 52.3645 74.8387 52.6783C74.738 53.3036 74.6655 53.9333 74.5417 54.5542C74.0971 57.0466 73.4451 59.4968 72.6211 61.8849C71.8053 64.274 70.7463 66.5847 69.5622 68.8074L68.6512 70.4631C68.3212 71.0013 68.0043 71.5475 67.6484 72.0699C67.3093 72.6026 66.9339 73.1109 66.5688 73.6257C66.184 74.1265 65.805 74.6317 65.3944 75.1121C63.7788 77.0525 61.9291 78.8028 59.8699 80.2708C57.8092 81.7278 55.5331 82.9277 53.0598 83.5598C52.4405 83.7103 51.8097 83.8221 51.1696 83.8791C50.5297 83.9324 49.8753 83.9267 49.2263 83.7865C48.9005 83.7031 48.588 83.6204 48.2685 83.4327C48.0948 83.3453 47.9864 83.2462 47.8593 83.1513C47.8658 83.1573 47.8241 83.1235 47.8202 83.1178L47.7974 83.0944L47.7519 83.0476L47.6609 82.954C47.5977 82.8955 47.547 82.8186 47.4929 82.7463C47.4669 82.7091 47.4388 82.674 47.4146 82.635L47.3507 82.5084C47.3301 82.4655 47.3075 82.4241 47.2901 82.3794L47.2506 82.2361C47.195 82.0463 47.2059 81.8318 47.2535 81.6374C47.3608 81.2419 47.6286 80.9622 47.8941 80.7482C48.4404 80.3212 49.0537 80.0709 49.6676 79.8662C50.2848 79.6679 50.9127 79.5256 51.5442 79.4198C52.8078 79.2121 54.0842 79.133 55.3571 79.1398C56.6314 79.1499 57.9002 79.2409 59.1651 79.4164C59.4851 79.458 59.7969 79.5075 60.105 79.5592L61.0327 79.7048C61.3395 79.7495 61.6445 79.8085 61.952 79.8439L62.8743 79.9489C64.1048 80.0659 65.3385 80.1075 66.5683 80.0376C67.801 79.9817 69.0207 79.7916 70.298 79.6629C70.9387 79.6034 71.5972 79.58 72.261 79.6281C72.4264 79.6411 72.5915 79.6686 72.7566 79.6894C72.9214 79.7102 73.0863 79.7337 73.2532 79.7779L73.7513 79.8948C73.9133 79.937 74.0532 79.9913 74.205 80.0391C74.8358 80.2321 75.4505 80.5435 76.017 80.9177C76.1545 81.0183 76.2838 81.1322 76.4169 81.2396L76.6145 81.4036C76.6761 81.4632 76.7325 81.5284 76.7915 81.5906C76.9067 81.7177 77.0279 81.8404 77.1366 81.9725L77.4327 82.3929C77.7959 82.9712 78.0731 83.6022 78.2259 84.2548C78.3817 84.9063 78.4542 85.568 78.4638 86.2245C78.467 86.8826 78.4103 87.5277 78.3081 88.1758C78.2842 88.3415 78.2548 88.4954 78.2249 88.6488L78.2028 88.7645L78.1763 88.8903C78.1586 88.9717 78.1407 89.0526 78.1201 89.1316C78.0414 89.4504 77.9498 89.7611 77.8469 90.0679C77.4389 91.2951 76.8817 92.4632 76.2013 93.5568C75.5186 94.648 74.7082 95.6638 73.7677 96.5463C72.8351 97.4365 71.7743 98.1877 70.6418 98.7958C69.5027 99.3935 68.2887 99.8374 67.0449 100.134C66.7334 100.208 66.4144 100.264 66.0998 100.33L65.1602 100.468C64.5307 100.529 63.9036 100.606 63.2731 100.654L62.3262 100.707C62.011 100.729 61.6946 100.736 61.3782 100.736L60.43 100.746L59.4818 100.714C58.219 100.653 56.9564 100.52 55.7198 100.246C55.1021 100.109 54.49 99.9429 53.8967 99.7206C53.3062 99.4931 52.7199 99.2454 52.1973 98.8733L52.2571 98.7904Z"
        fill="#0A71FF" />
    <path
        d="M76.8296 91.4942C76.8296 91.4942 77.424 91.1492 78.3714 90.4321C78.843 90.0725 79.4026 89.6214 80.0021 89.0619C80.5975 88.4995 81.2434 87.8404 81.8663 87.0578C82.1866 86.6738 82.4895 86.2507 82.7896 85.8054C82.9282 85.5781 83.0849 85.3449 83.2285 85.1208C83.3013 84.9976 83.3746 84.8735 83.4482 84.7482C83.5165 84.6257 83.5826 84.5028 83.6554 84.3811C84.2084 83.3785 84.7573 82.2831 85.2029 81.0936C85.6485 79.9062 85.9639 78.6132 86.0508 77.2802C86.0942 76.6146 86.0786 75.9404 85.9928 75.2754C85.8992 74.6116 85.7312 73.9595 85.4819 73.3503C85.2263 72.7443 84.8912 72.1785 84.4604 71.7136C84.2448 71.4822 84.0212 71.2602 83.7661 71.0798C83.6991 71.0324 83.6291 70.9687 83.5665 70.9321L83.3787 70.8135C83.2617 70.7308 83.1102 70.6637 82.9773 70.5886C81.8619 70.0208 80.5814 69.8125 79.3542 69.7748C78.738 69.7621 78.1286 69.7688 77.5321 69.8167C77.2342 69.8437 76.9391 69.8679 76.6486 69.9087C76.3572 69.9386 76.0701 69.9805 75.787 70.0244C74.6565 70.2098 73.5962 70.4677 72.6329 70.761C71.6665 71.0475 70.8012 71.3827 70.0418 71.7006C69.2841 72.0238 68.6399 72.3462 68.1108 72.6195C67.5827 72.8948 67.1789 73.1348 66.9049 73.3012C66.6293 73.4671 66.4824 73.5555 66.4824 73.5555L66.4189 73.4733C66.4189 73.4733 66.5476 73.3579 66.7887 73.1415C67.0331 72.9289 67.4025 72.6288 67.8913 72.268C68.3827 71.9115 68.9981 71.4991 69.7417 71.0883C70.4838 70.6747 71.3517 70.2592 72.3324 69.8835C73.3157 69.5174 74.4087 69.1784 75.5995 68.9566C76.1931 68.8375 76.8122 68.7561 77.4492 68.7091C78.0859 68.661 78.7427 68.6495 79.4098 68.6989C80.7369 68.7954 82.1432 69.0608 83.4151 69.7795C83.5711 69.8785 83.7266 69.9576 83.8818 70.0774C84.0386 70.1898 84.1957 70.3021 84.3129 70.4142C84.5945 70.6513 84.8374 70.9323 85.0633 71.2202C85.5056 71.8078 85.8103 72.4783 86.0183 73.1592C86.2291 73.8412 86.3409 74.5419 86.3789 75.2366C86.4278 75.9308 86.4148 76.6214 86.3674 77.3015C86.2684 78.6621 86.0388 79.9871 85.7323 81.2556C85.4213 82.5231 85.0076 83.73 84.4601 84.8101C84.392 84.9468 84.3189 85.0813 84.2474 85.2133C84.1751 85.3392 84.1034 85.4645 84.0321 85.5883C83.8712 85.8488 83.7183 86.0864 83.5574 86.3256C83.2259 86.7903 82.892 87.2299 82.5426 87.6264C81.8408 88.4171 81.1261 89.0712 80.4496 89.5907C80.279 89.7184 80.1139 89.8421 79.9545 89.9612C79.7894 90.0722 79.6301 90.1788 79.4772 90.2813C79.1667 90.4794 78.881 90.6585 78.6114 90.8013C78.0786 91.0969 77.6431 91.2942 77.341 91.4162C77.0381 91.5358 76.872 91.5888 76.872 91.5888L76.8296 91.4942Z"
        fill="#0A71FF" />
    <path
        d="M77.8556 84.7234C77.8556 84.7234 77.945 84.6763 78.1023 84.5718C78.2594 84.4673 78.483 84.3045 78.7412 84.0749C79.0001 83.8461 79.2856 83.5393 79.55 83.1522C79.8105 82.763 80.0505 82.2919 80.1992 81.742C80.3669 81.1952 80.408 80.573 80.3953 79.9045C80.395 79.8169 80.3948 79.7285 80.3942 79.6399C80.3911 79.5541 80.3799 79.4753 80.3732 79.3918C80.3597 79.2262 80.3576 79.0564 80.3207 78.8856C80.2913 78.7145 80.2736 78.5364 80.219 78.3685L80.1498 78.109C80.1223 78.024 80.0846 77.9426 80.0521 77.8578C79.926 77.5159 79.7136 77.2081 79.4666 76.9236C79.3249 76.8012 79.2003 76.6509 79.0321 76.5563L78.7924 76.3961C78.7074 76.3501 78.6184 76.3111 78.5306 76.2697C77.8236 75.9349 77.0012 75.8745 76.2145 75.9471C75.8229 75.9811 75.4176 76.0441 75.0489 76.1335C74.642 76.219 74.2829 76.3402 73.921 76.4549C73.1837 76.7084 72.4767 77.0302 71.7958 77.35C71.1156 77.6823 70.4581 78.0037 69.8346 78.3084C69.2098 78.6175 68.6116 78.9017 68.0562 79.1615C67.4977 79.415 66.9832 79.6456 66.5152 79.8278C66.0511 80.0163 65.6353 80.1591 65.2895 80.2639C64.9419 80.3653 64.6684 80.4388 64.4768 80.4732C64.2872 80.5101 64.1861 80.5298 64.1861 80.5298L64.165 80.4547C64.165 80.4547 64.2576 80.4121 64.4315 80.3317C64.5179 80.2909 64.6268 80.2496 64.7506 80.1892C64.8735 80.1271 65.0147 80.0556 65.1728 79.9755C65.8023 79.6503 66.6805 79.1516 67.7374 78.5429C68.2684 78.2434 68.8427 77.9132 69.4641 77.5846C69.7738 77.4171 70.0928 77.2479 70.4287 77.0898C70.7599 76.9249 71.1052 76.765 71.4601 76.6122C72.1736 76.31 72.9229 76.0168 73.7185 75.7955C73.9205 75.7425 74.1306 75.6972 74.3368 75.6499C74.5468 75.5992 74.7408 75.5904 74.9444 75.5584L75.0957 75.5404C75.1701 75.529 75.2067 75.5337 75.2639 75.5293L75.5777 75.5165C75.7857 75.5017 75.9971 75.5157 76.2059 75.5199C77.0405 75.5579 77.8808 75.699 78.6301 76.0539C79.0144 76.2123 79.3425 76.4679 79.661 76.724C79.9502 77.0107 80.2294 77.3168 80.4226 77.6714C80.4725 77.7585 80.5279 77.844 80.5729 77.9332L80.6925 78.2065C80.7796 78.3872 80.8329 78.5749 80.8877 78.7616C80.9496 78.9459 80.9805 79.1391 81.0146 79.3294C81.0289 79.4241 81.0479 79.5218 81.0578 79.6128C81.0645 79.7012 81.0715 79.7891 81.0783 79.8765C81.0861 79.9636 81.0892 80.0504 81.0936 80.1367L81.0968 80.2012L81.0975 80.2171L81.0973 80.2485L81.096 80.2826L81.0903 80.418C81.0801 80.5974 81.0806 80.7753 81.0565 80.9482C81.026 81.1208 80.9961 81.2903 80.9668 81.457C80.9301 81.6221 80.8763 81.7807 80.8326 81.9377C80.6202 82.5555 80.3066 83.0771 79.9606 83.4715C79.6189 83.8708 79.2539 84.1496 78.9382 84.3409C78.6226 84.5341 78.3556 84.6459 78.1718 84.7127C77.9853 84.7746 77.8832 84.7972 77.8832 84.7972L77.8556 84.7234Z"
        fill="#0A71FF" />
    <path
        d="M51.193 91.3986C51.193 91.3986 51.1815 91.4379 51.1776 91.5206C51.1727 91.6022 51.1724 91.7262 51.2031 91.8843C51.2525 92.2015 51.4402 92.6555 51.8357 93.1152C52.2249 93.5793 52.8224 94.0298 53.5616 94.4321C53.6539 94.4822 53.748 94.5335 53.8434 94.5852C53.9417 94.6297 54.0413 94.6746 54.1424 94.7204C54.2425 94.7555 54.3442 94.7911 54.4471 94.8275C54.5527 94.8605 54.6653 94.8886 54.7755 94.9198C55.225 95.0347 55.7131 95.0987 56.2227 95.1567C57.2455 95.2563 58.3684 95.2779 59.5561 95.229C60.1502 95.2056 60.7604 95.1653 61.385 95.1117C62.0087 95.0537 62.6439 94.9661 63.2858 94.8507C64.5645 94.6203 65.8918 94.256 67.0652 93.5595C68.2729 92.9022 68.9764 91.5767 69.1951 90.2588C69.2903 89.5966 69.2458 88.913 68.9871 88.3325C68.8641 88.0415 68.6962 87.774 68.4832 87.5483C68.2674 87.3247 68.0139 87.1414 67.7412 86.9898C67.183 86.7038 66.5525 86.5494 65.9126 86.4956C65.272 86.4404 64.6243 86.4758 63.9917 86.5509C63.3591 86.624 62.7354 86.748 62.1332 86.8788C61.8246 86.9506 61.5194 87.0221 61.218 87.0923C60.9141 87.1573 60.6182 87.2264 60.3286 87.2977C59.1638 87.5675 58.0705 87.873 57.0593 88.1369C56.0513 88.4128 55.1346 88.6926 54.341 88.9952C53.546 89.2926 52.8801 89.6265 52.3812 89.9731C51.8757 90.3121 51.5515 90.673 51.3864 90.9483C51.3479 91.0185 51.3136 91.0812 51.284 91.1347C51.2606 91.1909 51.247 91.2406 51.2327 91.2796C51.2067 91.3581 51.193 91.3986 51.193 91.3986ZM51.117 91.3815C51.117 91.3815 51.1303 91.3386 51.1563 91.2554C51.1703 91.2143 51.1836 91.161 51.207 91.1012C51.2364 91.044 51.2707 90.978 51.3094 90.9033C51.4761 90.6111 51.8045 90.2377 52.2943 89.8545C52.7865 89.4749 53.4271 89.0698 54.1983 88.677C54.9695 88.2859 55.8607 87.8808 56.8584 87.5116C57.8575 87.1466 58.955 86.8076 60.1362 86.5083C60.7256 86.3437 61.3257 86.2116 61.9445 86.0681C62.5804 85.9319 63.2286 85.8011 63.9075 85.7478C64.583 85.6872 65.28 85.6675 65.9888 85.7486C66.6942 85.8313 67.4209 86.0138 68.0792 86.3921C68.4021 86.5912 68.704 86.8333 68.9575 87.1253C69.2089 87.4196 69.401 87.7623 69.5315 88.1219C69.79 88.8491 69.7713 89.6254 69.6145 90.3376C69.4525 91.0539 69.1538 91.7236 68.7435 92.3175C68.6426 92.4748 68.5409 92.6027 68.4268 92.7491C68.3056 92.8853 68.1855 93.0221 68.0472 93.137C67.9182 93.2631 67.7711 93.3637 67.632 93.475C67.4843 93.5722 67.3405 93.6762 67.1876 93.7628C66.5837 94.1245 65.9448 94.398 65.306 94.6432C64.6643 94.88 64.0208 95.0901 63.3771 95.2604C62.0901 95.5984 60.8156 95.8272 59.593 95.9117C58.371 95.9895 57.2021 95.9598 56.1376 95.77C55.6046 95.6821 55.1005 95.5449 54.6322 95.3764C54.5155 95.3296 54.4016 95.288 54.2883 95.2394C54.1754 95.1853 54.0644 95.1322 53.9549 95.08C53.8543 95.0207 53.755 94.9627 53.6572 94.9055C53.5649 94.8413 53.4739 94.7781 53.3845 94.716C52.6705 94.2176 52.1082 93.6976 51.7286 93.2007C51.3552 92.6992 51.1649 92.2325 51.1173 91.8986C51.0882 91.7327 51.0903 91.6017 51.097 91.5143C51.1001 91.4707 51.1048 91.4369 51.1095 91.4135C51.1139 91.3906 51.117 91.3815 51.117 91.3815Z"
        fill="#0A71FF" />
    <path
        d="M38.9637 71.7718C38.9637 71.7718 38.9379 71.8786 38.9057 72.0916C38.8747 72.304 38.8339 72.6228 38.8412 73.038C38.8469 73.2449 38.8625 73.4771 38.9195 73.7233C38.9746 73.9683 39.0705 74.2322 39.2533 74.4589C39.4369 74.6838 39.7234 74.8434 40.0572 74.8762C40.3879 74.9139 40.7595 74.8507 41.1404 74.7917C41.5252 74.7306 41.9282 74.645 42.3496 74.5535C42.7693 74.4521 43.2066 74.3395 43.66 74.2121C44.5664 73.9568 45.5375 73.6482 46.5585 73.2756C48.6011 72.5333 50.8425 71.525 53.1529 70.2076C55.4573 68.8868 57.8454 67.2527 60.0164 65.1387C60.5606 64.6132 61.0917 64.0586 61.5956 63.4684C61.859 63.1824 62.0961 62.8725 62.3439 62.5675C62.5979 62.2667 62.8207 61.9407 63.054 61.6188C63.2942 61.3011 63.503 60.9605 63.7196 60.6217C63.9442 60.2873 64.1371 59.9327 64.3345 59.5773C64.4314 59.3997 64.538 59.2221 64.628 59.0435L64.9067 58.4876C65.0853 58.1202 65.2582 57.744 65.4252 57.3621C66.7613 54.3089 67.6011 50.9109 67.9862 47.4186C68.3668 43.9276 68.3109 40.3115 67.6432 36.8254C67.4703 35.9565 67.2524 35.0977 66.9654 34.2712C66.6789 33.448 66.3183 32.6449 65.825 31.9819C65.5819 31.6501 65.291 31.3714 64.9774 31.1905C64.8181 31.108 64.6553 31.0514 64.4905 31.0251C64.3248 31.0056 64.1577 31.0199 63.9894 31.0581C63.906 31.088 63.8212 31.1049 63.7388 31.1478L63.6319 31.1951L63.4879 31.2781L62.912 31.6098C62.7123 31.7154 62.5425 31.8397 62.3715 31.9619L61.8548 32.3256C60.4781 33.3498 59.207 34.5411 58.0097 35.7589C56.8056 36.9757 55.6967 38.2612 54.6302 39.5411C54.3676 39.8648 54.1061 40.1872 53.8458 40.5083C53.5866 40.83 53.3404 41.1599 53.0861 41.481C52.5749 42.1211 52.1028 42.7807 51.6231 43.4242C51.1595 44.0784 50.6972 44.724 50.2635 45.3758C50.0456 45.7011 49.8293 46.0245 49.614 46.3456C49.4011 46.6683 49.2035 46.9966 48.9994 47.3185C48.5839 47.9589 48.2272 48.6177 47.8525 49.255C47.6815 49.581 47.5117 49.9045 47.3435 50.2253L47.2174 50.4656L47.1854 50.5251L47.1578 50.5805L47.0978 50.7037C47.0177 50.868 46.9381 51.0316 46.8588 51.1943C46.2216 52.4951 45.6693 53.7564 45.1212 54.9849C44.05 57.4408 43.106 59.7156 42.3151 61.7498C41.5283 63.7854 40.8507 65.5656 40.3549 67.0525C39.8451 68.5345 39.4847 69.7128 39.2603 70.5209C39.1535 70.9255 39.0658 71.2364 39.0271 71.4465C38.9858 71.6574 38.9647 71.7661 38.9647 71.7661L38.9637 71.7718ZM38.8625 71.7479C38.8669 71.7242 38.8864 71.616 38.921 71.4265C38.9587 71.2097 39.0422 70.8987 39.1449 70.49C39.3607 69.6764 39.7145 68.4953 40.1682 66.9927C40.6362 65.4946 41.182 63.6673 41.8728 61.5915C42.5615 59.5151 43.3441 57.172 44.3113 54.6523C44.5589 54.0239 44.8069 53.3822 45.0778 52.7317C45.356 52.0833 45.6337 51.4151 45.9387 50.7609C46.0136 50.5961 46.089 50.4305 46.1644 50.2641L46.221 50.139L46.2528 50.0704L46.284 50.008L46.4111 49.7584C46.5811 49.425 46.7525 49.0889 46.9251 48.7503C47.3003 48.0928 47.6601 47.4103 48.0754 46.7528C49.6811 44.0849 51.622 41.4394 53.8042 38.8506C54.9071 37.5659 56.0516 36.2779 57.2991 35.0535C58.5463 33.8289 59.8453 32.6254 61.3273 31.5773L61.9048 31.1941C62.0974 31.0651 62.2898 30.9351 62.4851 30.8384L63.0693 30.5215L63.2157 30.4422C63.2224 30.4378 63.2796 30.4094 63.277 30.4123L63.3225 30.3933L63.4133 30.3559C63.5313 30.3013 63.665 30.2708 63.7929 30.2334C64.0589 30.1775 64.3399 30.1616 64.616 30.204C64.8906 30.2526 65.1485 30.353 65.3807 30.4838C65.8334 30.7599 66.1807 31.1312 66.4558 31.524C67 32.3189 67.3385 33.1873 67.6076 34.0619C67.8741 34.9386 68.0623 35.8299 68.2046 36.7251C68.4911 38.5152 68.5998 40.3211 68.5966 42.1149C68.6021 43.9089 68.4981 45.6938 68.3021 47.4535C67.9022 50.9702 67.1518 54.4012 65.9444 57.5742C65.791 57.9694 65.6311 58.3607 65.4618 58.7499C65.376 58.9403 65.2905 59.1303 65.2055 59.3199C65.1165 59.5154 65.0175 59.6971 64.9241 59.8859C64.7356 60.2603 64.5508 60.6349 64.3337 60.9891C64.1246 61.3479 63.9226 61.7093 63.6884 62.0473C63.4611 62.3899 63.243 62.7373 62.9936 63.0589C62.7495 63.3842 62.5191 63.7185 62.2547 64.0214C61.7462 64.6449 61.2087 65.2312 60.6575 65.7879C58.4356 68.0031 55.9596 69.6814 53.5499 70.932C51.1379 72.1896 48.7982 73.0528 46.7023 73.7025C44.6012 74.3458 42.7277 74.7451 41.1679 74.9719C40.7751 75.0197 40.4033 75.0748 40.038 75.0236C39.675 74.9765 39.3552 74.7886 39.1545 74.54C38.9551 74.2878 38.8576 74.0057 38.8019 73.7491C38.7447 73.4912 38.731 73.2522 38.7268 73.0398C38.7229 72.6142 38.7674 72.2913 38.8006 72.0752C38.8355 71.8594 38.863 71.7481 38.863 71.7481L38.8625 71.7479Z"
        fill="#0A71FF" />
    <path
        d="M56.1404 25.7377C56.1404 25.7377 56.1419 25.4512 56.0309 24.9231C55.9219 24.3989 55.702 23.6364 55.2436 22.7544C55.0013 22.321 54.7257 21.8457 54.3583 21.3746C54.2673 21.2566 54.1745 21.1365 54.0799 21.0137C53.9798 20.8954 53.8708 20.7803 53.764 20.6601C53.654 20.5429 53.5541 20.4131 53.4332 20.298C53.3134 20.182 53.1917 20.0642 53.0682 19.9444C52.5734 19.4654 51.9894 19.0182 51.3597 18.5697C50.7196 18.1207 50.0306 17.7086 49.2636 17.3808C48.5052 17.0472 47.6722 16.8116 46.811 16.8002C45.9502 16.7778 45.0729 17.0001 44.2524 17.4359C43.431 17.8727 42.6651 18.5029 41.9602 19.2366C41.253 19.9701 40.6124 20.8128 40.0157 21.7095C39.4203 22.6075 38.8592 23.5573 38.3548 24.5531C38.2297 24.8025 38.1044 25.0528 37.9786 25.3037C37.8582 25.5585 37.7375 25.8141 37.6166 26.0705C37.3761 26.5835 37.1266 27.0957 36.8983 27.619C36.6684 28.1416 36.4238 28.6606 36.2041 29.1918C35.9851 29.723 35.7655 30.2557 35.5455 30.7897C35.3448 31.3305 35.1433 31.8724 34.942 32.415C34.7452 32.9589 34.5713 33.5112 34.3846 34.0585C34.1945 34.6045 34.0419 35.1627 33.8807 35.717C33.7224 36.2718 33.5513 36.822 33.4234 37.3833C33.2827 37.9405 33.1423 38.4964 33.0022 39.0507C32.8808 39.6092 32.7596 40.1664 32.6392 40.721C32.5786 40.9981 32.5181 41.2748 32.4577 41.5506C32.4078 41.8288 32.3582 42.1065 32.3085 42.3834C32.2102 42.9372 32.1122 43.4881 32.015 44.0357C31.8501 45.1363 31.7071 46.2267 31.5696 47.299C31.4619 48.3756 31.3564 49.4341 31.2529 50.4704C31.1858 51.5107 31.1081 52.527 31.0267 53.5169C30.9669 54.5082 30.9396 55.4747 30.886 56.4086C30.8247 57.342 30.8151 58.2465 30.7961 59.1147C30.7735 59.9831 30.7516 60.8156 30.7311 61.607C30.7355 62.399 30.7225 63.1509 30.7186 63.8576C30.7129 64.5648 30.7074 65.2265 30.7022 65.8383C30.7098 66.4503 30.7168 67.0127 30.723 67.5202C30.7285 68.5371 30.7326 69.336 30.7355 69.8807C30.7329 70.4262 30.7313 70.7172 30.7313 70.7172L30.6276 70.7237C30.6276 70.7237 30.5964 70.4345 30.5382 69.8924C30.4851 69.3493 30.4076 68.5532 30.3088 67.5397C30.2579 67.0327 30.2087 66.4711 30.1612 65.8588C30.1255 65.246 30.0868 64.583 30.0457 63.8747C30.0065 63.1662 29.9558 62.412 29.9204 61.6161C29.904 60.8195 29.8863 59.982 29.8681 59.1082C29.8198 57.3597 29.8801 55.463 29.9435 53.4578C30.0015 52.4558 30.067 51.4262 30.1458 50.375C30.2462 49.3251 30.3689 48.2534 30.4997 47.1653C30.6637 46.0809 30.834 44.9782 31.0264 43.8664C31.1377 43.3129 31.2498 42.756 31.3626 42.1962C31.4193 41.9164 31.4765 41.6362 31.5334 41.3554C31.6026 41.0769 31.672 40.7977 31.7414 40.5179C32.2492 38.2692 33.0157 36.048 33.8472 33.8684C34.6768 31.6847 35.6653 29.5729 36.6091 27.4883C37.0836 26.4462 37.5545 25.4124 38.0197 24.3909C38.5001 23.373 38.9879 22.3696 39.5391 21.4154C40.0874 20.4605 40.6922 19.5497 41.3908 18.7263C41.7338 18.31 42.1131 17.926 42.5106 17.5672C42.9157 17.2154 43.3538 16.9042 43.8151 16.6366C44.7453 16.1185 45.8111 15.8299 46.8318 15.8741C47.8536 15.9055 48.7972 16.1962 49.6235 16.5753C50.45 16.9554 51.1832 17.4382 51.8262 17.9216C52.4775 18.4114 53.0588 18.9254 53.5575 19.4556C54.5637 20.5091 55.2363 21.6107 55.6419 22.568C56.0449 23.5313 56.1859 24.3449 56.2365 24.8942C56.2826 25.4452 56.2436 25.7431 56.2436 25.7431L56.1404 25.7377Z"
        fill="#0A71FF" />
    <path
        d="M52.956 29.0336C52.956 29.0336 52.9022 28.8652 52.7764 28.5573C52.6521 28.2497 52.4615 27.8018 52.1776 27.2589C51.8932 26.7176 51.513 26.0782 50.9855 25.435C50.4548 24.8011 49.7679 24.1514 48.872 23.7575C48.4289 23.557 47.9393 23.4098 47.4149 23.3703C47.3367 23.3586 47.287 23.3667 47.2293 23.3677C47.1726 23.3701 47.1159 23.3706 47.0587 23.369C46.936 23.3841 46.8078 23.3909 46.6822 23.4158C46.43 23.4678 46.1752 23.5411 45.9241 23.6537C45.4173 23.8633 44.9239 24.1924 44.4525 24.5832C43.9808 24.975 43.5271 25.4287 43.1049 25.93C42.2583 26.9321 41.5309 28.1119 40.9581 29.3776C40.4305 30.6493 40.1131 32.0546 39.7863 33.4297C39.6295 34.1216 39.5029 34.8207 39.3601 35.511C39.2819 35.8547 39.2332 36.2044 39.1685 36.5492C39.1038 36.8937 39.039 37.2372 38.9748 37.5796C38.8321 38.261 38.7476 38.9472 38.6345 39.6193C38.5814 39.9557 38.5287 40.2906 38.4761 40.6226C38.4296 40.9554 38.3986 41.2882 38.3594 41.6166C38.2902 42.2689 38.2011 42.9322 38.122 43.5375C38.0734 44.1781 38.0141 44.8039 37.9509 45.4126C37.9208 45.7171 37.8909 46.0174 37.8615 46.3132C37.8448 46.6055 37.8285 46.893 37.8121 47.1762C37.776 47.743 37.7411 48.2908 37.7076 48.8165C37.6816 49.8734 37.6288 50.8461 37.6444 51.7069C37.6506 52.1372 37.6327 52.5428 37.6517 52.9149C37.6636 53.2877 37.6756 53.6307 37.679 53.9416C37.7104 54.5599 37.7341 55.0498 37.7689 55.38C37.7916 55.7135 37.8147 55.8885 37.8147 55.8885L37.7133 55.9117C37.7133 55.9117 37.6574 55.7393 37.5742 55.4138C37.4845 55.088 37.3922 54.6049 37.2666 53.9877C37.1652 53.3686 37.036 52.6138 36.9627 51.7418C36.853 50.8705 36.8327 49.8841 36.7796 48.8053C36.7773 48.2651 36.7879 47.7009 36.7921 47.1161C36.7973 46.8239 36.8028 46.5267 36.8082 46.2248C36.8288 45.9282 36.8493 45.6274 36.8704 45.3219C36.9096 44.7111 36.9559 44.0843 37.0152 43.4447C37.1033 42.7759 37.1868 42.1379 37.2921 41.4668C37.3444 41.1343 37.3886 40.7976 37.4484 40.4612C37.5141 40.1258 37.5802 39.788 37.6467 39.4482C37.7133 39.1086 37.7804 38.7667 37.8477 38.4235L37.9499 37.9077L38.0739 37.3939C38.2424 36.7083 38.4052 36.0159 38.6022 35.3298C38.8139 34.647 39.0109 33.9591 39.2366 33.2792C39.4633 32.5998 39.6784 31.9183 39.9269 31.2499C40.0403 30.9127 40.1549 30.5765 40.28 30.2432L40.4581 29.7432L40.5039 29.6194L40.5592 29.4899L40.6687 29.2474C41.261 27.9645 41.9105 26.7355 42.6621 25.5977C43.0394 25.0304 43.4562 24.4943 43.9281 24.0138C44.1631 23.7733 44.4184 23.5523 44.6834 23.3459C44.9587 23.1517 45.2405 22.9665 45.5479 22.8233C46.1622 22.5391 46.8299 22.3761 47.5197 22.4494C48.1427 22.5152 48.731 22.7071 49.2521 22.9608C50.296 23.4881 51.0305 24.2756 51.5383 25.019C52.0541 25.7654 52.3645 26.4859 52.5806 27.0829C52.7967 27.6816 52.9085 28.1673 52.9755 28.4988C53.0377 28.8316 53.0569 29.0121 53.0569 29.0121L52.956 29.0336Z"
        fill="#0A71FF" />
    <path
        d="M31.0234 70.7467C30.5642 67.4431 29.8489 64.1469 28.9119 60.9475C28.2559 58.7082 27.4673 56.4391 26.2433 54.4403C25.0457 52.4843 22.7504 50.3318 20.2713 50.9131C18.4773 51.3341 17.5268 53.3272 17.3396 55.0003C17.105 57.0938 17.4883 59.6645 18.9061 61.3061C19.8072 62.3497 21.8337 62.8687 22.5099 61.3092C23.188 59.7453 22.0796 57.7948 20.6392 57.1232C20.1863 56.9121 19.7901 57.5845 20.2456 57.7969C21.3121 58.294 21.9876 59.4034 21.9049 60.5843C21.8175 61.8329 20.4372 61.6215 19.7329 61.0282C18.6406 60.1083 18.2815 58.458 18.1336 57.112C17.975 55.6682 18.0691 54.1928 18.8473 52.931C20.575 50.1295 23.8715 52.3891 25.2402 54.3313C26.5768 56.228 27.3561 58.521 28.0295 60.72C29.0487 64.0486 29.7915 67.5045 30.2712 70.9537C30.3403 71.4503 31.0917 71.2381 31.0234 70.7467Z"
        fill="#407BFF" />
    <path
        d="M29.392 71.6607C27.2249 68.6341 23.4767 66.5837 19.7618 66.5304C17.4283 66.4971 14.5426 67.2007 13.3385 69.4084C12.4392 71.0575 12.9017 73.0902 13.9134 74.5701C14.7693 75.822 16.0329 76.679 17.4954 77.0602C19.0265 77.4593 20.6835 76.9354 21.2862 75.3834C21.8231 74.0007 21.4513 72.3599 20.1591 71.551C19.4243 71.0911 17.0438 70.6254 16.9003 71.9876C16.8475 72.4875 17.628 72.4823 17.6803 71.9876C17.6667 72.117 17.7944 71.9751 17.9538 71.9311C18.1654 71.8726 18.3893 71.8755 18.6066 71.883C19.2137 71.9038 19.7982 72.1615 20.2218 72.5923C20.917 73.2998 20.8663 74.5642 20.4287 75.3819C19.2148 77.6511 15.9637 75.8605 14.801 74.462C13.6123 73.032 13.1797 70.9086 14.3099 69.3272C15.0241 68.3281 16.2861 67.8411 17.4322 67.5657C18.9433 67.2028 20.5379 67.2353 22.0454 67.591C24.603 68.1939 27.2509 70.0045 28.7186 72.0541C29.0085 72.4595 29.6855 72.0705 29.392 71.6607Z"
        fill="#407BFF" />
    <path
        d="M20.442 58.3865C20.9536 58.3865 21.3684 57.9717 21.3684 57.4601C21.3684 56.9484 20.9536 56.5337 20.442 56.5337C19.9304 56.5337 19.5156 56.9484 19.5156 57.4601C19.5156 57.9717 19.9304 58.3865 20.442 58.3865Z"
        fill="#407BFF" stroke="#407BFF" stroke-miterlimit="10" />
    <path
        d="M17.3229 73.3039C17.8345 73.3039 18.2492 72.8892 18.2492 72.3775C18.2492 71.8659 17.8345 71.4512 17.3229 71.4512C16.8112 71.4512 16.3965 71.8659 16.3965 72.3775C16.3965 72.8892 16.8112 73.3039 17.3229 73.3039Z"
        fill="#407BFF" stroke="#407BFF" stroke-miterlimit="10" />
    <mask id="mask0_6312_25272" style="mask-type:luminance" maskUnits="userSpaceOnUse" x="0" y="0" width="195"
        height="130">
        <path d="M195 0H0V130H195V0Z" fill="white" />
    </mask>
    <g mask="url(#mask0_6312_25272)">
        <path
            d="M51.632 98.9944C53.0737 100.117 54.7975 100.925 56.4501 101.674C61.5388 103.979 66.9894 105.455 72.4533 106.551C80.517 108.169 88.6786 108.924 96.8931 108.333C104.408 107.793 111.927 106.324 119.019 103.759C121.928 102.707 124.78 101.445 127.441 99.8618C129.504 98.6341 131.509 97.1695 133.05 95.3118C134.578 93.4697 136.321 89.8523 133.208 88.5757C130.49 87.4614 126.955 88.8303 124.568 90.1454C121.087 92.0626 118.254 95.2286 117.181 99.0958C115.977 103.432 117.096 108.934 120.205 112.25C123.129 115.369 127.682 115.69 131.683 115.272C142.424 114.149 152.316 108.753 163.128 108.03C168.117 107.697 173.88 109.049 177.044 113.239C179.439 116.412 179.294 120.962 176.576 123.897C175.42 125.145 173.831 125.94 172.115 125.92C170.265 125.899 167.546 124.811 167.412 122.678C167.264 120.308 169.763 118.329 171.54 117.231C172.94 116.366 174.482 115.76 176.07 115.342C177.99 114.836 179.977 114.762 181.948 114.624C185.459 114.379 189.039 114.258 192.487 113.494C194.912 112.956 197.17 111.911 198.699 109.896C199.105 109.361 198.201 108.844 197.801 109.371C196.298 111.351 193.907 112.161 191.557 112.628C188.076 113.319 184.468 113.403 180.936 113.655C177.412 113.907 174.087 114.484 171.015 116.333C169.034 117.525 166.913 119.388 166.445 121.768C165.99 124.089 167.707 125.674 169.698 126.457C171.491 127.164 173.409 127.097 175.143 126.261C178.56 124.611 180.194 120.493 179.693 116.88C178.973 111.701 173.837 108.503 169.144 107.389C164.35 106.25 159.178 107.306 154.491 108.456C149.041 109.793 143.727 111.622 138.282 112.98C133.939 114.063 128.97 115.169 124.571 113.769C120.144 112.362 118.066 107.734 117.786 103.377C117.511 99.0802 119.551 95.1964 122.848 92.536C125.253 90.5951 128.678 88.9717 131.846 89.298C132.783 89.3945 133.653 89.804 133.883 90.6113C134.233 91.8421 133.219 93.4211 132.468 94.3846C130.987 96.2865 128.964 97.7311 126.916 98.963C124.222 100.585 121.311 101.836 118.356 102.895C111.169 105.469 103.538 106.875 95.93 107.358C87.6841 107.882 79.4697 106.983 71.4021 105.273C66.2131 104.174 61.0216 102.698 56.215 100.423C55.1948 99.9398 54.192 99.4146 53.23 98.8236C52.9897 98.6762 52.7526 98.5231 52.5204 98.3629C52.4604 98.3213 52.1281 98.0717 52.3681 98.2586C51.8449 97.8525 51.1032 98.5829 51.632 98.9944Z"
            fill="#E8F4FF" />
    </g>
    <path
        d="M140.877 29.2068C140.877 29.2068 139.447 12.6534 130.564 9.79341C121.68 6.93341 117.347 28.1234 125.494 33.15C125.494 33.15 118.604 35.1002 118.387 39.6068C118.17 44.1134 122.807 51.48 132.514 44.7634L134.854 42.38C134.854 42.38 134.94 46.7134 138.71 50.7868C142.48 54.8602 146.857 53.43 148.07 49.53C149.284 45.63 147.724 40.2568 147.204 39.0868C147.204 39.0868 158.731 34.5368 158.297 29.12C157.864 23.7034 152.014 21.7968 140.704 32.11L140.877 29.2068Z"
        fill="#E8F4FF" />
    <path
        d="M129.22 15.6218C129.22 15.6218 127.551 15.8818 127.075 17.7884C126.598 19.695 126.793 24.4616 128.526 27.04C130.26 29.6184 131.451 31.5468 133.011 31.4168C134.571 31.2868 135.243 29.9218 133.705 24.9818C132.166 20.0418 132.405 15.2318 129.22 15.6218Z"
        fill="#F0F6F0" />
    <path
        d="M127.985 32.3483C127.985 32.3483 127.833 33.2367 129.935 33.7133C132.036 34.1899 132.491 33.2367 132.47 32.7817C132.448 32.3267 131.971 31.5252 130.021 31.5033C128.071 31.4817 127.985 32.3483 127.985 32.3483Z"
        fill="#F0F6F0" />
    <path
        d="M120.315 43.2034C120.315 43.2034 120.943 45.3265 124.431 44.655C127.92 43.9834 131.928 40.9502 130.91 38.4584C129.891 35.9665 124.301 38.3284 124.301 38.3284C124.301 38.3284 119.166 39.9752 120.315 43.2034Z"
        fill="#F0F6F0" />
    <path
        d="M142.263 38.5018C142.263 38.5018 140.4 38.4803 140.421 42.2284C140.443 45.9768 141.482 47.5366 142.869 47.58C144.256 47.6234 144.755 45.2403 144.451 42.7484C144.148 40.2568 143.931 38.5234 142.263 38.5018Z"
        fill="#F0F6F0" />
    <path
        d="M141.928 35.9125C141.928 35.9125 141.863 36.6275 142.903 36.8225C143.943 37.0175 145.21 36.9525 144.983 36.14C144.755 35.3275 143.748 35.1 143.39 35.1C143.033 35.1 141.96 35.295 141.928 35.9125Z"
        fill="#F0F6F0" />
    <path
        d="M145.178 34.06C145.178 34.06 146.25 35.7175 150.345 33.15C154.44 30.5825 153.043 28.6975 152.035 28.405C151.028 28.1125 148.655 29.1525 146.868 30.6475C145.08 32.1425 144.56 33.15 145.178 34.06Z"
        fill="#F0F6F0" />
    <path
        d="M142.249 26.5876C142.249 26.5876 140.743 26.1675 139.868 28.1284C138.992 30.0893 140.393 31.1049 140.883 31.2801C141.373 31.4551 142.494 31.5601 143.229 29.8444C143.965 28.1286 143.264 26.9378 142.249 26.5876Z"
        fill="#E8F4FF" stroke="#E8F4FF" stroke-width="1.0775" stroke-miterlimit="10" />
    <path
        d="M140.313 29.64C140.313 29.64 140.497 30.7775 135.557 36.7575C130.617 42.7375 130.4 44.7419 130.173 46.8869C130.173 46.8869 133.206 47.6666 137.713 38.7834C142.22 29.9003 141.7 30.55 141.7 30.55L140.313 29.64Z"
        fill="#E8F4FF" />
    <path
        d="M142.733 27.9243C142.733 27.9243 143.5 26.948 144.96 25.3381C145.69 24.5344 146.597 23.574 147.691 22.5241C148.785 21.4755 150.057 20.3224 151.596 19.2294C152.37 18.6917 153.215 18.1665 154.207 17.7942C154.707 17.6229 155.259 17.4832 155.868 17.5638L156.095 17.6002C156.088 17.5969 156.137 17.6101 156.14 17.6117L156.163 17.6192L156.21 17.634L156.303 17.6637C156.366 17.6858 156.423 17.6985 156.493 17.7282L156.705 17.8228C156.853 17.8818 156.968 17.9702 157.099 18.0456C157.219 18.1335 157.34 18.2263 157.448 18.3308C157.882 18.752 158.181 19.2954 158.34 19.8578C158.503 20.4225 158.559 21.0044 158.56 21.5819C158.557 22.7397 158.339 23.8891 158.022 25.0199C157.701 26.1506 157.266 27.2634 156.731 28.3442C156.454 28.8889 156.149 29.3946 155.821 29.9167C155.649 30.1676 155.48 30.4221 155.301 30.6689C155.113 30.9096 154.941 31.1642 154.744 31.3992C153.978 32.3571 153.12 33.2551 152.176 34.0645C151.237 34.8793 150.207 35.6032 149.104 36.2014C148.003 36.7997 146.831 37.288 145.611 37.6C145.008 37.7573 144.36 37.8766 143.688 37.8368C143.351 37.8043 142.998 37.7378 142.664 37.5303C142.498 37.4317 142.345 37.2763 142.235 37.0885C142.126 36.8959 142.085 36.6629 142.108 36.4419C142.162 35.9939 142.488 35.6325 142.88 35.4856C143.277 35.3413 143.699 35.403 144.03 35.5488C144.362 35.6978 144.647 35.9074 144.876 36.1453C145.001 36.2584 145.095 36.3891 145.205 36.5108C145.305 36.6377 145.394 36.7693 145.489 36.8985C145.841 37.4297 146.101 37.9814 146.34 38.5529L146.501 38.9637C146.553 39.103 146.6 39.253 146.65 39.3971C146.754 39.6883 146.822 39.9769 146.904 40.2668C147.494 42.5972 147.353 45.0053 146.681 47.0931C146.351 48.1409 145.893 49.1187 145.321 49.9877C144.744 50.849 144.065 51.6262 143.203 52.1571C143.091 52.2187 142.986 52.2866 142.867 52.3368L142.781 52.3768L142.737 52.3968L142.716 52.4067C142.7 52.4127 142.719 52.407 142.677 52.4228L142.515 52.4777C142.407 52.5141 142.3 52.5502 142.193 52.5864C142.08 52.6186 141.956 52.6423 141.839 52.6696C141.6 52.7322 141.369 52.7525 141.141 52.7759C140.914 52.811 140.687 52.7925 140.464 52.798C139.572 52.7803 138.745 52.5448 138.036 52.2096C137.673 52.0562 137.361 51.8339 137.053 51.6392C136.771 51.4067 136.481 51.2052 136.257 50.9523C136.139 50.8319 136.022 50.7164 135.912 50.5989C135.813 50.4723 135.716 50.3485 135.621 50.2274C135.421 49.9936 135.278 49.7381 135.135 49.5015C135.066 49.3824 134.991 49.2701 134.931 49.1549C134.876 49.0368 134.822 48.9222 134.771 48.8112C134.673 48.5865 134.557 48.3874 134.494 48.1827C134.424 47.982 134.359 47.7964 134.3 47.6261C134.271 47.5413 134.242 47.4602 134.216 47.3832C134.192 47.3055 134.177 47.2291 134.159 47.1581C134.023 46.5905 133.951 46.2879 133.951 46.2879L134.027 46.2702C134.027 46.2702 134.122 46.5637 134.3 47.1141C134.323 47.1823 134.344 47.2558 134.372 47.3312C134.403 47.4053 134.436 47.4831 134.471 47.5647C134.54 47.7275 134.614 47.9053 134.696 48.0972C134.768 48.2927 134.895 48.4797 135.003 48.6913C135.06 48.7956 135.119 48.9029 135.179 49.0137C135.245 49.1211 135.324 49.2246 135.398 49.3345C135.474 49.4435 135.551 49.5555 135.631 49.6705C135.706 49.7885 135.813 49.8865 135.904 50.0004C135.999 50.1109 136.096 50.224 136.195 50.3397C136.304 50.446 136.42 50.549 136.536 50.6572C136.757 50.8857 137.039 51.0596 137.31 51.2643C137.605 51.4309 137.901 51.6238 138.242 51.7481C138.907 52.0294 139.669 52.1935 140.471 52.193C140.671 52.1815 140.876 52.1945 141.078 52.1558C141.281 52.1288 141.488 52.1048 141.679 52.0474C141.777 52.0214 141.873 52.0037 141.976 51.972C142.081 51.933 142.187 51.8937 142.294 51.8539L142.454 51.7944C142.425 51.8058 142.456 51.7926 142.454 51.7931L142.471 51.7845L142.505 51.7674L142.573 51.7333C142.666 51.6922 142.753 51.6309 142.844 51.5781C143.558 51.1129 144.172 50.3852 144.68 49.5732C145.183 48.7532 145.612 47.8388 145.905 46.851C146.204 45.8659 146.382 44.8155 146.433 43.737C146.452 43.1972 146.439 42.651 146.389 42.1021C146.329 41.5546 146.248 41.0036 146.12 40.4566C146.048 40.187 145.986 39.9062 145.896 39.6449C145.853 39.5115 145.816 39.3804 145.767 39.2439L145.612 38.8305C145.405 38.3121 145.165 37.7804 144.862 37.3108C144.56 36.847 144.18 36.4118 143.743 36.2103C143.527 36.1104 143.306 36.0894 143.127 36.1481C142.951 36.2131 142.816 36.3639 142.79 36.5288C142.768 36.6892 142.839 36.8532 143.029 36.976C143.212 37.1002 143.474 37.1697 143.745 37.2019C144.3 37.25 144.884 37.1678 145.474 37.0308C146.659 36.7799 147.812 36.3574 148.909 35.8208C150.003 35.2782 151.038 34.6081 151.99 33.8398C152.938 33.0661 153.801 32.1938 154.559 31.2492C155.32 30.3046 155.972 29.2911 156.481 28.2202C156.986 27.1487 157.351 26.0284 157.616 24.9127C157.874 23.7971 158.033 22.6723 157.988 21.5923C157.964 21.0541 157.884 20.5284 157.726 20.0481C157.576 19.5643 157.319 19.1418 156.982 18.8282C156.897 18.7497 156.803 18.6844 156.712 18.6158C156.613 18.5622 156.517 18.4866 156.418 18.4515L156.272 18.3844C156.223 18.3618 156.152 18.3444 156.092 18.3243L155.999 18.295L155.953 18.2804L155.929 18.2731C155.917 18.269 155.95 18.2791 155.927 18.2739L155.77 18.2521C155.348 18.1954 154.881 18.303 154.439 18.4484C153.549 18.77 152.726 19.2606 151.973 19.7733C150.457 20.7995 149.171 21.9121 148.045 22.9035C146.923 23.9042 145.975 24.8121 145.196 25.5635C144.419 26.3165 143.822 26.9231 143.416 27.3372C143.01 27.7525 142.794 27.9737 142.794 27.9737L142.733 27.9243Z"
        fill="#0A71FF" />
    <path
        d="M140.367 38.4311C140.364 38.4311 140.345 38.4231 140.299 38.4228C140.252 38.4205 140.18 38.4293 140.093 38.4641C139.917 38.5333 139.691 38.7265 139.515 39.0476C139.328 39.3614 139.184 39.7896 139.08 40.2904C138.974 40.793 138.901 41.3621 138.826 41.9936C138.759 42.6187 138.667 43.296 138.594 44.012C138.522 44.7275 138.431 45.4849 138.429 46.2719C138.428 47.0535 138.518 47.8863 138.875 48.621C139.06 48.9783 139.312 49.3139 139.655 49.5063C139.993 49.7078 140.394 49.7554 140.784 49.6948C140.888 49.6795 141.001 49.6735 141.098 49.6509L141.365 49.5698C141.455 49.5531 141.536 49.4944 141.621 49.4572L141.746 49.3956C141.786 49.3745 141.819 49.3402 141.857 49.3142C141.926 49.2552 142.009 49.2154 142.068 49.1447L142.249 48.9458C142.347 48.7913 142.455 48.6483 142.52 48.4713C142.606 48.3101 142.643 48.1182 142.702 47.9427C142.732 47.7519 142.785 47.5719 142.794 47.3767L142.821 47.0904L142.829 46.801C142.839 46.6097 142.83 46.4165 142.822 46.2249C142.802 45.8427 142.77 45.4633 142.722 45.0926C142.703 44.9072 142.67 44.7239 142.643 44.5424C142.62 44.3604 142.592 44.181 142.559 44.0042C142.527 43.8227 142.503 43.6592 142.465 43.4827C142.431 43.3085 142.398 43.1369 142.365 42.9681C142.298 42.6369 142.233 42.3166 142.171 42.0092C142.043 41.3928 141.914 40.8278 141.755 40.3403C141.6 39.8523 141.42 39.4386 141.22 39.1323C141.026 38.8214 140.814 38.6191 140.647 38.5252C140.477 38.4337 140.372 38.4407 140.374 38.4327L140.374 38.4311H140.367ZM140.382 38.3521L140.381 38.3544C140.377 38.3625 140.5 38.3536 140.688 38.4501C140.872 38.5476 141.104 38.7473 141.34 39.0458C141.574 39.3463 141.825 39.7348 142.077 40.2025C142.325 40.671 142.58 41.2157 142.804 41.8285C142.856 41.9825 142.914 42.1385 142.965 42.3004C143.013 42.464 143.061 42.6306 143.111 42.8002C143.16 42.9689 143.197 43.1379 143.24 43.3116C143.283 43.4816 143.321 43.6743 143.359 43.8524C143.44 44.2169 143.504 44.5973 143.549 44.9901C143.597 45.3822 143.634 45.787 143.632 46.2038C143.633 46.4121 143.634 46.6216 143.615 46.8356C143.607 46.9422 143.604 47.0488 143.592 47.1562L143.544 47.4804C143.522 47.6965 143.45 47.9146 143.402 48.1322C143.32 48.3467 143.265 48.568 143.14 48.7731C143.042 48.9858 142.89 49.1769 142.741 49.3649L142.469 49.6103C142.381 49.6935 142.266 49.744 142.165 49.8103C142.112 49.8394 142.061 49.875 142.006 49.8969L141.836 49.9577C141.722 49.9936 141.616 50.0471 141.493 50.0591L141.136 50.1155C141.022 50.1262 140.921 50.1181 140.812 50.1207C140.358 50.1335 139.873 50.0224 139.499 49.751C139.307 49.6244 139.145 49.4619 139.011 49.2848C138.868 49.1124 138.762 48.9193 138.663 48.7266C138.29 47.9409 138.135 47.1052 138.016 46.3003C137.903 45.4919 137.87 44.7002 137.913 43.9559C137.961 43.2112 138.059 42.5149 138.217 41.8813C138.363 41.2532 138.561 40.6793 138.762 40.1898C138.862 39.9438 138.973 39.7199 139.073 39.514C139.185 39.3125 139.292 39.131 139.4 38.9732C139.619 38.6594 139.867 38.4634 140.064 38.3885C140.261 38.3094 140.394 38.3594 140.389 38.356L140.382 38.3521Z"
        fill="#0A71FF" />
    <path
        d="M143.96 32.8387C143.963 32.8369 143.945 32.8153 143.937 32.7511C143.932 32.7199 143.926 32.6814 143.919 32.6357C143.921 32.5915 143.922 32.5402 143.924 32.4823C143.918 32.3642 143.962 32.2293 143.989 32.0647C144.027 31.903 144.096 31.7262 144.16 31.5216C144.243 31.326 144.347 31.1152 144.449 30.877C144.564 30.6477 144.707 30.4103 144.847 30.1462C144.985 29.8791 145.176 29.6295 145.354 29.3456C145.448 29.2065 145.545 29.0643 145.644 28.9182C145.745 28.7778 145.852 28.6379 145.967 28.4941C146.414 27.9146 146.952 27.3382 147.551 26.7584C148.15 26.1796 148.833 25.6222 149.555 25.0712C150.283 24.526 151.03 23.9615 151.847 23.4584C152.052 23.3339 152.263 23.2161 152.488 23.1137C152.713 23.0141 152.948 22.9184 153.23 22.9109C153.368 22.9111 153.537 22.9371 153.664 23.0536L153.712 23.0942C153.714 23.0947 153.74 23.1272 153.732 23.1176L153.739 23.1267L153.752 23.1446L153.806 23.2169C153.84 23.2692 153.881 23.304 153.91 23.3703C154.048 23.6189 154.132 23.8594 154.195 24.104C154.323 24.5952 154.37 25.0962 154.369 25.5936C154.375 25.8432 154.347 26.0896 154.333 26.3377C154.296 26.5823 154.272 26.8296 154.214 27.0701C154.016 28.0355 153.637 28.971 153.022 29.7424C152.952 29.8433 152.865 29.9309 152.779 30.0193C152.691 30.1092 152.615 30.1937 152.514 30.2834C152.356 30.4192 152.151 30.5824 151.968 30.708C151.598 30.9732 151.22 31.1942 150.846 31.3921C150.099 31.7917 149.369 32.1076 148.674 32.3413C147.98 32.5756 147.328 32.741 146.749 32.8673C146.168 32.9929 145.657 33.0722 145.234 33.118C144.81 33.1603 144.469 33.1481 144.242 33.0766C144.186 33.0563 144.137 33.0319 144.098 33.008C144.062 32.976 144.027 32.9534 144.009 32.9261C143.977 32.8681 143.96 32.8387 143.96 32.8387ZM144.034 32.8112C144.04 32.8018 144.055 32.9334 144.269 32.9952C144.474 33.0556 144.807 33.0543 145.214 32.9716C145.622 32.8967 146.109 32.7467 146.649 32.5322C147.191 32.3231 147.785 32.0444 148.425 31.7332C149.061 31.4152 149.754 31.0816 150.452 30.6802C150.799 30.4774 151.15 30.2608 151.489 30.0268C151.663 29.9064 151.803 29.7978 151.981 29.647L152.191 29.4434C152.264 29.3742 152.339 29.3069 152.4 29.2232L152.595 28.9837C152.658 28.9013 152.711 28.809 152.771 28.7219C152.894 28.5503 152.983 28.3522 153.089 28.1626C153.271 27.7672 153.436 27.3512 153.544 26.9115C153.661 26.4752 153.744 26.0226 153.786 25.5647C153.837 25.1076 153.845 24.6399 153.778 24.1896C153.747 23.9636 153.687 23.7426 153.616 23.5591C153.605 23.511 153.558 23.4579 153.531 23.4075L153.484 23.331L153.472 23.3118L153.466 23.3022C153.454 23.2861 153.475 23.3128 153.471 23.3089L153.451 23.291C153.406 23.2333 153.321 23.2096 153.225 23.2005C153.025 23.1932 152.801 23.2616 152.589 23.3443C152.377 23.433 152.172 23.5448 151.97 23.6612C151.171 24.1451 150.468 24.7595 149.828 25.3843C149.189 26.0132 148.603 26.6507 148.036 27.2409C147.468 27.8293 146.932 28.3857 146.436 28.8992C146.312 29.0284 146.19 29.1545 146.071 29.2783C145.957 29.4039 145.846 29.5263 145.738 29.6459C145.628 29.7655 145.52 29.882 145.416 29.9951C145.309 30.1074 145.209 30.219 145.124 30.3352C144.949 30.5635 144.773 30.7741 144.635 30.9823C144.505 31.1947 144.38 31.3908 144.287 31.5756C144.212 31.7667 144.122 31.9334 144.082 32.0884C144.05 32.2441 143.999 32.3759 144.006 32.4859C144.004 32.5402 144.002 32.5886 144 32.6302C144.006 32.6692 144.01 32.702 144.014 32.7285C144.016 32.7813 144.036 32.8117 144.034 32.8112Z"
        fill="#0A71FF" />
    <path
        d="M133.585 13.151L133.57 13.1372C133.57 13.1372 133.541 13.1084 133.474 13.0647C133.409 13.0184 133.302 12.9615 133.155 12.9116C133.008 12.8603 132.814 12.8372 132.589 12.8551C132.362 12.8746 132.117 12.976 131.863 13.1167C131.36 13.4214 130.88 13.977 130.454 14.6767C130.345 14.8548 130.24 15.0274 130.137 15.2279C130.032 15.4237 129.919 15.6252 129.825 15.8327C129.622 16.2424 129.433 16.6917 129.249 17.1594C128.895 18.0993 128.559 19.1365 128.411 20.2659C128.376 20.5478 128.335 20.834 128.33 21.1255C128.303 21.4169 128.314 21.711 128.317 22.0103C128.358 22.6033 128.429 23.218 128.626 23.8115L128.692 24.0372L128.779 24.2567C128.839 24.4025 128.891 24.5533 128.958 24.6979C129.105 24.9826 129.246 25.2668 129.427 25.5481C129.771 26.1066 130.158 26.6526 130.572 27.1806C131.398 28.2378 132.361 29.2276 133.44 30.0341C133.979 30.4275 134.563 30.7907 135.158 30.9444C135.446 31.0265 135.75 31.0281 135.939 30.9311L135.996 30.9025C136.018 30.8926 136.034 30.8833 136.037 30.8763C136.051 30.8612 136.065 30.8495 136.082 30.838C136.12 30.7941 136.162 30.7567 136.195 30.701C136.266 30.6001 136.322 30.4717 136.364 30.3329C136.534 29.7697 136.546 29.1051 136.528 28.4676C136.504 27.8236 136.441 27.1814 136.365 26.5499C136.03 24.0104 135.718 21.6405 135.45 19.6092C135.306 18.598 135.156 17.6706 134.983 16.8563C134.813 16.0414 134.626 15.3379 134.428 14.7745C134.237 14.209 134.038 13.7807 133.87 13.5119C133.782 13.3829 133.718 13.2761 133.657 13.2256C133.621 13.1885 133.598 13.164 133.585 13.151ZM133.629 13.0852C133.641 13.0975 133.67 13.1248 133.715 13.1684C133.784 13.2243 133.851 13.3309 133.947 13.4638C134.126 13.7373 134.331 14.1666 134.567 14.7217C134.795 15.2802 135.055 15.9658 135.321 16.765C135.583 17.5648 135.859 18.4763 136.096 19.4875C136.343 20.4997 136.506 21.6153 136.682 22.7739C136.774 23.3558 136.866 23.9548 136.946 24.5707C137.029 25.1864 137.114 25.8169 137.169 26.4646C137.228 27.1115 137.274 27.7737 137.28 28.4531C137.28 28.7931 137.271 29.1376 137.237 29.4884C137.201 29.8383 137.148 30.1971 137.014 30.5588C136.948 30.739 136.861 30.922 136.729 31.0926C136.668 31.1797 136.584 31.2569 136.502 31.3326C136.451 31.371 136.395 31.408 136.341 31.4423C136.31 31.4623 136.288 31.473 136.271 31.4797L136.213 31.5057C135.773 31.6882 135.352 31.6173 134.994 31.5049C134.276 31.2548 133.709 30.8191 133.175 30.3682C132.642 29.9143 132.158 29.4156 131.7 28.9013C131.239 28.3896 130.802 27.8623 130.386 27.327C129.966 26.793 129.576 26.2464 129.193 25.6989C129.001 25.4326 128.836 25.1331 128.656 24.8526C128.574 24.7075 128.506 24.5546 128.43 24.4064L128.32 24.1826L128.23 23.9506C127.737 22.7182 127.601 21.3946 127.733 20.183C127.863 18.9675 128.231 17.8633 128.681 16.9143C128.787 16.6735 128.909 16.4468 129.033 16.2284C129.15 16.0071 129.284 15.7983 129.41 15.5942C129.533 15.3862 129.665 15.2014 129.79 15.0173C129.91 14.8332 130.05 14.6504 130.18 14.4859C130.702 13.8138 131.253 13.2932 131.796 12.9976C132.073 12.8611 132.339 12.7795 132.58 12.7595C132.82 12.7441 133.026 12.773 133.182 12.8299C133.338 12.8858 133.45 12.9482 133.52 12.9989C133.591 13.0478 133.623 13.08 133.623 13.08L133.629 13.0852Z"
        fill="#0A71FF" />
    <path
        d="M120.963 38.5351C120.963 38.5351 120.85 38.5983 120.663 38.7587C120.481 38.9186 120.222 39.1838 120.027 39.5931C119.935 39.7977 119.851 40.0364 119.838 40.3044C119.805 40.5699 119.85 40.8593 119.93 41.1515C120.027 41.4414 120.158 41.7402 120.353 42.0241C120.403 42.0984 120.45 42.1835 120.503 42.2516C120.556 42.3166 120.609 42.3821 120.664 42.4484C120.713 42.517 120.778 42.5771 120.842 42.6392C120.906 42.6998 120.963 42.7705 121.033 42.8251C121.306 43.0586 121.629 43.2289 121.982 43.3415C122.336 43.4598 122.737 43.4702 123.148 43.4299C123.251 43.4164 123.356 43.4088 123.461 43.3909C123.566 43.3665 123.672 43.342 123.778 43.3171C123.991 43.2726 124.203 43.1902 124.421 43.1223C124.847 42.9544 125.283 42.7601 125.704 42.5124C126.549 42.0282 127.358 41.3772 128.177 40.734C128.99 40.0829 129.792 39.3869 130.531 38.6373C130.899 38.2629 131.258 37.8799 131.574 37.4775C131.737 37.2793 131.885 37.0742 132.018 36.8662C132.151 36.6595 132.269 36.4479 132.346 36.2365C132.422 36.0259 132.466 35.8174 132.441 35.6367C132.427 35.547 132.408 35.4609 132.366 35.3819L132.338 35.3218C132.372 35.3769 132.344 35.3314 132.349 35.341L132.343 35.3312L132.329 35.3114C132.321 35.301 132.308 35.2789 132.304 35.2781C132.299 35.2831 132.31 35.2906 132.301 35.2846C132.289 35.2792 132.284 35.2706 132.269 35.2641C132.163 35.2017 131.938 35.1694 131.722 35.17C131.5 35.1687 131.266 35.1913 131.034 35.2251C130.098 35.3663 129.184 35.6351 128.322 35.8826C127.46 36.1403 126.65 36.4154 125.894 36.6488C125.139 36.8873 124.443 37.1028 123.832 37.3126C123.221 37.5196 122.692 37.7151 122.266 37.8966C121.838 38.0731 121.509 38.2286 121.29 38.3438C121.07 38.4579 120.966 38.5328 120.966 38.5328L120.964 38.5344L120.963 38.5351ZM120.926 38.4665C120.951 38.4491 121.058 38.3729 121.25 38.2692C121.469 38.1485 121.792 37.9782 122.204 37.7632C122.618 37.5492 123.12 37.2892 123.696 36.9913C124.275 36.6969 124.929 36.3626 125.661 36.035C126.391 35.7045 127.203 35.3949 128.079 35.107C128.516 34.9601 128.971 34.8226 129.446 34.7061C129.92 34.5881 130.411 34.4786 130.931 34.4214C131.191 34.3926 131.459 34.3738 131.742 34.3845C131.883 34.3892 132.029 34.4035 132.182 34.4352C132.334 34.4667 132.498 34.5155 132.666 34.6203C132.707 34.6442 132.748 34.6801 132.789 34.7116C132.83 34.7456 132.881 34.8044 132.921 34.8541C132.939 34.8775 132.941 34.884 132.951 34.8996L132.994 34.9698L133.045 35.0852C133.114 35.2389 133.148 35.4092 133.163 35.5753C133.188 35.9125 133.101 36.224 132.985 36.4952C132.746 37.0399 132.385 37.4652 132.014 37.8625C131.636 38.2564 131.23 38.6095 130.819 38.9527C129.991 39.6331 129.14 40.2675 128.325 40.9201C127.917 41.2462 127.511 41.5678 127.123 41.9011C126.73 42.2266 126.342 42.5667 125.93 42.8608C125.525 43.1657 125.093 43.4273 124.649 43.6561C124.194 43.8615 123.729 44.0474 123.233 44.1088C122.746 44.1717 122.236 44.1688 121.775 44.0063C121.315 43.8545 120.912 43.5921 120.608 43.2752C120.528 43.1998 120.466 43.1111 120.396 43.0313C120.328 42.9502 120.264 42.8678 120.211 42.775C120.156 42.6855 120.102 42.5971 120.049 42.5098C119.999 42.4234 119.967 42.3418 119.927 42.2591C119.76 41.9146 119.662 41.5584 119.603 41.2228C119.5 40.5392 119.672 39.9402 119.905 39.5304C120.148 39.1183 120.421 38.8607 120.611 38.6971C120.802 38.5351 120.923 38.4686 120.923 38.4686L120.926 38.4665Z"
        fill="#0A71FF" />
    <path
        d="M139.938 28.3746C139.938 28.3746 139.899 27.9976 139.826 27.2906C139.751 26.584 139.639 25.5479 139.465 24.2338C139.287 22.9206 139.081 21.3247 138.76 19.5096C138.433 17.6974 138.043 15.653 137.424 13.4847C137.114 12.4025 136.747 11.2864 136.247 10.1972C135.992 9.65615 135.708 9.12055 135.364 8.62603C135.017 8.13905 134.602 7.68587 134.1 7.41885C133.855 7.28521 133.573 7.20123 133.312 7.18797L133.063 7.18069C132.982 7.17887 132.893 7.17133 132.827 7.18537C132.683 7.20851 132.543 7.20539 132.394 7.24387C131.792 7.36009 131.206 7.63777 130.669 8.01061C130.129 8.38241 129.636 8.84755 129.181 9.35845C128.726 9.86909 128.305 10.4245 127.911 11.0066C127.124 12.1737 126.439 13.4449 125.837 14.7719C125.534 15.4346 125.253 16.1132 124.993 16.8033C124.863 17.1483 124.736 17.4957 124.617 17.8459C124.56 18.0185 124.493 18.2029 124.449 18.3667C124.409 18.5448 124.373 18.7275 124.339 18.9095C124.076 20.3694 123.952 21.8702 123.998 23.3683C124.062 24.863 124.304 26.3653 124.854 27.7469C125.4 29.1249 126.297 30.3586 127.495 31.181L127.717 31.3381L127.949 31.4772C128.112 31.576 128.274 31.6724 128.431 31.7421L128.667 31.8583C128.747 31.895 128.833 31.9238 128.915 31.9571C128.998 31.9881 129.08 32.0245 129.164 32.0515L129.417 32.124C129.585 32.1818 129.758 32.194 129.927 32.2314C130.097 32.2405 130.268 32.2681 130.434 32.2527C130.766 32.2426 131.094 32.1721 131.356 32.0226C131.613 31.8776 131.814 31.6425 131.814 31.4447C131.841 31.2551 131.677 31.0752 131.413 30.953C131.147 30.8347 130.812 30.7928 130.479 30.7804C130.308 30.7874 130.138 30.7856 129.967 30.8035C129.794 30.8274 129.623 30.8363 129.451 30.8716C128.762 30.9845 128.082 31.1951 127.42 31.4361L126.925 31.6209L126.438 31.8269C126.112 31.9579 125.797 32.1162 125.48 32.2634C122.952 33.5002 120.536 34.827 118.622 36.4915C117.684 37.3292 116.889 38.2873 116.524 39.3578C116.348 39.8913 116.275 40.4451 116.323 40.9903C116.369 41.5358 116.512 42.0688 116.71 42.576C117.128 43.5887 117.642 44.5325 118.366 45.1955C119.083 45.8702 119.932 46.332 120.783 46.5912C121.634 46.8593 122.483 46.9352 123.259 46.898C124.037 46.8559 124.744 46.6965 125.36 46.4909C126.597 46.0658 127.438 45.4285 127.966 44.9693C128.229 44.7359 128.423 44.5458 128.545 44.4101C128.67 44.2764 128.735 44.2075 128.735 44.2075L128.795 44.2572C128.795 44.2572 128.734 44.3308 128.617 44.4735C128.503 44.6189 128.319 44.8232 128.066 45.078C127.556 45.5757 126.73 46.2722 125.469 46.7823C124.84 47.0335 124.106 47.228 123.288 47.3031C122.471 47.3736 121.567 47.3286 120.642 47.0759C119.72 46.8286 118.765 46.3757 117.956 45.6399C117.754 45.4571 117.561 45.259 117.38 45.0445C117.198 44.8295 117.02 44.5835 116.882 44.3617C116.579 43.8742 116.313 43.381 116.079 42.8319C115.851 42.2851 115.673 41.6902 115.604 41.0566C115.534 40.4238 115.602 39.7553 115.798 39.1214C115.993 38.4852 116.328 37.8979 116.723 37.3625C117.12 36.8267 117.583 36.3407 118.078 35.887C118.576 35.4346 119.111 35.021 119.663 34.6213C120.22 34.2277 120.8 33.8585 121.394 33.5023C122.582 32.7909 123.837 32.1376 125.134 31.5328C125.464 31.3851 125.789 31.227 126.13 31.0947L126.638 30.8877L127.158 30.7011C127.855 30.458 128.574 30.2442 129.332 30.1293C130.084 30.0227 130.889 29.9489 131.717 30.297C131.818 30.3527 131.922 30.3914 132.017 30.4743L132.16 30.588C132.204 30.6324 132.245 30.6847 132.287 30.7343C132.374 30.8266 132.426 30.9639 132.478 31.0864C132.511 31.2218 132.538 31.3594 132.52 31.4964C132.5 31.7694 132.38 32.0146 132.223 32.1942C132.072 32.3864 131.88 32.5148 131.686 32.6251C131.291 32.8354 130.862 32.9092 130.449 32.9137C130.24 32.9256 130.039 32.8913 129.835 32.8731C129.638 32.8273 129.434 32.8039 129.245 32.7358L128.959 32.6461C128.864 32.6134 128.775 32.5718 128.682 32.5346C128.591 32.4953 128.498 32.4607 128.408 32.4173L128.141 32.2782C127.956 32.1877 127.796 32.0874 127.638 31.9862L127.389 31.8289L127.152 31.6532C125.881 30.7159 124.973 29.3532 124.455 27.8983C123.925 26.4391 123.728 24.895 123.707 23.3753C123.677 21.8527 123.819 20.3385 124.102 18.8635C124.138 18.6789 124.176 18.4962 124.22 18.3113C124.275 18.1163 124.333 17.9496 124.391 17.7689C124.509 17.4148 124.634 17.0643 124.762 16.7162C125.021 16.0207 125.295 15.3345 125.582 14.6583C126.167 13.3115 126.797 11.9977 127.558 10.777C127.939 10.1676 128.349 9.57997 128.804 9.03137C129.258 8.48277 129.759 7.97161 130.333 7.54443C130.903 7.11855 131.551 6.77145 132.261 6.61207C132.435 6.56449 132.632 6.55617 132.816 6.52991C132.915 6.51431 132.993 6.52029 133.076 6.52029L133.325 6.52289C133.723 6.53459 134.085 6.64327 134.415 6.81123C135.077 7.15105 135.543 7.68821 135.932 8.22173C136.314 8.76565 136.62 9.33453 136.879 9.90653C137.392 11.0529 137.756 12.199 138.062 13.3055C138.652 15.5251 139.01 17.5924 139.263 19.4295C139.515 21.267 139.689 22.873 139.79 24.1987C139.998 26.8499 140.016 28.3694 140.016 28.3694L139.938 28.3746Z"
        fill="#0A71FF" />
    <path
        d="M141.176 27.2037C142.021 25.3115 142.232 23.0695 142.188 21.0264C142.151 19.3312 141.787 17.7049 141.336 16.0786C140.933 14.627 140.488 13.1596 140.575 11.6362C140.712 9.25776 142.935 6.287 145.488 7.69386C146.883 8.46216 148.351 10.6225 147.406 12.2059C146.778 13.2589 144.462 13.8096 143.693 12.6651C143.413 12.2488 143.452 11.6877 143.693 11.267C143.994 10.7424 144.588 10.6989 145.108 10.8783C145.426 10.9878 145.561 10.4855 145.246 10.3768C143.808 9.88098 142.561 11.2356 143.105 12.6497C143.784 14.4123 146.53 13.8972 147.583 12.8218C148.808 11.5705 148.046 9.59108 147.122 8.42368C146.052 7.07246 144.198 6.25866 142.6 7.18842C141.153 8.0303 140.255 9.8633 140.07 11.4688C139.856 13.3192 140.564 15.1967 141.036 16.9535C141.877 20.0886 142.066 23.9436 140.727 26.9414C140.592 27.2446 141.04 27.5095 141.176 27.2037Z"
        fill="#E8F4FF" />
    <path
        d="M142.188 27.5894C143.27 26.8671 143.777 25.1181 144.144 23.9754C144.663 22.3618 144.943 20.6812 145.439 19.0601C145.808 17.8552 146.28 16.5428 147.246 15.6824C148.029 14.9843 149.405 14.9042 150.196 15.627C150.872 16.2451 150.911 17.3217 150.675 18.1425C150.412 19.0523 149.645 19.7171 148.67 19.5481C148.044 19.4394 147.595 19.0447 147.61 18.389C147.623 17.8532 148.081 17.3566 148.621 17.6119C148.922 17.7544 149.186 17.3061 148.884 17.1629C148.066 16.7762 147.343 17.27 147.13 18.102C146.874 19.1012 147.623 19.8424 148.532 20.0491C150.418 20.4781 151.495 18.4345 151.299 16.8251C151.057 14.8374 148.863 14.0358 147.224 15.0535C146.278 15.6408 145.752 16.7471 145.351 17.7393C144.723 19.2925 144.398 20.9529 143.999 22.5737C143.682 23.8618 143.267 25.1638 142.584 26.3089C142.426 26.5733 142.074 27.0413 141.927 27.1404C141.649 27.3257 141.909 27.7763 142.188 27.5894Z"
        fill="#E8F4FF" />
    <path
        d="M149.028 18.1514C149.405 18.1514 149.711 17.8458 149.711 17.4689C149.711 17.0919 149.405 16.7864 149.028 16.7864C148.651 16.7864 148.346 17.0919 148.346 17.4689C148.346 17.8458 148.651 18.1514 149.028 18.1514Z"
        fill="#E8F4FF" />
    <path
        d="M145.324 11.3914C145.737 11.3914 146.071 11.0567 146.071 10.6439C146.071 10.231 145.737 9.89636 145.324 9.89636C144.911 9.89636 144.576 10.231 144.576 10.6439C144.576 11.0567 144.911 11.3914 145.324 11.3914Z"
        fill="#E8F4FF" />
    <mask id="mask1_6312_25272" style="mask-type:luminance" maskUnits="userSpaceOnUse" x="0" y="0" width="195"
        height="130">
        <path d="M195 0H0V130H195V0Z" fill="white" />
    </mask>
    <g mask="url(#mask1_6312_25272)">
        <path
            d="M131.023 45.311C127.725 49.048 124.942 53.5311 123.183 58.1883C121.927 61.517 121.234 65.2493 122.203 68.7435C123.346 72.8673 126.831 75.6192 130.636 77.2174C133.542 78.4376 136.676 79.177 139.792 79.6102C142.503 79.9872 145.256 80.061 147.975 79.7137C152.126 79.183 156.108 77.5954 159.299 74.8576C161.635 72.8533 163.526 70.1979 164.428 67.2383C164.986 65.4035 165.292 62.9395 163.773 61.4734C160.822 58.6248 156.131 60.2532 153.585 62.7723C150.299 66.0221 149.303 71.1753 150.086 75.6098C150.733 79.2789 152.869 82.5991 156.181 84.3848C160.785 86.8668 166.442 85.9768 171.175 84.391C174.836 83.1646 178.319 81.374 181.674 79.4797C184.311 77.9904 186.86 76.3373 189.232 74.452C191.787 72.4209 194.333 69.9904 195.78 67.0119C196.125 66.3023 196.495 65.4605 196.516 64.6529C196.529 64.1495 195.749 64.1508 195.736 64.6529C195.732 64.7938 195.726 64.7728 195.723 64.7852C195.689 65.0049 195.635 65.2213 195.572 65.4345C195.323 66.2763 194.912 67.0589 194.448 67.8062C192.296 71.278 188.875 73.9414 185.536 76.1894C182.506 78.2296 179.281 79.9729 175.996 81.5628C172.81 83.1046 169.439 84.3492 165.931 84.9001C161.525 85.5925 156.744 84.8539 153.64 81.407C151.146 78.6378 150.327 74.7014 150.703 71.0746C151.183 66.4433 154.183 61.2045 159.295 60.781C160.802 60.6562 162.664 61.1403 163.562 62.3935C164.048 63.0708 164.119 63.9811 164.084 64.8047C163.97 67.4978 162.526 70.1293 160.849 72.1653C158.372 75.173 154.93 77.2205 151.202 78.2738C145.704 79.827 139.814 79.1786 134.382 77.6812C129.977 76.4668 125.369 74.2308 123.416 69.8383C121.939 66.5153 122.493 62.6759 123.602 59.3369C124.701 56.0308 126.438 52.9435 128.386 50.0679C129.368 48.6184 130.412 47.1921 131.566 45.8736C131.569 45.87 131.572 45.8661 131.576 45.8624C131.906 45.487 131.357 44.9332 131.023 45.311Z"
            fill="#E8F4FF" />
    </g>
</svg>