<svg width="32" height="32" viewBox="0 0 32 32" fill="none" xmlns="http://www.w3.org/2000/svg">
<path d="M16.2857 4C10.6286 4 6 8.54286 6 14.2V17.2C6 17.2857 6 17.2857 6 17.3714C6 17.4571 6 17.6286 6 17.7143C6 20.1143 7.88571 22 10.2857 22C10.8 22 11.1429 21.6571 11.1429 21.1429V14.2857C11.1429 13.7714 10.8 13.4286 10.2857 13.4286C9.34286 13.4286 8.4 13.7714 7.71429 14.2857V14.1143C7.71429 9.48571 11.5714 5.71429 16.2857 5.71429C21 5.71429 24.8571 9.48571 24.8571 14.2V14.2857C24.1714 13.7714 23.2286 13.4286 22.2857 13.4286C21.7714 13.4286 21.4286 13.7714 21.4286 14.2857V21.1429C21.4286 21.6571 21.7714 22 22.2857 22C22.8857 22 23.4857 21.8286 24 21.6571C23.1429 23.4571 21.6 24.8286 19.7143 25.6C19.7143 25.5143 19.7143 25.5143 19.7143 25.4286C19.7143 24.9143 19.3714 24.5714 18.8571 24.5714H16.2857C15.7714 24.5714 15.4286 24.9143 15.4286 25.4286V27.1429C15.4286 27.6571 15.7714 28 16.2857 28C21.9429 28 26.5714 23.5429 26.5714 18.0571V17.2V15.1429V14.2C26.5714 8.54286 21.9429 4 16.2857 4Z" fill="#0A71FF"/>
</svg>
