<svg width="37" height="38" viewBox="0 0 37 38" fill="none" xmlns="http://www.w3.org/2000/svg">
<path d="M9.84422 8.9718C12.2968 6.43311 15.4229 4.50364 19.0741 3.58616C23.2199 2.5451 28.0363 2.8301 32.2432 0.326312C34.1008 -0.778728 35.8522 1.13473 35.7999 2.90134C36.1286 3.43641 36.2756 4.11835 36.1054 4.90496C35.0216 9.89073 33.5495 14.4432 31.7603 18.5551C30.1776 22.193 28.3738 25.6608 25.6769 27.9261C21.0088 31.8461 14.7276 32.0482 9.19839 32.0511C8.52779 32.0511 7.83825 31.7094 7.38876 31.0537C7.22729 31.0668 7.05278 31.0421 6.87531 30.9984C5.86286 31.6266 4.61616 30.2482 5.09329 29.0384C3.42043 21.7132 4.974 14.0114 9.84422 8.9718Z" fill="#00E59E"/>
<path d="M0.201716 35.09C6.80299 23.0872 17.553 14.9012 27.4767 6.5189C28.8397 5.36733 30.1708 7.92057 28.8252 9.05905C19.2797 17.1229 8.85693 25.0312 2.50731 36.5745C1.6185 38.1914 -0.69145 36.7141 0.201716 35.09Z" fill="#04BE84"/>
</svg>
