<svg width="122" height="28" viewBox="0 0 122 28" fill="none" xmlns="http://www.w3.org/2000/svg">
<path d="M112.756 24.0477V27.6633H110.586C109.04 27.6633 107.835 27.2893 106.971 26.5412C106.106 25.7765 105.674 24.5381 105.674 22.8258V17.2901H103.979V13.7493H105.674V10.3581H109.938V13.7493H112.731V17.2901H109.938V22.8757C109.938 23.2913 110.038 23.5905 110.237 23.7734C110.437 23.9562 110.769 24.0477 111.235 24.0477H112.756Z" fill="#0A71FF"/>
<path d="M102.624 24.0477V27.6633H100.455C98.9086 27.6633 97.7034 27.2893 96.8389 26.5412C95.9745 25.7765 95.5423 24.5381 95.5423 22.8258V17.2901H93.8467V13.7493H95.5423V10.3581H99.8063V13.7493H102.599V17.2901H99.8063V22.8757C99.8063 23.2913 99.906 23.5905 100.105 23.7734C100.305 23.9562 100.637 24.0477 101.103 24.0477H102.624Z" fill="#0A71FF"/>
<path d="M77.1016 20.6817C77.1016 19.252 77.3675 17.997 77.8995 16.9164C78.4481 15.8359 79.1878 15.0047 80.1187 14.4229C81.0497 13.8411 82.0886 13.5501 83.2357 13.5501C84.2165 13.5501 85.0726 13.7496 85.804 14.1486C86.5521 14.5476 87.1256 15.0712 87.5246 15.7195V13.7496H91.7885V27.6636H87.5246V25.6937C87.109 26.342 86.5272 26.8657 85.7791 27.2646C85.0477 27.6636 84.1915 27.8631 83.2107 27.8631C82.0803 27.8631 81.0497 27.5722 80.1187 26.9903C79.1878 26.3919 78.4481 25.5524 77.8995 24.4719C77.3675 23.3747 77.1016 22.1113 77.1016 20.6817ZM87.5246 20.7066C87.5246 19.6427 87.2254 18.8032 86.6269 18.1881C86.0451 17.5731 85.3303 17.2655 84.4825 17.2655C83.6346 17.2655 82.9115 17.5731 82.3131 18.1881C81.7312 18.7866 81.4403 19.6178 81.4403 20.6817C81.4403 21.7456 81.7312 22.5934 82.3131 23.2251C82.9115 23.8402 83.6346 24.1477 84.4825 24.1477C85.3303 24.1477 86.0451 23.8402 86.6269 23.2251C87.2254 22.61 87.5246 21.7705 87.5246 20.7066Z" fill="#0A71FF"/>
<path d="M65.2884 15.7203C65.6873 15.072 66.2609 14.5483 67.0089 14.1493C67.757 13.7504 68.6131 13.5509 69.5773 13.5509C70.7243 13.5509 71.7633 13.8418 72.6942 14.4236C73.6251 15.0055 74.3566 15.8366 74.8885 16.9172C75.4371 17.9977 75.7114 19.2528 75.7114 20.6824C75.7114 22.1121 75.4371 23.3755 74.8885 24.4726C74.3566 25.5532 73.6251 26.3927 72.6942 26.9911C71.7633 27.5729 70.7243 27.8638 69.5773 27.8638C68.5965 27.8638 67.7404 27.6727 67.0089 27.2903C66.2775 26.8914 65.704 26.3677 65.2884 25.7194V27.6644H61.0244V9.21213H65.2884V15.7203ZM71.3726 20.6824C71.3726 19.6185 71.0734 18.7873 70.4749 18.1889C69.8931 17.5738 69.17 17.2663 68.3056 17.2663C67.4578 17.2663 66.7346 17.5738 66.1362 18.1889C65.5544 18.804 65.2634 19.6435 65.2634 20.7074C65.2634 21.7713 65.5544 22.6108 66.1362 23.2258C66.7346 23.8409 67.4578 24.1485 68.3056 24.1485C69.1534 24.1485 69.8765 23.8409 70.4749 23.2258C71.0734 22.5942 71.3726 21.7463 71.3726 20.6824Z" fill="#0A71FF"/>
<path d="M52.7726 13.6008C54.3685 13.6008 55.6485 14.1327 56.6126 15.1966C57.5768 16.2439 58.0589 17.6902 58.0589 19.5354V27.6644H53.8199V20.1089C53.8199 19.178 53.5788 18.4549 53.0967 17.9395C52.6147 17.4242 51.9663 17.1665 51.1518 17.1665C50.3372 17.1665 49.6889 17.4242 49.2068 17.9395C48.7247 18.4549 48.4837 19.178 48.4837 20.1089V27.6644H44.2197V9.21213H48.4837V15.6205C48.9159 15.0055 49.506 14.5151 50.2541 14.1493C51.0022 13.7836 51.8417 13.6008 52.7726 13.6008Z" fill="#0A71FF"/>
<path d="M37.3096 27.6644L33.0706 21.8295V27.6644H28.8066V9.21213H33.0706V19.4107L37.2847 13.7504H42.5461L36.761 20.7323L42.5959 27.6644H37.3096Z" fill="#0A71FF"/>
<path d="M11.0371 20.6817C11.0371 19.252 11.3031 17.997 11.835 16.9164C12.3836 15.8359 13.1234 15.0047 14.0543 14.4229C14.9852 13.8411 16.0242 13.5501 17.1712 13.5501C18.152 13.5501 19.0081 13.7496 19.7396 14.1486C20.4876 14.5476 21.0612 15.0712 21.4601 15.7195V13.7496H25.7241V27.6636H21.4601V25.6937C21.0445 26.342 20.4627 26.8657 19.7146 27.2646C18.9832 27.6636 18.1271 27.8631 17.1463 27.8631C16.0159 27.8631 14.9852 27.5722 14.0543 26.9903C13.1234 26.3919 12.3836 25.5524 11.835 24.4719C11.3031 23.3747 11.0371 22.1113 11.0371 20.6817ZM21.4601 20.7066C21.4601 19.6427 21.1609 18.8032 20.5625 18.1881C19.9806 17.5731 19.2658 17.2655 18.418 17.2655C17.5702 17.2655 16.8471 17.5731 16.2486 18.1881C15.6668 18.7866 15.3759 19.6178 15.3759 20.6817C15.3759 21.7456 15.6668 22.5934 16.2486 23.2251C16.8471 23.8402 17.5702 24.1477 18.418 24.1477C19.2658 24.1477 19.9806 23.8402 20.5625 23.2251C21.1609 22.61 21.4601 21.7705 21.4601 20.7066Z" fill="#0A71FF"/>
<path d="M4.26396 24.3738H9.84951V27.6653H0V10.1606H4.26396V24.3738Z" fill="#0A71FF"/>
<path d="M115.324 16.2246C115.324 14.9335 116.371 13.8869 117.662 13.8869C118.953 13.8869 120 14.9335 120 16.2246V27.9131H115.324V16.2246Z" fill="#0A71FF"/>
<ellipse cx="117.662" cy="10.3377" rx="2.3377" ry="2.3377" fill="#0A71FF"/>
<path d="M117.794 15C115.094 13.6953 112.873 10.7821 114.621 7.76397C116.576 4.38888 118.719 2.01367 119.221 0C119.221 0 123.401 5.15894 121.508 10.468C120.21 14.1074 117.794 15 117.794 15Z" fill="#00E59E"/>
</svg>
