<svg width="24" height="24" viewBox="0 0 24 24" fill="none" xmlns="http://www.w3.org/2000/svg">
<path d="M19.9834 15.9791V18.3877C19.9843 18.6113 19.9385 18.8327 19.849 19.0375C19.7594 19.2424 19.628 19.4263 19.4632 19.5775C19.2985 19.7286 19.1039 19.8437 18.8921 19.9154C18.6803 19.987 18.4558 20.0136 18.2331 19.9935C15.7625 19.725 13.3894 18.8808 11.3043 17.5286C9.36438 16.2959 7.71968 14.6512 6.48699 12.7113C5.1301 10.6168 4.28568 8.23206 4.02214 5.75036C4.00208 5.52834 4.02846 5.30457 4.09962 5.0933C4.17078 4.88203 4.28514 4.6879 4.43544 4.52325C4.58573 4.35861 4.76867 4.22706 4.97259 4.13699C5.17651 4.04691 5.39695 4.00029 5.61988 4.00008H8.02852C8.41817 3.99624 8.79591 4.13422 9.09135 4.3883C9.38678 4.64237 9.57975 4.99521 9.63429 5.38103C9.73595 6.15185 9.92449 6.9087 10.1963 7.63713C10.3043 7.9245 10.3277 8.23682 10.2637 8.53707C10.1996 8.83732 10.0509 9.11292 9.83501 9.33121L8.81535 10.3509C9.95829 12.3609 11.6226 14.0252 13.6326 15.1682L14.6523 14.1485C14.8706 13.9326 15.1462 13.7839 15.4464 13.7198C15.7467 13.6558 16.059 13.6792 16.3464 13.7872C17.0748 14.059 17.8317 14.2476 18.6025 14.3492C18.9925 14.4042 19.3487 14.6007 19.6033 14.9012C19.8579 15.2017 19.9932 15.5853 19.9834 15.9791Z" stroke="#00E59E" stroke-width="2" stroke-linecap="round" stroke-linejoin="round"/>
</svg>
