<svg width="18" height="14" viewBox="0 0 18 14" fill="none" xmlns="http://www.w3.org/2000/svg">
<path d="M1.583 12.821C0.553 11.727 0 10.5 0 8.511C0 5.011 2.457 1.874 6.03 0.322998L6.923 1.701C3.588 3.505 2.936 5.846 2.676 7.322C3.213 7.044 3.916 6.947 4.605 7.011C6.409 7.178 7.831 8.659 7.831 10.5C7.831 11.4283 7.46225 12.3185 6.80587 12.9749C6.1495 13.6313 5.25926 14 4.331 14C3.258 14 2.232 13.51 1.583 12.821ZM11.583 12.821C10.553 11.727 10 10.5 10 8.511C10 5.011 12.457 1.874 16.03 0.322998L16.923 1.701C13.588 3.505 12.936 5.846 12.676 7.322C13.213 7.044 13.916 6.947 14.605 7.011C16.409 7.178 17.831 8.659 17.831 10.5C17.831 11.4283 17.4623 12.3185 16.8059 12.9749C16.1495 13.6313 15.2593 14 14.331 14C13.258 14 12.232 13.51 11.583 12.821Z" fill="#395437"/>
</svg>
