<svg width="1358" height="966" viewBox="0 0 1358 966" fill="none" xmlns="http://www.w3.org/2000/svg">
<path opacity="0.16" d="M1261.93 966H29.6906C-10.9485 902.94 -4.92303 788.506 18.2683 725.091C53.1638 629.587 124.884 593.366 186.547 525.817C281.675 421.596 271.249 252.511 353.828 138.742C423.532 42.7157 541.093 -9.34713 650.808 1.38846C759.244 12.029 778.165 135.298 839.178 211.635C862.781 241.158 890.828 262.32 921.15 277.64C969.635 302.151 1023.93 311.747 1075.06 316.829C1202.5 329.489 1333.91 367.99 1355.22 583.937C1377.17 806.391 1261.93 966 1261.93 966Z" fill="url(#paint0_linear_3052_4339)"/>
<defs>
<linearGradient id="paint0_linear_3052_4339" x1="-33" y1="175.786" x2="1114.13" y2="956.222" gradientUnits="userSpaceOnUse">
<stop offset="0.263053" stop-color="#8DBF6E"/>
<stop offset="1" stop-color="#064499"/>
</linearGradient>
</defs>
</svg>
