<svg width="136" height="90" viewBox="0 0 136 90" fill="none" xmlns="http://www.w3.org/2000/svg">
<path d="M135.534 0H0.46582V90H135.534V0Z" fill="white"/>
<path d="M103.573 43.7525L104.395 43.6456C104.395 43.6456 104.768 44.6686 105.496 45.0999C106.009 45.4848 106.116 45.9125 106.116 45.9125V51.0104V53.0386C106.116 53.0386 103.423 53.1295 102.833 53.1995C102.243 53.2694 101.623 53.1995 101.623 53.1995C101.623 53.1995 101.601 46.8963 101.623 46.5328C101.644 46.1692 101.773 45.3779 102.307 45.271C102.842 45.164 103.534 44.6507 103.573 43.7525Z" fill="#5E5E6C"/>
<path d="M110.307 40.8119H111.305V45.1747C111.305 45.1747 111.587 46.2828 112.204 46.6695C112.537 47.286 113.818 46.8428 113.364 51.2376C113.391 52.8737 113.46 53.2907 113.46 53.2907L112.998 53.3308L107.71 53.1303C107.71 53.1303 107.421 47.8854 108.593 47.741C109.299 47.2438 111.102 45.7116 110.16 43.0318C110.182 42.4052 110.307 40.8119 110.307 40.8119Z" fill="#819597"/>
<path d="M97.885 54.7183L101.894 55.3438H117.138L117.35 60.7118V71.7684L117.138 73.0641L116.965 73.2013H116.259H102.056L98.4536 71.1268L97.5362 70.528C97.5362 70.528 96.9659 58.7602 97.885 54.7183Z" fill="#9986A3"/>
<path d="M85.8962 69.2876C85.8962 69.2876 90.7961 69.6939 92.4009 69.1807C92.4865 71.5759 92.4009 72.6238 92.4009 72.6238L92.3367 72.9874L91.8944 73.0889C91.8944 73.0889 91.6092 73.4921 91.4166 73.4857C91.2241 73.4793 88.3355 73.6076 88.3355 73.6076L84.6766 73.244C84.6766 73.244 84.3877 72.549 84.377 72.4527C84.3663 72.3565 85.8534 72.8698 85.7571 71.7898C85.7571 71.362 85.8962 69.2876 85.8962 69.2876Z" fill="#7675B3"/>
<path d="M25.9319 43.282L26.8914 43.25L27.1194 43.8274C27.1194 43.8274 27.6116 44.1268 27.772 44.2658C27.9325 44.4048 28.0395 44.7577 28.0395 44.7577L28.1358 51.0987L28.0289 52.5209L27.9005 52.8203C27.9005 52.8203 27.4618 52.9292 27.419 52.9603C27.3763 52.9913 26.6166 53.0876 26.5631 53.109C26.5097 53.1303 25.076 53.109 25.076 53.109L24.5518 52.7989V45.2068C24.5518 45.2068 24.5305 44.362 25.1616 44.3727C25.6323 44.0519 25.857 43.9771 25.9319 43.282Z" fill="#769B76"/>
<path d="M31.0508 47.6448C31.0508 47.6448 35.7528 48.0137 36.3465 47.741C36.3305 48.4628 35.6404 51.5894 35.6404 51.5894L35.3195 52.4407L34.7257 52.8577L33.8271 53.0982L32.5593 53.1784C32.5593 53.1784 31.099 52.1359 31.0508 47.6448Z" fill="#6E7B80"/>
<path d="M58.4917 19.0141C58.4917 19.0141 59.1635 17.2337 60.1435 18.2923C60.7865 18.7414 61.7931 19.1202 63.4023 18.4046C64.2207 18.1319 64.7823 17.763 64.7823 17.763L65.007 18.3886C65.007 18.3886 65.2638 19.5434 65.1514 20.0727C65.2477 20.3133 65.3601 20.2973 65.3601 20.2973C65.3601 20.2973 67.2056 17.6828 64.9268 16.8327C64.5737 16.3836 62.0542 13.5767 59.8557 15.0684C59.1656 14.8759 56.6152 12.673 55.8166 16.127C55.8277 16.8167 56.6462 19.784 55.25 20.6181C56.0524 20.6181 56.8387 20.2331 56.8387 20.2331L57.7695 19.6236L58.1707 18.9981L58.4917 19.0141Z" fill="#8E6B65"/>
<path d="M94.9955 72.7318C94.49 72.5168 93.6909 72.3006 92.6208 72.089C92.6243 71.0051 92.6217 69.9283 92.6194 68.9619C92.6193 68.933 92.6123 68.9046 92.5989 68.8789C92.5278 68.743 92.4376 68.622 92.3311 68.5142C92.3212 68.4709 92.2955 68.4312 92.2557 68.4047C92.2309 68.3882 92.2035 68.3785 92.1758 68.3754C91.0967 67.5199 88.7984 67.6687 87.0542 67.7816C86.4762 67.819 85.9775 67.8511 85.5991 67.844C85.5763 67.8436 85.5536 67.8475 85.5322 67.8555C85.2494 67.9618 84.9262 68.1171 84.9376 68.3764C84.9486 68.6293 85.2586 68.7479 85.5274 68.8229C86.3514 69.0529 88.0173 69.1464 89.3012 69.1361C90.0478 69.1304 90.7096 69.093 91.215 69.0281C91.6982 68.966 91.9638 68.8882 92.1164 68.8104C92.171 68.8716 92.2188 68.9376 92.2594 69.0085C92.2621 70.1222 92.2649 71.3796 92.2584 72.6233C92.2523 72.7504 92.1981 72.8586 92.0928 72.9537C91.4061 73.574 88.9762 73.4301 87.5244 73.3443C87.0481 73.3161 86.6693 73.2937 86.4223 73.2987C86.2695 73.2759 86.0872 73.2602 85.8944 73.2436C85.2696 73.19 84.4138 73.1165 84.1681 72.7266C84.0865 72.5969 84.0743 72.4311 84.1293 72.2239C84.2155 72.2568 84.3215 72.2752 84.4532 72.2763C84.5346 72.277 84.6076 72.2785 84.6733 72.2799C84.7176 72.2808 84.7595 72.2813 84.799 72.2813C85.316 72.2813 85.4375 72.1872 85.4753 71.5789C85.5186 70.8831 85.5134 70.149 85.4599 69.3968C85.433 69.0207 85.1657 68.8123 84.9212 68.8014C82.6976 68.4031 80.5439 67.5824 78.5203 66.3625C74.7383 64.056 72.5396 60.2551 70.4132 56.5793C68.7828 53.7607 67.0969 50.8463 64.704 48.6003C65.1132 47.454 64.5493 46.5544 63.9598 45.6146C63.7554 45.2887 63.5442 44.952 63.3577 44.5873C62.8615 42.5245 62.5705 40.3809 62.2889 38.3074C62.158 37.3436 62.0226 36.348 61.8683 35.3717C62.0303 35.3126 62.1649 35.2292 62.261 35.1133C62.2806 35.0897 62.2939 35.0614 62.2995 35.0313C62.5271 33.8049 62.5209 33.2839 62.2756 33.0403C62.2348 32.9998 62.1904 32.9694 62.1426 32.9469C62.135 32.2115 62.3247 31.3134 62.5258 30.3643C62.9595 28.3171 63.4492 26.0043 61.912 24.8444C62.2679 24.7362 62.5802 24.5223 62.8611 24.1946C63.0134 24.0233 63.1416 23.8456 63.2656 23.6737C63.4431 23.4276 63.6108 23.1952 63.8366 22.9946C63.8392 22.9923 63.8418 22.9898 63.8443 22.9874C63.933 22.8987 64.0525 22.8804 64.1911 22.8591C64.3124 22.8405 64.4499 22.8194 64.5749 22.7444C64.5875 22.7368 64.5992 22.7277 64.6096 22.7173C64.7051 22.6219 64.6835 22.5001 64.6706 22.4273C64.6666 22.4046 64.6624 22.3811 64.6624 22.3651C64.6624 22.3483 64.66 22.3317 64.6554 22.3156C64.561 21.9853 64.5343 21.7057 64.5693 21.4113C64.651 21.1351 64.8077 20.9034 65.0478 20.7033C65.052 20.6999 65.056 20.6962 65.0599 20.6924C65.101 20.6512 65.1391 20.6054 65.1743 20.5563C66.0374 20.4171 66.6061 19.7755 66.6959 18.839C66.7866 17.8933 66.3245 16.6859 65.2911 16.2791C64.5905 15.4269 63.8656 14.8057 63.1358 14.4324C62.1566 13.9314 61.1913 13.89 60.2666 14.309C60.0836 14.3753 59.9089 14.4566 59.7426 14.5498C59.2979 13.7808 58.5359 13.3247 57.6817 13.3239C57.6809 13.3238 57.6801 13.3238 57.6793 13.3238C56.7557 13.3238 55.9241 13.857 55.4529 14.7507C54.9566 15.5256 55.0785 16.4668 55.1964 17.3771C55.3524 18.5813 55.4872 19.6214 54.2701 20.1746C54.1796 20.2158 54.1396 20.3225 54.1808 20.413C54.1887 20.4304 54.1991 20.4458 54.2113 20.4592C54.1901 20.5462 54.2359 20.6374 54.322 20.6698C54.6274 20.7847 54.9743 20.8397 55.3329 20.8397C56.0848 20.8397 56.887 20.5976 57.4624 20.1602C57.0107 22.2396 56.0302 22.2713 54.5827 22.3177C54.0062 22.3362 53.3528 22.3571 52.6717 22.5257C52.5932 22.5451 52.5405 22.6133 52.536 22.6899C52.4804 22.6743 52.4235 22.6618 52.3653 22.6529C51.2868 22.4875 50.1357 23.5036 49.5665 25.1239C49.5648 25.1288 49.5632 25.1339 49.5619 25.139C49.1122 26.8997 49.4236 28.6803 49.7247 30.4022C49.7973 30.8172 49.8723 31.2461 49.9348 31.6658C49.9235 31.8969 49.9839 32.0963 50.112 32.2562C50.1015 32.2653 50.0919 32.2757 50.0835 32.2874C49.7937 32.6893 49.7958 33.4037 50.0884 33.9139C50.2828 34.2529 50.5803 34.4517 50.9195 34.4782C51.2684 37.2129 53.3877 39.1275 55.4383 40.9798C55.682 41.1999 55.9209 41.4161 56.1546 41.631C56.1346 41.6506 56.1184 41.6744 56.109 41.7028C55.6631 43.0567 56.1891 45.9272 56.7459 48.9662C57.1073 50.9381 57.4991 53.0768 57.5241 54.5406C56.3697 54.2329 55.0895 54.3396 53.6121 54.867C53.2206 55.0176 52.8283 55.1754 52.4489 55.328C51.6948 55.6315 50.9151 55.9452 50.111 56.2133C48.8346 56.5908 47.5645 56.6035 46.489 56.5655L46.4392 56.5584C46.1523 56.5179 45.8271 56.4718 45.5506 56.3533C44.5159 55.932 44.5733 54.6612 44.6194 53.64C44.6218 53.5872 44.6242 53.5353 44.6263 53.4841C45.1259 51.3051 44.9349 49.0566 44.7501 46.8822C44.6848 46.1134 44.6173 45.3185 44.582 44.5424C44.4759 42.0486 44.654 40.138 45.1596 38.348L45.2893 37.959C45.4171 37.7024 45.5094 37.478 45.6058 37.19C45.923 36.4722 46.3684 35.8714 46.8398 35.2356C47.0834 34.9071 47.3352 34.5674 47.5692 34.2088C47.6664 34.0606 47.7578 33.912 47.8442 33.7631C48.6104 34.4849 49.5857 34.719 50.4468 34.8511C50.456 34.8525 50.4652 34.8532 50.4743 34.8532C50.5617 34.8532 50.6384 34.7895 50.6521 34.7005C50.6672 34.6022 50.5997 34.5103 50.5014 34.4953C49.6286 34.3615 48.7256 34.1398 48.0248 33.4366C48.6969 32.1648 49.0118 30.8775 49.246 29.6592C49.2647 29.5616 49.2008 29.4673 49.1031 29.4485C49.0055 29.4299 48.911 29.4937 48.8923 29.5913C48.6175 31.0206 48.2307 32.5453 47.2678 34.0117C47.0394 34.3618 46.7908 34.697 46.5505 35.0213C46.0864 35.6472 45.6065 36.2945 45.2728 37.0526C45.2706 37.0576 45.2685 37.0629 45.2668 37.0681C45.1737 37.3472 45.0852 37.562 44.9614 37.8095C44.9576 37.8172 44.9543 37.8251 44.9516 37.8331L44.8166 38.2381C44.8157 38.2407 44.8148 38.2434 44.8141 38.2461C44.2968 40.0757 44.1142 42.0222 44.2222 44.5582C44.2579 45.3419 44.3257 46.1404 44.3913 46.9127C44.5742 49.0649 44.7632 51.2904 44.2717 53.4196C44.2692 53.4304 44.2677 53.4414 44.2672 53.4525C44.2649 53.5086 44.2623 53.5657 44.2597 53.6238C44.2112 54.6981 44.1447 56.1696 45.4117 56.6855C45.7293 56.8215 46.0797 56.8711 46.3887 56.9149L46.4477 56.9233C46.454 56.9242 46.4604 56.9247 46.4667 56.9249C46.713 56.9337 46.9693 56.94 47.2338 56.94C47.745 56.9399 48.2865 56.9165 48.8433 56.8439C46.8686 60.9841 45.936 65.5381 45.2848 69.4623C45.2837 69.4694 45.2838 69.4764 45.2835 69.4835C44.2543 70.0305 43.4708 70.3898 42.8965 70.653C42.1595 70.9908 41.7122 71.2026 41.4427 71.4735C41.3873 68.827 41.4071 66.1317 41.4268 63.5231C41.447 60.8419 41.4676 58.0704 41.4065 55.3457C41.5367 55.3459 41.6669 55.3461 41.7971 55.3463C41.8076 55.3479 41.8206 55.3452 41.8321 55.3429C42.5255 55.2067 42.9396 54.7576 42.9127 54.1711C42.9123 54.1617 42.9111 54.1524 42.9092 54.1432C42.6304 52.7812 40.1555 52.9391 37.762 53.0918C36.5245 53.1708 35.3463 53.2456 34.6442 53.0941C35.124 52.9018 35.5268 52.5519 35.7549 51.9247C35.8845 51.969 36.0807 51.9671 36.3686 51.8171C37.5606 51.3547 38.5591 49.3937 38.245 48.1254C38.1307 47.6637 37.7387 46.9138 36.3954 47.0781C36.3924 47.0785 36.3896 47.0789 36.3867 47.0794C36.1011 46.7633 35.5494 46.7795 34.4683 46.8115C33.9302 46.8275 33.2607 46.8473 32.4312 46.8326C31.2312 46.7636 30.6409 46.7448 30.3433 47.0667C30.0575 47.3759 30.1274 47.8847 30.2666 48.8983C30.283 49.0175 30.3003 49.1439 30.3182 49.2779C30.319 49.2842 30.3202 49.2905 30.3217 49.2967C30.3936 49.5918 30.4432 49.919 30.4958 50.2654C30.651 51.2878 30.8253 52.4319 31.6596 53.0485C30.7893 53.1753 29.8441 53.1423 28.9263 53.1102C28.5076 53.0956 28.0804 53.0809 27.6569 53.0809C27.9638 53.0132 28.2309 52.8296 28.2475 52.3121C28.2871 51.0067 28.2692 49.6809 28.2519 48.3989C28.2367 47.2676 28.2209 46.0979 28.2448 44.9487C28.3166 44.359 27.8909 44.1384 27.5485 43.9608C27.1469 43.7527 26.9427 43.6219 27.0809 43.1637C27.2761 42.7128 27.3023 42.4065 27.1636 42.2004C26.9734 41.9176 26.567 41.9273 26.0965 41.9389C25.9465 41.9425 25.7916 41.9463 25.6381 41.9407C25.4126 41.9065 25.2198 41.9864 25.1083 42.1608C24.9793 42.3627 24.9889 42.6596 25.1311 42.8667C25.1921 42.9556 25.2708 43.0202 25.3614 43.0587C25.3753 43.6658 25.1185 43.7477 24.7678 43.8593C24.4184 43.9705 23.9402 44.1227 23.9798 44.9394C23.9651 47.0877 23.9578 49.6267 24.0144 52.1774C23.9511 52.827 24.2866 52.9548 24.6111 53.0785C24.6287 53.0852 24.6466 53.0921 24.6644 53.099C24.0181 53.2356 22.8868 53.1632 21.7869 53.0929C19.9434 52.9751 18.0371 52.8533 17.2921 53.521C17.0878 53.704 16.978 53.9366 16.9655 54.2124C16.9654 54.2151 16.9653 54.2177 16.9653 54.2203C16.9649 54.5539 17.0628 54.8179 17.2564 55.0051C17.5583 55.297 18.0334 55.3512 18.5124 55.3512C18.6363 55.3512 18.7599 55.3475 18.8814 55.3434C18.9689 59.9812 18.9389 64.7218 18.9099 69.307C18.8978 71.2203 18.8855 73.1863 18.8816 75.1385C15.3327 75.2221 11.4327 75.2079 6.96395 75.0947C6.86445 75.0917 6.78188 75.1707 6.77936 75.27C6.77683 75.3694 6.8554 75.452 6.95481 75.4546C9.52326 75.5196 11.904 75.552 14.1389 75.552C15.7943 75.552 17.3693 75.534 18.8809 75.4985C18.8805 75.8317 18.8802 76.1645 18.8803 76.4963C18.8803 76.5957 18.961 76.6763 19.0605 76.6763C19.1599 76.6762 19.2405 76.5956 19.2405 76.4962C19.2404 76.1621 19.2406 75.8269 19.2411 75.4913L19.605 75.4808C26.8819 75.2707 34.4055 75.0531 41.1388 72.0125C41.0389 72.3835 41.0416 72.8981 41.0538 73.7112C41.0633 74.3378 41.075 75.1176 41.0451 76.1653C41.0423 76.2647 41.1206 76.3476 41.22 76.3504C41.2218 76.3504 41.2235 76.3505 41.2253 76.3505C41.3223 76.3505 41.4024 76.2732 41.4052 76.1756C41.4353 75.12 41.4235 74.3358 41.414 73.7057C41.3989 72.7008 41.3913 72.1964 41.582 71.8789C41.7706 71.5652 42.197 71.3697 43.0468 70.9802C43.4072 70.815 43.8497 70.6121 44.383 70.3493C44.3381 70.4268 44.2658 70.5067 44.1947 70.585C44.0504 70.744 43.887 70.9241 43.9164 71.1489C43.9355 71.2942 44.0303 71.4226 44.2062 71.5409C44.5152 71.8756 45.6578 72.8017 46.8857 73.6043C48.1785 74.4494 49.1255 74.8747 49.7114 74.8747C49.8606 74.8747 49.9865 74.8471 50.0887 74.7918C50.4133 74.616 50.4924 74.2138 50.3237 73.5964C50.3138 73.5604 50.2931 73.5284 50.2642 73.5048C49.0877 72.5387 48.1472 71.4482 47.4678 70.2625C47.7849 69.6358 48.1032 68.9976 48.4169 68.3663C48.4236 68.3655 48.4303 68.3655 48.437 68.364L48.5367 68.3408C50.2656 67.9393 52.0533 67.5242 53.8576 67.3513C54.1927 68.9199 54.5997 70.5085 55.0766 72.1063C55.0788 72.1133 55.0813 72.1203 55.0842 72.127C55.2827 72.5798 55.1461 73.0025 54.9755 73.4316C54.9545 73.4843 54.9604 73.5417 54.9873 73.5881C54.8409 73.8803 54.7155 74.4492 54.8941 74.815C54.9755 74.9818 55.111 75.0868 55.2862 75.1191C56.8397 75.5133 58.7096 75.9873 60.5708 75.9872C60.934 75.9872 61.2973 75.9692 61.6575 75.9289C61.6915 75.9251 61.7238 75.9116 61.7505 75.8901C61.9664 75.7161 62.0606 75.5217 62.0307 75.3125C61.9447 74.7131 60.7916 74.234 59.5709 73.7268C58.8028 73.4077 57.9322 73.046 57.7486 72.7759C57.4225 72.2968 57.4195 71.6657 57.4163 70.9975C57.4143 70.583 57.4123 70.1547 57.3263 69.759C57.3297 69.4325 57.2995 69.1015 57.2704 68.7811C57.2275 68.3106 57.1871 67.8648 57.2428 67.4321C59.8811 67.7517 62.5639 68.2884 65.1622 68.8086C69.3553 69.6481 73.6526 70.5085 77.9721 70.5085C79.5575 70.5085 81.1462 70.3926 82.7335 70.1171C82.7693 70.1109 82.8007 70.0944 82.8254 70.0713C82.8366 70.0742 82.8481 70.0773 82.8592 70.0803C83.6586 70.2925 83.9278 70.3639 83.7874 71.506C83.7864 71.5139 83.786 71.5218 83.786 71.5296C83.7875 71.6859 83.8033 71.8234 83.846 71.9369C83.8433 71.9423 83.8402 71.9473 83.838 71.953C83.8319 71.9692 83.8265 71.9851 83.8209 72.001C83.8206 72.0011 83.8204 72.001 83.8201 72.0011C82.5561 72.167 81.609 72.3537 81.005 72.5561C80.6022 72.6911 80.0713 72.9163 80.1108 73.312C80.1388 73.592 80.4518 73.8294 81.0958 74.0593C81.5932 74.2367 82.2878 74.4069 83.1046 74.5513C84.6772 74.8293 86.4245 74.9696 87.4634 74.9014C87.7412 74.9378 88.1251 74.9552 88.5756 74.9552C89.5785 74.9552 90.9111 74.869 92.1359 74.7139C93.1023 74.5914 93.9284 74.4365 94.5247 74.2658C95.3006 74.0437 95.6854 73.7998 95.7357 73.4982C95.8059 73.0766 95.1959 72.8171 94.9955 72.7318ZM88.404 68.7675C86.5632 68.7186 85.5351 68.5099 85.3213 68.3606C85.3595 68.3296 85.4444 68.2755 85.6274 68.2044C86.0151 68.2101 86.5087 68.1776 87.0774 68.1409C88.6835 68.0368 90.7834 67.9009 91.8056 68.5503C91.3417 68.6887 90.1394 68.8138 88.404 68.7675ZM36.2954 49.4877C36.3985 48.9741 36.4807 48.5637 36.5288 48.2316C36.7789 48.2088 36.9606 48.276 37.0695 48.4322C37.287 48.744 37.2163 49.3934 36.9085 49.9106C36.799 50.0945 36.5084 50.505 36.0954 50.5022C36.1667 50.1289 36.2338 49.7944 36.2954 49.4877ZM37.8956 48.2118C38.1692 49.3167 37.2665 51.0907 36.2303 51.4846C36.2234 51.4872 36.2166 51.4903 36.2101 51.4937C35.9926 51.6088 35.8766 51.5976 35.8545 51.574C35.828 51.5459 35.8173 51.4071 35.9577 51.1774C35.9693 51.1584 35.9772 51.1375 35.9812 51.1156C35.997 51.0282 36.0126 50.9431 36.0281 50.8596C36.0518 50.8613 36.0755 50.8625 36.0991 50.8625C36.5215 50.8625 36.9244 50.588 37.218 50.0947C37.5498 49.5371 37.7068 48.7163 37.365 48.2262C37.2386 48.045 37.0009 47.8511 36.5692 47.8686C36.5809 47.6941 36.5762 47.5479 36.5516 47.4238C37.2985 47.3611 37.7505 47.6258 37.8956 48.2118ZM30.8521 50.2114C30.7989 49.8604 30.7485 49.5288 30.6741 49.2209C30.6566 49.0899 30.6396 48.9662 30.6236 48.8493C30.5077 48.0049 30.4377 47.4953 30.6081 47.3109C30.7942 47.1096 31.4156 47.1347 32.4143 47.1921C32.4167 47.1923 32.4191 47.1924 32.4214 47.1924C33.2612 47.2074 33.9365 47.1873 34.4791 47.1713C35.4006 47.1441 35.9568 47.1276 36.126 47.3279C36.3164 47.5532 36.1835 48.2152 35.9422 49.4168C35.85 49.8763 35.7456 50.3961 35.6326 51.0194C35.4892 51.2657 35.4449 51.4953 35.5024 51.6689C35.4709 51.6901 35.4454 51.7209 35.4322 51.7596C35.0041 53.0151 33.7706 52.9821 32.5778 52.9499C32.4373 52.9462 32.3041 52.9426 32.1717 52.9412C32.1611 52.9325 32.1496 52.9245 32.1366 52.9182C31.1934 52.4599 31.0199 51.3168 30.8521 50.2114ZM25.412 42.3545C25.4298 42.3266 25.4616 42.2926 25.537 42.2926C25.5528 42.2926 25.5706 42.2941 25.5906 42.2975C25.5982 42.2988 25.6058 42.2996 25.6135 42.2999C25.7818 42.3065 25.9463 42.3025 26.1053 42.2987C26.4394 42.2905 26.7848 42.2821 26.8649 42.4012C26.8851 42.4313 26.914 42.5139 26.8595 42.7182C26.5915 42.6561 26.3334 42.6815 26.0836 42.706C25.9384 42.7204 25.8014 42.7337 25.6653 42.7304C25.6517 42.7301 25.6382 42.7313 25.625 42.734C25.5376 42.7517 25.4732 42.7285 25.4282 42.6629C25.3672 42.5742 25.36 42.4358 25.412 42.3545ZM17.507 54.7462C17.3854 54.6286 17.326 54.458 17.3257 54.2247C17.3345 54.0483 17.4022 53.9057 17.5326 53.7889C18.1652 53.222 20.0772 53.3442 21.7641 53.452C23.2381 53.5462 24.5112 53.6276 25.1295 53.3231C25.2065 53.2852 25.2441 53.1997 25.2248 53.1197C25.2415 53.0455 25.2106 52.9659 25.1415 52.9252C24.9973 52.8401 24.8604 52.7879 24.7395 52.7419C24.4363 52.6264 24.3341 52.5874 24.3739 52.2028C24.3747 52.1953 24.375 52.1878 24.3749 52.1803C24.318 49.6284 24.3255 47.0866 24.3402 44.9367C24.3402 44.9332 24.3401 44.9298 24.34 44.9263C24.3121 44.3821 24.5369 44.3105 24.8773 44.2022C25.2369 44.0878 25.7234 43.9323 25.7217 43.0903C25.8571 43.0894 25.99 43.077 26.1189 43.0643C26.3342 43.0431 26.5387 43.023 26.7362 43.0601C26.5059 43.8256 27.0125 44.0883 27.3829 44.2803C27.7335 44.4621 27.9298 44.5811 27.8866 44.9122C27.8857 44.9187 27.8852 44.9252 27.8851 44.9317C27.8608 46.0902 27.8767 47.2663 27.892 48.4037C27.9092 49.6819 27.9271 51.0036 27.8877 52.3009C27.8746 52.7116 27.6896 52.7521 27.1644 52.7633C26.892 52.7692 26.5832 52.7757 26.3399 52.9275C26.2729 52.9693 26.2437 53.0479 26.2606 53.1208C26.2493 53.169 26.2572 53.2215 26.288 53.2652C26.4336 53.4722 26.6477 53.4675 26.7894 53.4645C26.8071 53.4641 26.8248 53.4637 26.8424 53.4637C26.8425 53.4637 26.8425 53.4637 26.8427 53.4637H26.8427C26.8465 53.4637 26.8503 53.4635 26.8541 53.4633C27.5207 53.4212 28.229 53.4461 28.914 53.4699C29.3339 53.4846 29.7593 53.4994 30.1824 53.4994C30.8353 53.4994 31.4825 53.464 32.0943 53.3379C32.1233 53.3319 32.1487 53.3187 32.1703 53.3013C32.2991 53.3027 32.43 53.3061 32.5681 53.3098C32.7469 53.3146 32.9321 53.3196 33.1197 53.3196C33.447 53.3196 33.7813 53.3042 34.1002 53.2466C34.1185 53.2806 34.1471 53.3093 34.1851 53.3261C34.8844 53.6361 36.2935 53.5462 37.7852 53.451C39.9112 53.3154 42.3196 53.1617 42.5536 54.2017C42.5644 54.5916 42.2766 54.8834 41.7797 54.9862C33.9047 54.9752 26.1054 54.9754 19.5138 54.9771C19.3384 54.9675 19.1422 54.9743 18.9346 54.9814C18.3985 54.9999 17.791 55.0208 17.507 54.7462ZM19.5947 75.1209L19.242 75.1311C19.2459 73.1823 19.2582 71.2195 19.2703 69.3091C19.2994 64.7205 19.3293 59.9764 19.2416 55.333C19.333 55.3316 19.4194 55.3323 19.4985 55.3368C19.502 55.337 19.5054 55.3371 19.5088 55.3371C25.8971 55.3355 33.4196 55.3352 41.0465 55.3452C41.1077 58.0672 41.087 60.8391 41.0668 63.5204C41.0468 66.1848 41.026 68.9398 41.0859 71.6435C41.0803 71.6454 41.0747 71.6467 41.0692 71.6492C34.3819 74.6939 26.8646 74.911 19.5947 75.1209ZM61.932 38.3558C62.2157 40.445 62.5091 42.6053 63.0125 44.6922C63.0158 44.7058 63.0207 44.719 63.027 44.7315C63.2232 45.1178 63.4426 45.4676 63.6547 45.8057C64.4195 47.0251 64.9767 47.9141 63.8627 49.3597C63.8209 49.3646 63.7805 49.3835 63.7501 49.4172C63.6142 49.5677 63.5665 49.5497 63.3307 49.369C63.3192 49.3602 63.3075 49.3512 63.2957 49.3422C63.9735 47.6822 63.4958 47.0247 62.2444 45.9748C61.9119 44.7616 61.3765 43.542 60.8585 42.3619C59.881 40.1352 58.8716 37.8335 59.1185 35.4C59.3135 35.403 59.5592 35.4219 59.8164 35.442C60.1754 35.4699 60.5522 35.4993 60.9045 35.4993C61.1216 35.4993 61.3292 35.488 61.5176 35.4585C61.6691 36.4213 61.8028 37.4041 61.932 38.3558ZM59.8598 44.5668C60.2119 44.7292 60.5115 44.9747 60.8266 45.2328C61.1035 45.4597 61.3898 45.6944 61.7164 45.8681C61.7572 45.8898 61.8024 45.8936 61.844 45.8833C61.8673 45.9633 61.8899 46.0434 61.9114 46.1233C61.921 46.159 61.9414 46.191 61.9698 46.2147C62.9503 47.0329 63.3873 47.5147 63.2044 48.4436C63.0884 48.3925 63.0012 48.2888 62.9029 48.171C62.771 48.0129 62.6215 47.8336 62.3727 47.7739C62.371 47.7735 62.3693 47.7736 62.3676 47.7733C62.325 47.6647 62.2686 47.5597 62.1903 47.4639C62.1877 47.4606 62.1849 47.4574 62.182 47.4544L62.1636 47.4347C61.5477 46.779 60.9108 46.1009 60.1523 45.5635C59.7883 45.3057 59.6845 44.9407 59.8598 44.5668ZM58.3795 34.4821C58.4037 34.5595 58.4161 34.666 58.4266 34.7577C58.4514 34.9732 58.477 35.196 58.6395 35.3231C58.6753 35.351 58.7149 35.3715 58.7579 35.3853C58.5092 37.9043 59.535 40.2434 60.5285 42.5066C60.9519 43.471 61.3869 44.4621 61.709 45.4469C61.4839 45.3052 61.2741 45.134 61.0549 44.9544C60.9974 44.9073 60.9395 44.8599 60.881 44.8128C60.8803 43.8746 60.3577 43.1389 59.8467 42.5429C59.8452 42.5411 59.8436 42.5394 59.8421 42.5377C58.6165 41.2148 57.7065 40.0434 56.8911 38.7396C56.8839 38.728 56.8754 38.7174 56.8658 38.7077C56.7874 38.6294 56.7064 38.5484 56.6744 38.4845C56.6383 38.4123 56.6084 38.3173 56.6039 38.2629C56.6245 38.157 56.6721 38.0524 56.7223 37.942C56.7825 37.8097 56.8446 37.6729 56.8711 37.5146C56.8716 37.5114 56.872 37.5081 56.8724 37.5049C56.9138 37.1326 56.9584 36.7648 57.0479 36.3606C57.2832 35.5829 57.8068 35.0369 58.3795 34.4821ZM62.6263 48.4016C62.7504 48.5504 62.8898 48.7168 63.1129 48.7947C63.077 48.9082 63.0338 49.028 62.983 49.1552C62.9798 49.154 62.9767 49.1526 62.9735 49.1514C62.6338 49.0092 62.5723 48.7422 62.5004 48.3191C62.4964 48.2952 62.4922 48.2709 62.488 48.2465C62.5341 48.2916 62.5788 48.3446 62.6263 48.4016ZM61.9548 34.9144C61.6318 35.2225 60.6024 35.1422 59.8444 35.0831C59.4801 35.0547 59.1655 35.0302 58.9332 35.0427C58.9287 35.043 58.9243 35.0434 58.9199 35.0439C58.8919 35.0476 58.8696 35.0459 58.8616 35.0396C58.8177 35.0053 58.7977 34.8315 58.7845 34.7166C58.7652 34.5482 58.7434 34.3612 58.652 34.2192C58.9401 33.9403 59.2314 33.6496 59.4911 33.3218C59.4941 33.3179 59.497 33.314 59.4997 33.3099C59.5103 33.294 59.52 33.2791 59.5295 33.2643C60.3062 33.532 60.9557 33.4081 61.4313 33.3168C61.7064 33.264 61.9441 33.2184 62.0218 33.2957C62.2104 33.4831 62.03 34.5071 61.9548 34.9144ZM62.1734 30.2897C61.9728 31.2366 61.7827 32.1343 61.7816 32.8981C61.6551 32.9074 61.5155 32.934 61.3632 32.9633C60.9263 33.0472 60.3892 33.1502 59.7485 32.9574C60.7087 31.4614 60.8669 29.8119 61.0195 28.2163C61.068 27.7099 61.1181 27.1864 61.1929 26.6719C61.214 26.5733 61.2341 26.4757 61.2539 26.3792C61.3486 25.9179 61.4389 25.48 61.6194 25.0772C63.0652 26.0788 62.6121 28.2191 62.1734 30.2897ZM60.3956 14.6452C60.4003 14.6436 60.4049 14.6417 60.4094 14.6396C62.2666 13.7931 63.9541 15.208 65.0427 16.5439C65.0632 16.5691 65.0902 16.5883 65.1207 16.5994C66.0171 16.9257 66.4167 17.9791 66.3375 18.8046C66.3055 19.1377 66.1461 19.8859 65.3699 20.1401C65.3723 20.1313 65.3752 20.1226 65.3775 20.1137C65.3782 20.1109 65.3788 20.1081 65.3794 20.1053C65.4621 19.6918 65.4482 19.2537 65.3343 18.6847C65.3338 18.6819 65.3332 18.6791 65.3324 18.6763C65.2749 18.4462 65.2013 18.2387 65.1302 18.038C65.0871 17.9165 65.0464 17.8017 65.0119 17.6889C64.9827 17.5938 64.882 17.5403 64.7869 17.5695C64.7752 17.5731 64.7642 17.5778 64.7538 17.5834C64.6863 17.5376 64.594 17.542 64.5313 17.5995C63.7363 18.3289 62.5743 18.6815 61.0775 18.6471C60.7055 18.6134 60.4295 18.3765 60.1625 18.1475C59.887 17.911 59.6266 17.6876 59.2999 17.7602C58.992 17.8284 58.7148 18.1501 58.3899 18.8217C58.3675 18.8022 58.3441 18.7834 58.319 18.7658C58.3156 18.7634 58.3119 18.7619 58.3084 18.7598C58.3247 18.6177 58.3261 18.4723 58.3099 18.3242C58.3092 18.3178 58.3082 18.3115 58.3068 18.3052C57.9759 16.7931 58.8934 15.1854 60.3956 14.6452ZM54.6348 20.3927C55.8604 19.705 55.7051 18.4992 55.5538 17.3309C55.4438 16.4821 55.3302 15.6045 55.7601 14.9391C55.7631 14.9345 55.7658 14.9298 55.7684 14.9249C56.1755 14.1477 56.8898 13.6838 57.6795 13.6838C57.6802 13.6838 57.6808 13.6839 57.6815 13.6839C58.4085 13.6846 59.0578 14.0788 59.4367 14.7418C58.2848 15.5494 57.6559 16.9949 57.9529 18.3725C58.0283 19.1015 57.6192 19.5842 57.2618 19.8612C56.5577 20.4067 55.4645 20.6202 54.6348 20.3927ZM57.8837 19.8804C57.8902 19.8424 57.8842 19.8054 57.8688 19.7731C58.0249 19.5839 58.1415 19.3774 58.2174 19.1587C58.3147 19.2744 58.3823 19.4324 58.4528 19.5974C58.5495 19.824 58.6592 20.0809 58.8696 20.269C58.904 20.2998 58.9469 20.3149 58.9896 20.3149C59.0391 20.3149 59.0883 20.2947 59.1239 20.2549C59.1902 20.1808 59.1839 20.067 59.1098 20.0008C58.9591 19.866 58.8741 19.6669 58.7841 19.4561C58.7389 19.3503 58.6929 19.2431 58.6375 19.1416C58.9294 18.5028 59.1785 18.1559 59.3779 18.1117C59.5291 18.0784 59.7139 18.2369 59.928 18.4207C60.2103 18.663 60.5617 18.9645 61.0522 19.0063C61.0559 19.0067 61.0596 19.0069 61.0633 19.007C62.6199 19.0438 63.8448 18.6778 64.7087 17.922C64.7345 17.9995 64.762 18.0774 64.7907 18.1583C64.8585 18.3498 64.9287 18.5477 64.9819 18.7596C65.0849 19.2757 65.0988 19.668 65.027 20.0305C64.9868 20.1883 64.9102 20.3306 64.8105 20.4324C64.5171 20.6789 64.3181 20.9794 64.2192 21.3256C64.2166 21.3345 64.2148 21.3436 64.2136 21.3527C64.1713 21.6914 64.1997 22.0225 64.3031 22.3929C64.3048 22.4205 64.3084 22.446 64.3123 22.4687C64.261 22.4842 64.2017 22.4933 64.1365 22.5033C63.9709 22.5287 63.765 22.5603 63.5936 22.7288C63.3401 22.9551 63.1537 23.2134 62.9735 23.4631C62.8548 23.6277 62.7321 23.7979 62.5898 23.9579C62.3201 24.2724 62.0364 24.454 61.6969 24.5293C61.6826 24.5325 61.6687 24.5375 61.6555 24.544C61.6096 24.567 61.5588 24.5929 61.5102 24.6265C61.2975 24.3697 61.0601 24.1221 60.8295 23.8821C60.3351 23.3672 59.8238 22.8347 59.52 22.177C59.4783 22.0868 59.3713 22.0474 59.281 22.0891C59.1907 22.1307 59.1513 22.2377 59.193 22.328C59.5186 23.0329 60.0434 23.5833 60.5533 24.1143C60.2704 24.2207 60.1596 24.4443 60.123 24.6945C60.1114 24.7068 60.1007 24.7202 60.0926 24.7361C59.4658 25.959 58.5403 26.4531 57.5535 26.0916C56.46 25.6909 55.5191 24.2339 55.9056 22.5785C55.9072 22.5717 55.9075 22.565 55.9083 22.5582C56.8303 22.3537 57.5595 21.7589 57.8837 19.8804ZM54.5944 22.6775C54.9173 22.6672 55.2307 22.657 55.5287 22.6214C55.1727 24.4166 56.22 25.9863 57.4294 26.4295C57.6817 26.5219 57.932 26.5672 58.1764 26.5672C58.9162 26.5672 59.6026 26.1523 60.132 25.3756C60.1484 25.5984 60.157 25.8193 60.0947 25.9729C60.0923 25.9789 60.0902 25.985 60.0884 25.9912C59.9744 26.3904 59.9421 26.8858 59.9078 27.4102C59.8509 28.2804 59.7922 29.1801 59.3447 29.4499C59.1057 29.594 58.7367 29.5564 58.2442 29.3367C57.951 29.2136 57.4867 29.1435 56.9951 29.0694C56.1489 28.9418 55.0979 28.7833 54.967 28.333C54.9413 27.8182 54.9418 27.2847 54.9423 26.7684C54.9437 25.4044 54.9451 23.9953 54.4781 22.6813C54.517 22.68 54.5558 22.6788 54.5944 22.6775ZM54.1 22.6965C54.5849 23.9807 54.5836 25.3976 54.5822 26.768C54.5816 27.2951 54.5811 27.8402 54.6083 28.37C54.6088 28.3812 54.6105 28.3924 54.6131 28.4033C54.7824 29.0998 55.9294 29.2727 56.9414 29.4254C57.4102 29.4961 57.8529 29.5629 58.101 29.667C58.445 29.8205 58.7434 29.897 59.0011 29.897C59.2016 29.897 59.3774 29.8507 59.5308 29.7582C60.1394 29.3912 60.2044 28.396 60.2673 27.4337C60.2999 26.9329 60.3309 26.4597 60.4324 26.0985C60.5304 25.848 60.507 25.5489 60.4843 25.2595C60.4416 24.7137 60.456 24.4854 60.7753 24.4248C60.7951 24.4211 60.8131 24.4135 60.8297 24.4041C60.9929 24.5775 61.1482 24.7492 61.2916 24.9279C61.0946 25.3661 61.0002 25.8242 60.9011 26.3068C60.8811 26.4042 60.8608 26.5027 60.8395 26.6023C60.8386 26.6062 60.838 26.6101 60.8374 26.614C60.7607 27.1392 60.7101 27.6693 60.661 28.182C60.505 29.8134 60.3575 31.3548 59.4336 32.782C59.3617 32.8569 59.3153 32.9301 59.2621 33.0139C59.2444 33.0417 59.2255 33.0715 59.204 33.1041C58.9211 33.4601 58.5909 33.7781 58.2715 34.0858C57.6374 34.6965 56.9817 35.328 56.701 36.2633C56.6997 36.2675 56.6987 36.2717 56.6977 36.276C56.6038 36.6985 56.5576 37.0772 56.515 37.4599C56.4958 37.5701 56.4465 37.6784 56.3944 37.793C56.3821 37.8201 56.3697 37.8475 56.3576 37.8751C56.27 37.7553 56.1813 37.6353 56.0942 37.5176C55.2646 36.3967 54.4067 35.2376 54.2797 33.8826C54.2791 33.8766 54.2774 33.871 54.2763 33.8652C54.3441 33.8274 54.411 33.7872 54.4767 33.7439C54.5411 33.7014 54.5713 33.6226 54.5517 33.548C53.8978 31.0564 53.9456 28.5791 53.9963 25.9562L54.004 25.5547C54.004 25.5516 54.004 25.5485 54.0039 25.5454C53.9594 24.2073 53.5536 23.2462 52.891 22.8443C53.308 22.7524 53.7093 22.7161 54.1 22.6965ZM50.0797 30.3403C49.7856 28.6584 49.4814 26.9191 49.9092 25.2357C50.4795 23.6193 51.5486 22.8921 52.3108 23.0088C53.0956 23.1291 53.5937 24.0799 53.6437 25.5527L53.6362 25.9493C53.5994 27.8533 53.5617 29.8058 53.8287 31.7373C53.8154 31.7427 53.8026 31.7499 53.7905 31.7587C53.2538 32.1509 51.3246 32.5896 50.5723 32.176C50.368 32.0637 50.2801 31.9028 50.2956 31.6697C50.2964 31.6569 50.2959 31.6441 50.2941 31.6314C50.2303 31.2012 50.1537 30.7635 50.0797 30.3403ZM50.401 33.7349C50.1808 33.3509 50.1693 32.7844 50.3758 32.4979C50.3791 32.4933 50.3822 32.4886 50.385 32.4838C50.3895 32.4864 50.3941 32.4889 50.3986 32.4914C51.2495 32.9592 53.163 32.5456 53.8864 32.1247C53.9607 32.5887 54.0539 33.0512 54.1702 33.5112C53.3954 33.9717 52.4337 34.0315 51.5022 34.0894C51.3568 34.0985 51.2127 34.1074 51.067 34.1182C50.7172 34.1511 50.5118 33.9281 50.401 33.7349ZM51.281 34.4642C51.3618 34.4589 51.4429 34.4537 51.5246 34.4486C52.3429 34.3978 53.1834 34.3452 53.9338 34.0313C54.1048 35.4346 54.9684 36.6019 55.8046 37.7317C55.9549 37.9348 56.097 38.1267 56.2354 38.3207C56.24 38.3271 56.2457 38.332 56.251 38.3376C56.2683 38.4482 56.3126 38.5664 56.3522 38.6455C56.4075 38.7559 56.5025 38.8536 56.5966 38.9478C57.4211 40.2638 58.3405 41.4465 59.5754 42.7798C60.0073 43.2837 60.4103 43.8419 60.5015 44.5256C60.2999 44.3858 60.0847 44.2612 59.8448 44.1703C59.7652 44.1402 59.6754 44.1698 59.6294 44.2414C59.324 44.7166 59.3508 45.2269 59.6789 45.6161C58.9739 45.8074 58.2283 45.602 57.8043 45.0794C57.3556 44.5264 57.3798 43.7581 57.869 43.024C57.9148 42.9553 57.908 42.8643 57.8525 42.8032C57.2025 42.0881 56.4284 41.3889 55.6798 40.7126C53.6865 38.912 51.6264 37.051 51.281 34.4642ZM57.3346 54.8637C57.3975 54.879 57.4599 54.8961 57.522 54.914C57.507 55.3766 57.4438 55.7493 57.3162 55.9974C57.3245 55.6191 57.3309 55.2409 57.3346 54.8637ZM50.2163 56.5576C50.2182 56.557 50.2202 56.5564 50.2221 56.5558C50.9651 56.3082 51.6832 56.0238 52.3798 55.7439C52.9092 56.7904 52.9824 57.9129 52.9701 59.0934C52.9201 59.102 52.8739 59.1307 52.8459 59.1776C51.2644 61.8154 49.8459 64.6754 48.474 67.4411C48.3268 67.7379 48.1779 68.0382 48.028 68.3395C48.0122 68.336 47.9959 68.3337 47.9788 68.3346C47.3478 68.3698 46.7804 68.6863 46.2318 68.9925C46.0508 69.0935 45.8657 69.1966 45.6793 69.2888C46.3364 65.3722 47.2855 60.8549 49.2747 56.7779C49.5858 56.723 49.9005 56.6511 50.2163 56.5576ZM49.9172 74.4752C49.7836 74.5476 49.1845 74.6767 47.0829 73.303C45.8749 72.5134 44.722 71.5796 44.459 71.2836C44.4482 71.2714 44.4357 71.2607 44.4221 71.2519C44.2915 71.1676 44.2754 71.116 44.2736 71.1022C44.2658 71.0426 44.3743 70.923 44.4615 70.8269C44.4877 70.7981 44.5149 70.768 44.542 70.7367C44.5427 70.7372 44.5431 70.7378 44.5438 70.7383C44.7856 70.9092 45.0939 71.1873 45.451 71.5094C46.392 72.3583 47.6053 73.4528 48.6206 73.4528C48.8874 73.4528 49.1406 73.3769 49.3714 73.2014C49.5702 73.3868 49.7763 73.5685 49.9906 73.7458C50.0637 74.0345 50.1022 74.3751 49.9172 74.4752ZM49.1066 72.9478C48.2264 73.5277 46.7663 72.211 45.6923 71.2422C45.3267 70.9124 45.011 70.6276 44.7517 70.4444C44.748 70.4418 44.744 70.4402 44.7402 70.4379C44.7745 70.3561 44.7938 70.2674 44.7866 70.1707C44.786 70.1633 44.7842 70.1565 44.7828 70.1494C44.9899 70.0444 45.2093 69.9306 45.441 69.8076C46.0276 70.1535 46.5976 70.3749 47.18 70.4829C47.688 71.3598 48.3329 72.1853 49.1066 72.9478ZM47.1425 70.1075C46.7058 70.0153 46.2738 69.8537 45.832 69.6152C46.028 69.5185 46.2197 69.4116 46.4073 69.3069C46.8928 69.036 47.3541 68.7794 47.8435 68.7102C47.6107 69.1775 47.3762 69.6457 47.1425 70.1075ZM48.623 67.9512C48.6811 67.834 48.7391 67.7173 48.7967 67.601C50.1082 64.9571 51.4628 62.2274 52.9585 59.694C52.9567 59.7626 52.9549 59.8314 52.9531 59.9005C52.9278 60.8577 52.9017 61.8477 53.0813 62.799C53.2545 64.1755 53.4897 65.5777 53.7836 66.997C52.0277 67.1687 50.2986 67.5622 48.623 67.9512ZM53.438 62.7485C53.4375 62.7448 53.437 62.7411 53.4362 62.7374C53.2627 61.8223 53.2883 60.8501 53.3132 59.9099C53.3514 58.4623 53.3904 56.9664 52.7151 55.6091C53.0521 55.4736 53.397 55.3355 53.7375 55.2045C54.9459 54.7732 56.0113 54.6375 56.9751 54.7923C56.9621 56.2485 56.9081 57.7255 56.8555 59.1549C56.7603 61.7432 56.6625 64.4179 56.8054 67.0666C56.7664 67.0952 56.7387 67.139 56.7328 67.1909C56.7218 67.2875 56.7897 67.3745 56.8852 67.3888C56.8251 67.8613 56.869 68.345 56.9117 68.8137C56.9406 69.1317 56.9706 69.4605 56.9659 69.7748C56.9657 69.789 56.9672 69.8032 56.9703 69.817C57.0522 70.1803 57.0541 70.5781 57.0561 70.9992C57.0584 71.4936 57.0616 71.9998 57.2038 72.4564C56.6332 72.5047 56.0744 72.5289 55.5415 72.5287C55.5343 72.3556 55.498 72.1774 55.4186 71.993C54.4801 68.8468 53.8137 65.7365 53.438 62.7485ZM61.6741 75.3635C61.6778 75.389 61.6883 75.4623 61.5627 75.577C59.4362 75.8009 57.1825 75.2289 55.3686 74.7686C55.364 74.7674 55.3594 74.7664 55.3547 74.7657C55.2913 74.7548 55.2492 74.7213 55.2178 74.6572C55.1192 74.4552 55.1746 74.0472 55.2896 73.79C55.7797 74.063 56.6607 74.5046 57.6267 74.7548C58.0938 74.8758 58.5184 74.9362 58.8993 74.9362C59.4746 74.9362 59.95 74.7983 60.3196 74.5229C60.3422 74.5061 60.3591 74.4848 60.3712 74.4614C61.0389 74.7648 61.6354 75.0937 61.6741 75.3635ZM59.4326 74.0593C59.6147 74.1349 59.81 74.2161 60.0067 74.3007C58.8367 75.0319 56.6162 74.1347 55.3662 73.4198C55.4302 73.248 55.486 73.0714 55.5171 72.889C55.5287 72.889 55.5404 72.889 55.552 72.889C56.1238 72.889 56.7234 72.8614 57.3352 72.8068C57.3394 72.8064 57.3433 72.8051 57.3474 72.8044C57.3786 72.8636 57.4123 72.9218 57.4507 72.9783C57.6946 73.3372 58.5 73.6718 59.4326 74.0593ZM65.233 68.4555C62.5885 67.9261 59.8566 67.3798 57.1657 67.0603C57.0227 64.4235 57.1204 61.7527 57.2154 59.1681C57.2471 58.3066 57.2792 57.4278 57.3028 56.5461C57.3185 56.54 57.3338 56.5321 57.3478 56.5212C57.8194 56.1572 57.975 55.2431 57.8376 53.6445C57.7208 52.2867 57.4054 50.5657 57.1004 48.9013C56.5857 46.092 56.0543 43.1901 56.4303 41.8868C56.8042 42.2369 57.1613 42.5859 57.4933 42.9443C56.9878 43.7808 56.9968 44.6554 57.5248 45.3062C57.9175 45.7902 58.5111 46.0507 59.1422 46.0507C59.4229 46.0507 59.7109 45.9985 59.992 45.8921C60.7004 46.4035 61.3108 47.0526 61.9012 47.6812L61.915 47.6959C62.06 47.8769 62.1015 48.1211 62.1454 48.3794C62.2157 48.7926 62.2953 49.2608 62.84 49.4858C62.843 49.487 62.8461 49.4882 62.8491 49.4892C62.9353 49.5195 63.0249 49.5882 63.1115 49.6546C63.288 49.7899 63.5687 50.005 63.8837 49.7799C65.7853 51.5175 67.064 53.7928 68.3014 55.9946C68.8964 57.0533 69.5115 58.148 70.1896 59.1729C71.7067 61.651 73.2183 63.6293 74.8102 65.2206C76.783 67.1925 78.8492 68.5557 81.1262 69.3874C81.4823 69.6024 81.8088 69.7469 82.1057 69.8537C76.4463 70.7005 70.7488 69.5598 65.233 68.4555ZM82.9517 69.7323C82.5049 69.6137 81.9489 69.4661 81.2979 69.0706C81.2878 69.0644 81.2771 69.0593 81.266 69.0552C77.2237 67.5839 73.8011 64.3833 70.4951 58.9824C70.4941 58.9806 70.4929 58.9789 70.4917 58.9771C69.8202 57.9622 69.2076 56.8724 68.6153 55.8184C67.3729 53.6075 66.0891 51.3237 64.1682 49.5528C64.326 49.3446 64.4523 49.1447 64.5509 48.952C66.8558 51.1501 68.5057 54.0008 70.1014 56.7595C72.2503 60.4743 74.4724 64.3156 78.3335 66.6703C80.3997 67.9159 82.5993 68.7529 84.8711 69.1581C84.8812 69.1599 84.8914 69.1609 84.9016 69.161C84.9765 69.1614 85.0878 69.2429 85.1005 69.4225C85.153 70.1587 85.1581 70.8768 85.1158 71.5567C85.1105 71.6421 85.0964 71.869 85.0642 71.902C85.0318 71.9272 84.8453 71.9234 84.6807 71.92C84.6138 71.9187 84.5392 71.9171 84.4563 71.9164C84.216 71.9144 84.1511 71.8988 84.1464 71.538C84.3131 70.16 83.8506 69.9709 82.9517 69.7323ZM95.3804 73.4391C95.351 73.6161 94.6254 74.0356 92.0907 74.3567C90.3303 74.5796 88.3541 74.6596 87.4937 74.5422C87.4816 74.5407 87.4693 74.5401 87.4571 74.5411C86.4629 74.6092 84.699 74.4676 83.1675 74.1968C80.9911 73.812 80.4819 73.4018 80.4693 73.2763C80.465 73.233 80.5734 73.0805 81.1197 72.8974C81.6813 72.7093 82.5626 72.5337 83.7387 72.3753C83.7234 72.5802 83.7648 72.762 83.8634 72.9185C84.2045 73.4599 85.1244 73.5389 85.8636 73.6024C86.0568 73.6189 86.2393 73.6346 86.3832 73.657C86.3939 73.6586 86.4046 73.6592 86.4155 73.659C86.6465 73.6529 87.0435 73.6764 87.5031 73.7037C88.1134 73.7398 88.8422 73.783 89.5552 73.783C90.7182 73.783 91.8391 73.6682 92.3343 73.2208C92.5134 73.0591 92.6089 72.8621 92.6183 72.6353C92.6185 72.6331 92.6185 72.6309 92.6185 72.6288C92.6189 72.5712 92.6191 72.5135 92.6193 72.4559C95.4169 73.0155 95.3833 73.4219 95.3804 73.4391Z" fill="black"/>
<path d="M45.2433 41.8319C45.2347 41.7329 45.1475 41.6596 45.0483 41.6682C44.9492 41.6767 44.8759 41.764 44.8845 41.863C45.1448 44.8606 45.6375 47.5375 46.3912 50.0484C46.8606 51.5602 47.3165 52.7092 47.8695 53.774C47.9016 53.8357 47.9644 53.8711 48.0295 53.8711C48.0575 53.8711 48.0858 53.8645 48.1123 53.8508C48.2006 53.805 48.235 53.6963 48.1892 53.6081C47.6464 52.563 47.1979 51.4322 46.7356 49.9433C45.9896 47.4579 45.5015 44.8046 45.2433 41.8319Z" fill="black"/>
<path d="M129.03 71.1851C125.668 71.1524 122.25 71.0477 118.945 70.9465C118.455 70.9315 117.964 70.9165 117.474 70.9017C117.475 66.5256 117.474 62.1093 117.474 57.8209L117.473 54.8829C117.519 54.4949 117.53 54.0682 117.276 53.8276C117.107 53.6676 116.854 53.6154 116.503 53.6679C116.483 53.6529 116.459 53.6417 116.432 53.6365C115.514 53.4578 114.582 53.3279 113.643 53.2341C113.643 53.2287 113.643 53.2234 113.643 53.218C113.55 52.5613 113.602 51.844 113.658 51.0844C113.752 49.7849 113.85 48.4411 113.163 47.4048C113.159 47.3987 113.155 47.3928 113.15 47.3872C112.97 47.1766 112.737 46.9809 112.513 46.7916C112.051 46.4022 111.573 45.9996 111.525 45.4575C111.526 44.1256 111.526 42.8036 111.526 41.476L111.526 40.008C111.526 39.9525 111.5 39.9001 111.456 39.866C111.412 39.8319 111.355 39.8199 111.302 39.8334C111.166 39.8674 110.944 39.845 110.728 39.8234C110.275 39.7777 109.654 39.7153 109.582 40.2699C109.581 40.2769 109.581 40.284 109.581 40.2911C109.579 40.4685 109.577 40.6461 109.574 40.8236C109.565 41.506 109.555 42.2116 109.584 42.9052C109.595 43.2139 109.607 43.4933 109.619 43.7398C109.716 45.8698 109.72 45.953 107.535 47.4754C107.521 47.485 107.508 47.4965 107.498 47.5096C106.701 48.4905 106.796 49.8436 106.887 51.1522C106.934 51.8193 106.978 52.4521 106.91 53.0259C106.21 53.0356 105.513 53.0498 104.819 53.064C103.671 53.0875 102.501 53.1114 101.333 53.1136C101.037 51.9831 101.083 50.765 101.128 49.587C101.156 48.8465 101.185 48.0809 101.131 47.3357C101.135 47.2319 101.138 47.1299 101.14 47.0295H102.217C102.272 47.3763 102.235 47.9949 102.195 48.6479C102.099 50.2274 102 51.8606 102.87 52.0693C102.899 52.0762 102.929 52.0759 102.958 52.0682C103.164 52.0134 103.625 52.0533 104.072 52.0918C104.421 52.1219 104.776 52.1525 105.095 52.1525C105.533 52.1525 105.906 52.0951 106.111 51.9006C106.223 51.7941 106.279 51.6522 106.275 51.4898L106.277 51.2693C106.289 49.8034 106.301 48.2879 106.301 46.8259C106.446 45.7946 106.349 45.2872 105.388 44.8247C105.385 44.8229 105.381 44.8213 105.377 44.8197C104.824 44.5993 104.723 44.1157 104.607 43.5559C104.586 43.4577 104.565 43.357 104.541 43.2566C104.579 43.2325 104.609 43.2056 104.626 43.1885C104.722 43.0925 104.772 42.969 104.764 42.8495C104.762 42.8192 104.752 42.7899 104.736 42.7644C104.562 42.4946 104.326 42.3349 104.032 42.2896C103.344 42.1833 102.568 42.7547 102.267 43.0052C102.243 43.0248 102.226 43.049 102.215 43.0754C102.062 43.097 101.909 43.1287 101.758 43.1752C101.663 43.2046 101.61 43.3053 101.639 43.4003C101.663 43.4776 101.734 43.5273 101.811 43.5273C101.829 43.5273 101.847 43.5247 101.865 43.5192C102.208 43.4134 102.564 43.3938 102.938 43.3903C102.998 44.0946 102.769 44.4587 102.126 44.6814C100.829 45.0153 100.807 45.948 100.782 46.9354C100.779 47.064 100.776 47.197 100.77 47.3301C100.77 47.3373 100.77 47.3444 100.77 47.3516C100.825 48.0801 100.796 48.8393 100.768 49.5733C100.723 50.7467 100.678 51.9587 100.963 53.1135C100.129 53.1116 99.2977 53.0977 98.4781 53.0632C98.4119 53.0601 98.3542 53.0927 98.3208 53.1433C98.3176 53.1412 98.315 53.1387 98.3117 53.1368C98.0407 52.9836 97.7631 53.0496 97.5183 53.1078C97.35 53.1479 97.191 53.1856 97.0703 53.1427C96.8969 53.0792 96.7584 53.0798 96.6468 53.1441C96.4808 53.2398 96.4466 53.4358 96.4216 53.5789C96.4192 53.5923 96.4184 53.6059 96.4191 53.6194C96.5317 55.7543 96.4642 58.0013 96.3989 60.1744C96.2985 63.5165 96.1946 66.9724 96.7381 70.1408C96.7463 70.1887 96.7735 70.2313 96.8137 70.2588C96.9249 70.335 97.0374 70.4121 97.1506 70.4896C97.1421 70.5589 97.1304 70.6393 97.1175 70.7273C97.0227 71.3754 96.8928 72.2629 97.351 72.5719C97.3795 72.5911 97.4128 72.6018 97.447 72.6027C97.5785 72.6061 97.6943 72.6105 97.7965 72.6144C97.9316 72.6194 98.0451 72.6237 98.1423 72.6237C98.3503 72.6237 98.483 72.6041 98.5889 72.5311C98.761 72.4124 98.7872 72.2092 98.8304 71.8723C98.8395 71.8016 98.85 71.7204 98.8629 71.6299C99.8282 72.2462 100.838 72.8317 101.861 73.2808C101.883 73.2906 101.906 73.2951 101.929 73.2956C101.982 73.8499 102.045 74.3966 102.121 74.9334C102.132 75.0113 102.193 75.073 102.271 75.0857C102.449 75.1149 102.605 75.1297 102.742 75.1297C103.022 75.1297 103.222 75.0681 103.368 74.9414C103.648 74.6976 103.637 74.2797 103.625 73.7959C103.621 73.6573 103.618 73.5144 103.62 73.3655C104.203 73.3602 104.784 73.3543 105.355 73.3485C108.611 73.3156 111.964 73.2817 115.273 73.3619L115.27 73.3975C115.214 74.0912 115.176 74.5496 115.461 74.8187C115.611 74.9607 115.825 75.0282 116.155 75.0282C116.311 75.0282 116.491 75.0133 116.703 74.9842C116.774 74.9744 116.832 74.9234 116.852 74.8544C116.922 74.6024 116.914 74.3448 116.906 74.0956C116.899 73.8592 116.892 73.6344 116.949 73.4226C117.054 73.4179 117.151 73.3841 117.233 73.3217C117.388 73.2036 117.473 73.0006 117.474 72.7495C117.474 72.2543 117.474 71.7582 117.474 71.2616C117.961 71.2763 118.447 71.2912 118.934 71.3061C122.241 71.4074 125.661 71.5121 129.027 71.5449C129.028 71.5449 129.028 71.5449 129.029 71.5449C129.127 71.5449 129.208 71.4654 129.209 71.3667C129.21 71.2674 129.13 71.186 129.03 71.1851ZM107.762 47.7559C108.906 46.9583 109.478 46.5212 109.764 45.9865C110.057 45.4395 110.029 44.8299 109.979 43.7233C109.967 43.4778 109.955 43.1995 109.944 42.8916C109.916 42.2066 109.925 41.506 109.934 40.8285C109.937 40.6546 109.939 40.4807 109.941 40.3069C109.97 40.1372 110.189 40.1309 110.692 40.1816C110.859 40.1984 111.02 40.2144 111.166 40.2105L111.166 41.4761C111.166 42.8061 111.166 44.1305 111.165 45.4649C111.165 45.4698 111.165 45.4747 111.166 45.4795C111.222 46.1748 111.785 46.6487 112.281 47.0668C112.501 47.2523 112.709 47.4277 112.87 47.6129C113.039 47.8719 113.155 48.1576 113.231 48.4613H107.384C107.471 48.2065 107.593 47.9691 107.762 47.7559ZM107.247 51.1271C107.191 50.3364 107.135 49.5287 107.285 48.8213H113.303C113.41 49.523 113.354 50.2984 113.298 51.0582C113.246 51.7787 113.192 52.5228 113.277 53.1994C111.292 53.0213 109.275 52.9989 107.273 53.0214C107.337 52.4226 107.291 51.7652 107.247 51.1271ZM105.915 51.4983C105.918 51.577 105.888 51.6152 105.863 51.6397C105.626 51.8646 104.746 51.7886 104.103 51.7332C103.614 51.691 103.189 51.6542 102.918 51.7083C102.383 51.509 102.482 49.872 102.555 48.6697C102.595 48.0033 102.631 47.4182 102.581 47.0295H105.941C105.94 48.427 105.928 49.869 105.916 51.2663L105.915 51.4905C105.915 51.4931 105.915 51.4957 105.915 51.4983ZM103.855 42.6364C103.897 42.6364 103.937 42.6393 103.978 42.6455C104.147 42.6716 104.284 42.7563 104.395 42.9039C104.384 42.9226 104.365 42.9418 104.35 42.9518C104.348 42.9522 104.346 42.9526 104.343 42.9531C103.968 43.0298 103.576 43.0296 103.196 43.0297C103.075 43.0296 102.955 43.0296 102.833 43.032C103.115 42.8437 103.505 42.6364 103.855 42.6364ZM102.223 45.0285C102.227 45.0273 102.232 45.0259 102.237 45.0243C103.034 44.7503 103.364 44.2447 103.299 43.3896C103.593 43.3894 103.892 43.3842 104.192 43.343C104.214 43.438 104.234 43.5348 104.254 43.6293C104.374 44.2056 104.51 44.8586 105.238 45.1517C105.967 45.5039 106.068 45.8215 105.959 46.6695H101.15C101.179 45.8539 101.285 45.2673 102.223 45.0285ZM98.1344 53.4502C98.217 53.4968 98.3202 53.4707 98.3721 53.393C98.3984 53.4103 98.4292 53.4215 98.4629 53.4229C100.562 53.5115 102.73 53.467 104.827 53.4239C108.664 53.3453 112.631 53.2639 116.363 53.9898C116.402 54.0237 116.456 54.0409 116.511 54.0312C116.766 53.9862 116.94 54.0057 117.028 54.0891C117.058 54.1167 117.079 54.1542 117.096 54.198C114.73 54.0364 112.285 54.1049 109.919 54.1716C107.353 54.2441 104.733 54.3179 102.156 54.0994C102.156 54.0829 102.155 54.0662 102.154 54.0497C102.15 53.9504 102.068 53.8728 101.967 53.8778C101.867 53.8821 101.79 53.9662 101.795 54.0655C101.795 54.0659 101.795 54.0663 101.795 54.0667C100.474 53.9401 99.1662 53.7328 97.8848 53.4049C97.9756 53.3978 98.0589 53.4076 98.1344 53.4502ZM96.8251 53.4569C96.8254 53.4569 96.8569 53.4481 96.948 53.4815C97.0702 53.5249 97.1943 53.528 97.3148 53.5141C97.3251 53.5824 97.3741 53.6416 97.4451 53.6611C98.8749 54.0529 100.335 54.2909 101.809 54.4299C101.884 56.4345 101.862 58.531 101.818 60.6088C101.165 60.3409 100.508 60.0531 99.8716 59.7737C98.8745 59.3361 97.8437 58.884 96.8066 58.5002C96.8471 56.8651 96.8631 55.2146 96.7799 53.6211C96.7894 53.5682 96.8075 53.475 96.8251 53.4569ZM98.4732 71.8266C98.4469 72.031 98.4243 72.2074 98.3843 72.2349C98.3275 72.2741 98.0991 72.2656 97.81 72.2547C97.7229 72.2515 97.626 72.2478 97.5182 72.2446C97.2936 72.0119 97.4144 71.186 97.4739 70.7795C97.4771 70.758 97.4801 70.737 97.4831 70.7164C97.8246 70.9486 98.1744 71.1834 98.531 71.4158C98.5054 71.577 98.4876 71.7146 98.4732 71.8266ZM97.0804 70.0052C96.5573 66.8925 96.6598 63.4833 96.7589 60.1853C96.772 59.7531 96.785 59.3179 96.7967 58.8812C97.7853 59.252 98.7716 59.6841 99.7268 60.1033C100.399 60.3981 101.093 60.703 101.784 60.9844C101.793 60.9878 101.801 60.99 101.81 60.9921C101.8 61.4694 101.788 61.9454 101.777 62.4186C101.693 65.9363 101.606 69.553 101.893 72.9002C100.209 72.1436 98.5516 71.0138 97.0804 70.0052ZM103.265 73.8052C103.275 74.2144 103.283 74.5376 103.131 74.6702C103.022 74.7655 102.796 74.7921 102.459 74.7497C102.397 74.2986 102.344 73.8403 102.299 73.3763C102.618 73.3741 102.939 73.3716 103.26 73.3688C103.258 73.5233 103.261 73.6718 103.265 73.8052ZM116.53 74.6434C116.087 74.6948 115.824 74.667 115.708 74.5574C115.549 74.4069 115.583 73.9958 115.629 73.4269L115.634 73.3715C115.951 73.38 116.268 73.3895 116.584 73.4003C116.532 73.6391 116.539 73.8762 116.546 74.107C116.552 74.2957 116.558 74.4758 116.53 74.6434ZM117.114 72.7492C117.113 72.8814 117.076 72.9886 117.014 73.0358C117 73.047 116.955 73.0809 116.855 73.0538C116.842 73.0503 116.828 73.0483 116.815 73.0478C113.005 72.9111 109.114 72.9505 105.351 72.9887C104.339 72.9989 103.295 73.0095 102.265 73.0165C101.964 69.6478 102.052 65.9866 102.137 62.4272C102.2 59.7806 102.266 57.0486 102.171 54.4622C103.45 54.569 104.739 54.6048 106.025 54.6048C107.332 54.6048 108.638 54.568 109.93 54.5315C112.309 54.4644 114.769 54.3951 117.138 54.5616C117.135 54.6611 117.125 54.7618 117.114 54.8507C117.114 54.8578 117.113 54.865 117.113 54.8722L117.114 57.8209C117.114 62.7139 117.115 67.7734 117.114 72.7492Z" fill="black"/>
<path d="M48.2484 40.1491C48.1914 40.2305 48.2112 40.3428 48.2927 40.3998C50.2429 41.7643 52.777 42.3059 54.114 42.5072C54.1231 42.5086 54.1321 42.5093 54.1411 42.5093C54.2287 42.5093 54.3055 42.4453 54.3189 42.3561C54.3338 42.2577 54.266 42.1661 54.1677 42.1512C51.9458 41.8166 49.8797 41.0707 48.4993 40.1049C48.4177 40.0478 48.3054 40.0677 48.2484 40.1491Z" fill="black"/>
<path d="M98.1449 61.4114C98.0455 61.4114 97.9648 61.492 97.9648 61.5914V66.5597C97.9648 66.6591 98.0455 66.7397 98.1449 66.7397C98.2444 66.7397 98.325 66.6591 98.325 66.5597V61.5914C98.325 61.492 98.2444 61.4114 98.1449 61.4114Z" fill="black"/>
<path d="M99.8851 62.6336C99.7859 62.64 99.7107 62.7257 99.7172 62.8249C99.7942 64.0019 99.7942 65.1997 99.7172 66.3851C99.7107 66.4844 99.7859 66.57 99.8852 66.5764C99.8892 66.5767 99.8931 66.5768 99.8971 66.5768C99.9912 66.5768 100.07 66.5037 100.077 66.4085C100.155 65.2076 100.155 63.994 100.077 62.8015C100.07 62.7022 99.9832 62.627 99.8851 62.6336Z" fill="black"/>
<path d="M98.6065 56.7195C98.8989 56.765 99.2366 56.8242 99.5425 56.9521C99.5652 56.9616 99.5888 56.9661 99.6119 56.9661C99.6824 56.9661 99.7493 56.9245 99.7782 56.8555C99.8166 56.7638 99.7732 56.6583 99.6815 56.62C99.3383 56.4765 98.9752 56.4126 98.6619 56.3639C98.5635 56.3483 98.4715 56.4159 98.4563 56.5141C98.4409 56.6123 98.5082 56.7043 98.6065 56.7195Z" fill="black"/>
</svg>
