<svg width="64" height="90" viewBox="0 0 64 90" fill="none" xmlns="http://www.w3.org/2000/svg">
<path d="M59.277 34.6534H52.4006C51.712 34.6534 51.1514 34.0927 51.1514 33.4041V25.5365C51.1514 24.2117 52.2297 23.1333 53.5545 23.1333H58.1232C59.4485 23.1333 60.5269 24.2117 60.5269 25.5365V33.4041C60.5269 34.0933 59.9662 34.6534 59.277 34.6534ZM53.5545 23.6019C52.4877 23.6019 51.62 24.4697 51.62 25.5365V33.4041C51.62 33.8347 51.9701 34.1848 52.4006 34.1848H59.2776C59.7082 34.1848 60.0583 33.8347 60.0583 33.4041V25.5365C60.0583 24.4697 59.1899 23.6019 58.1232 23.6019H53.5545Z" fill="#6097B2"/>
<path d="M59.5702 26.7388C59.1016 29.7754 56.6836 31.9266 54.1768 31.5374C54.0037 31.5093 53.835 31.4718 53.6751 31.4249C51.4489 30.7689 50.0431 28.1634 50.4842 25.333C50.8447 22.9949 52.3586 21.1811 54.1862 20.6519C54.7298 20.4925 55.3015 20.4501 55.8776 20.5394C58.3893 20.9281 60.0388 23.7028 59.5702 26.7388Z" fill="#CFD8DC"/>
<path d="M57.3825 26.7389C57.022 29.0775 55.5037 30.8952 53.6761 31.425C51.4499 30.7689 50.0441 28.1634 50.4851 25.333C50.8457 22.995 52.3596 21.1812 54.1871 20.6519C56.4172 21.308 57.823 23.9085 57.3825 26.7389Z" fill="#BCCACE"/>
<path d="M56.3757 26.7394C55.9071 29.776 53.4891 31.9272 50.9823 31.538C50.8092 31.5099 50.6405 31.4724 50.4806 31.4255C48.255 30.7695 46.8491 28.164 47.2896 25.3336C47.6502 22.9949 49.1641 21.1817 50.9916 20.6519C51.5352 20.4926 52.1069 20.4501 52.683 20.5394C55.1948 20.9287 56.8443 23.7028 56.3757 26.7394Z" fill="#CFD8DC"/>
<path d="M54.1876 26.7394C53.8265 29.0781 52.3082 30.8957 50.4806 31.4255C48.255 30.7695 46.8491 28.164 47.2896 25.3336C47.6502 22.995 49.1641 21.1817 50.9916 20.6519C53.2222 21.308 54.6281 23.909 54.1876 26.7394Z" fill="#BCCACE"/>
<path d="M53.1809 26.7394C52.7123 29.7759 50.2943 31.9271 47.787 31.5379C47.6139 31.5098 47.4452 31.4723 47.2853 31.4254C45.0597 30.7694 43.6538 28.1639 44.0943 25.3335C44.4554 22.9954 45.9688 21.1816 47.7963 20.6524C48.3399 20.4931 48.9116 20.4506 49.4877 20.5399C52 20.9286 53.6495 23.7028 53.1809 26.7394Z" fill="#CFD8DC"/>
<path d="M50.9923 26.7394C50.6317 29.078 49.1134 30.8957 47.2853 31.4255C45.0597 30.7694 43.6538 28.1639 44.0943 25.3335C44.4554 22.9954 45.9688 21.1817 47.7963 20.6524C50.0269 21.3085 51.4328 23.909 50.9923 26.7394Z" fill="#BCCACE"/>
<path d="M49.9876 26.74C49.519 29.7766 47.1009 31.9277 44.5936 31.5385C44.4205 31.5104 44.2518 31.4729 44.0919 31.4261C41.8663 30.77 40.4605 28.1645 40.901 25.3341C41.2615 22.9955 42.7754 21.1823 44.603 20.6525C45.1466 20.4931 45.7183 20.4507 46.2949 20.54C48.8067 20.9292 50.4562 23.7034 49.9876 26.74Z" fill="#CFD8DC"/>
<path d="M47.7993 26.7399C47.4388 29.0785 45.9205 30.8968 44.0929 31.426C41.8673 30.77 40.4615 28.1645 40.9019 25.3341C41.2625 22.9954 42.7764 21.1822 44.604 20.6524C46.834 21.3085 48.2398 23.9095 47.7993 26.7399Z" fill="#BCCACE"/>
<path d="M46.7932 26.7401C46.3246 29.7766 43.9066 31.9278 41.3993 31.5386C41.2262 31.5105 41.0575 31.473 40.8981 31.4261C38.672 30.7701 37.2661 28.1646 37.7066 25.3342C38.0677 22.9956 39.5811 21.1823 41.4086 20.6525C41.9522 20.4932 42.5239 20.4513 43.1 20.5401C45.6123 20.9293 47.2618 23.7035 46.7932 26.7401Z" fill="#CFD8DC"/>
<path d="M44.2727 34.6534H37.3957C36.7072 34.6534 36.1465 34.0927 36.1465 33.4041V25.5364C36.1465 24.2117 37.2248 23.1333 38.5496 23.1333H43.1188C44.4436 23.1333 45.522 24.2117 45.522 25.5364V33.4041C45.522 34.0932 44.9613 34.6534 44.2727 34.6534ZM38.5502 23.6019C37.4834 23.6019 36.6157 24.4697 36.6157 25.5364V33.4041C36.6157 33.8347 36.9657 34.1848 37.3963 34.1848H44.2733C44.7038 34.1848 45.0539 33.8347 45.0539 33.4041V25.5364C45.0539 24.4697 44.1862 23.6019 43.1194 23.6019H38.5502Z" fill="#6097B2"/>
<path d="M60.2926 29.7545H36.3809V30.2231H60.2926V29.7545Z" fill="#6097B2"/>
<path d="M56.7639 32.6251H39.7396C38.7484 32.6251 37.9424 31.8186 37.9424 30.8279V29.9893H38.411V30.8279C38.411 31.5605 39.0075 32.1565 39.7396 32.1565H56.7639C57.4966 32.1565 58.0926 31.5605 58.0926 30.8279V29.9893H58.5612V30.8279C58.5612 31.8186 57.7546 32.6251 56.7639 32.6251Z" fill="#6097B2"/>
<path d="M13.0552 13.3725C15.3701 13.8786 19.978 24.0319 21.3838 25.4378C22.7896 26.8436 21.6231 29.6128 19.6654 28.9683C17.7077 28.3233 12.2988 18.0183 12.2988 18.0183L13.0552 13.3725Z" fill="#EF6E4B"/>
<path d="M23.5512 33.5663C26.6246 33.5663 29.1161 31.5075 29.1161 28.9678C29.1161 26.4282 26.6246 24.3694 23.5512 24.3694C20.4778 24.3694 17.9863 26.4282 17.9863 28.9678C17.9863 31.5075 20.4778 33.5663 23.5512 33.5663Z" fill="#CFD8DC"/>
<path d="M23.4455 23.3676C23.4455 23.3676 23.4455 25.5933 23.4455 26.5696C23.4455 27.546 23.1025 28.1706 23.1025 28.1706L25.2763 28.4253C25.2763 28.4253 24.6258 27.4286 24.6258 26.3739C24.6258 25.3193 24.6258 23.3671 24.6258 23.3671L23.4455 23.3676Z" fill="#8BBDDB"/>
<path d="M19.5074 71.3896C22.3411 76.8558 23.9713 83.6368 24.446 85.6237C24.4383 85.7919 24.3991 85.9325 24.3517 86.0946C24.1819 86.6762 24.7338 87.6867 24.6031 88.2121C24.5899 88.2684 25.9703 88.6102 25.4665 88.6102H28.5521C27.9115 87.7435 27.2643 86.7043 27.063 86.0416C25.2266 79.9905 22.141 65.5518 21.7975 63.4911C21.4541 61.4308 21.1795 51.1076 19.127 42.692C17.0745 34.2763 12.0918 47.8086 12.0918 47.8086C12.0918 47.8086 15.64 57.5386 16.0854 61.4303C16.5315 65.3225 17.257 67.0481 19.5074 71.3896Z" fill="#EF6E4B"/>
<path d="M5.69335 70.4734C6.60631 73.3352 8.63401 85.4688 8.63401 85.4688V88.6102H11.5973C11.2064 86.7936 10.6887 84.1408 10.6887 82.8358C10.6887 73.7928 9.44112 63.0109 9.62636 58.9114C9.80774 54.9051 11.1529 47.0065 11.1529 47.0065L3.4964 45.4039C2.94675 53.9822 4.57255 56.1108 5.20434 59.6391C5.68178 62.3085 4.32226 66.1754 5.69335 70.4734Z" fill="#FF8B66"/>
<path d="M26.0926 82.5431C24.3014 75.6518 22.0846 65.2189 21.7969 63.4911C21.6105 62.3747 21.444 58.8303 21.0046 54.4794C20.89 49.5182 20.3183 38.1746 17.5314 31.7354L10.9714 31.8886C11.2372 37.002 6.27873 42.5205 12.3155 48.4344C13.1017 50.6429 15.7066 58.1318 16.0848 61.4303C16.5308 65.3225 17.2563 67.0475 19.5073 71.3891C21.4556 75.1468 22.835 79.5269 23.6608 82.5425H26.0926V82.5431Z" fill="#EF6E4B"/>
<path d="M3.85876 54.1707C4.27941 56.3495 4.87537 57.8066 5.2034 59.6397C5.68138 62.3085 4.32186 66.1754 5.69295 70.4733C6.34184 72.5077 7.55416 79.2259 8.20084 82.9417H10.69C10.6894 82.9064 10.6878 82.8694 10.6878 82.8364C10.6878 73.7933 9.44017 63.0114 9.62541 58.9119C9.7037 57.1841 9.99809 54.733 10.3079 52.503C10.3096 52.492 11.4927 44.8796 12.4266 44.3266C12.9895 43.9936 17.5317 31.7354 17.5317 31.7354L7.71293 32.1918C7.71293 32.1918 1.9937 36.9441 3.49545 45.4039C3.49545 45.4039 3.48939 45.4904 3.48167 45.6426C3.2424 49.6258 3.47781 52.1965 3.85876 54.1707Z" fill="#FF8B66"/>
<path d="M22.5206 58.4334C22.5206 58.4334 16.1546 63.0803 2.9145 58.4334C2.9145 58.4334 2.18678 48.0958 2.17465 47.7292C2.06935 44.5151 2.4255 41.838 2.9994 39.6471C4.52872 33.768 7.61603 31.3742 7.61603 31.3742C8.38069 31.6251 9.39619 31.7607 10.4916 31.8285C12.0849 31.9239 13.8414 31.8682 15.1998 31.7844C15.6458 31.7563 16.0482 31.7287 16.3906 31.7006C17.0957 31.6449 17.5379 31.5969 17.5379 31.5969C18.3825 33.2299 19.1791 36.9545 19.8043 40.5711C19.8363 40.7585 19.8682 40.9454 19.8997 41.129C20.3617 43.8613 20.72 46.4706 20.9152 47.9961C21.0309 48.8605 22.5206 58.4334 22.5206 58.4334Z" fill="#11393D"/>
<path d="M17.8767 25.1296L17.5349 31.5964C12.9894 33.5833 7.71782 32.0512 7.71782 32.0512C7.70845 31.9856 7.69907 31.92 7.6897 31.8594C7.36664 29.4226 6.12014 26.9247 5.34225 25.6969C5.24853 25.5519 5.15976 25.4207 5.08479 25.3126C3.78205 23.4801 1.71577 20.5378 1.08287 17.8948C0.745469 16.484 0.816036 15.1675 1.62645 14.141C1.90321 13.7898 2.23123 13.5368 2.58241 13.3631C3.32778 12.9838 4.19939 12.9414 5.06163 12.9788C6.04571 13.0207 7.02042 13.1619 7.77957 13.0257C10.1601 12.5946 13.0561 13.3725 13.0561 13.3725C13.5809 13.743 14.0589 14.1129 14.4945 14.4828C15.3098 15.1857 15.9753 15.8842 16.5045 16.5728C16.9356 17.1307 17.2824 17.6787 17.5592 18.2129C19.5356 22.0462 17.8767 25.1296 17.8767 25.1296Z" fill="#FFB878"/>
<path d="M16.3667 5.4734C16.3667 5.4734 15.3214 12.3553 9.71075 11.3012C7.52096 10.89 5.32291 8.3683 5.73087 5.84718C6.13939 3.32607 14.2579 2.10603 16.3667 5.4734Z" fill="#8B383E"/>
<path d="M10.2608 0.879883C10.2608 0.879883 16.3803 1.33305 15.877 5.56432C15.3736 9.79558 12.6689 13.1883 9.77788 11.9788C7.25236 10.9219 5.2015 1.25753 10.2608 0.879883Z" fill="#FF8B66"/>
<path d="M12.0143 6.69231C11.9283 6.9415 11.9867 7.18738 12.1444 7.24141C12.3021 7.29599 12.4995 7.13776 12.5855 6.88912C12.6715 6.63993 12.613 6.39405 12.4553 6.34002C12.2977 6.28544 12.1003 6.44312 12.0143 6.69231Z" fill="#1A4850"/>
<path d="M10.7385 7.3197C10.62 7.53581 10.7429 7.83187 11.0131 7.98017C11.2837 8.12847 11.5991 8.07389 11.7176 7.85723C11.8361 7.64112 11.7132 7.34506 11.4431 7.19676C11.1729 7.04846 10.8576 7.10359 10.7385 7.3197Z" fill="#ED7D66"/>
<path d="M11.8945 6.56825C11.8945 6.56825 12.2567 6.06436 12.4596 6.13382C12.6631 6.20384 12.8378 6.71379 12.8378 6.71379L13.3119 6.60188L12.9051 6.5925C12.9051 6.5925 12.781 6.0412 12.4701 6.01253C12.1586 5.98331 11.8945 6.56825 11.8945 6.56825Z" fill="#1A4850"/>
<path d="M14.4039 7.28496C14.3179 7.53415 14.3764 7.78003 14.5341 7.83406C14.6917 7.88864 14.8891 7.73042 14.9751 7.48178C15.0611 7.23259 15.0027 6.98671 14.845 6.93268C14.6873 6.8781 14.49 7.03632 14.4039 7.28496Z" fill="#1A4850"/>
<path d="M14.2842 7.16096C14.2842 7.16096 14.6464 6.65706 14.8493 6.72653C15.0527 6.79654 15.2275 7.3065 15.2275 7.3065L15.701 7.19458L15.2942 7.18521C15.2942 7.18521 15.1701 6.63391 14.8592 6.60524C14.5483 6.57657 14.2842 7.16096 14.2842 7.16096Z" fill="#1A4850"/>
<path d="M12.127 5.17791C12.1623 5.19004 12.2031 5.18618 12.2361 5.16358C12.6055 4.90832 13.0212 5.1305 13.0251 5.13271C13.0841 5.16523 13.1574 5.14318 13.1893 5.08474C13.2219 5.02631 13.2004 4.95298 13.1419 4.92045C13.1199 4.90832 12.5901 4.6244 12.0989 4.96456C12.0437 5.0026 12.0305 5.07813 12.0685 5.13271C12.0829 5.15421 12.1038 5.16964 12.127 5.17791Z" fill="#8B383E"/>
<path d="M14.8395 5.64149C14.8627 5.64976 14.8892 5.65086 14.9145 5.64314C15.3412 5.51303 15.6621 5.84051 15.6759 5.85484C15.7222 5.90336 15.7988 5.90446 15.8468 5.8587C15.8947 5.81295 15.8969 5.73686 15.8512 5.68835C15.8335 5.6696 15.4162 5.23848 14.8445 5.41214C14.7805 5.43144 14.7447 5.49925 14.764 5.5632C14.7756 5.60069 14.8043 5.62881 14.8395 5.64149Z" fill="#8B383E"/>
<path d="M13.9808 7.92169C13.9808 7.92169 14.9357 8.33187 14.7008 8.62957C14.4665 8.92727 13.7289 9.13346 13.7289 9.13346C13.7289 9.13346 13.5905 8.25137 13.9808 7.92169Z" fill="#DD774E"/>
<path d="M11.5836 3.71748C11.5836 3.71748 9.69927 4.76772 8.9109 6.82574C8.9109 6.82574 8.47317 5.34493 7.5999 6.10628C6.72719 6.86764 8.02606 9.05907 8.02606 9.05907C8.02606 9.05907 7.65172 9.45105 6.80161 9.13405C5.9515 8.81705 5.05067 5.26113 6.2073 3.87956C7.36339 2.49799 9.53222 1.55085 11.5836 3.71748Z" fill="#8B383E"/>
<path d="M8.44793 8.23924C8.39501 9.52047 9.16794 12.1033 11.0699 12.2555C11.0699 12.2555 10.5903 13.5957 11.2287 13.959C11.2287 13.959 11.3517 16.2607 6.11426 13.2539C6.11426 13.2539 7.13638 12.9308 7.48425 11.229C7.83378 9.51992 7.76597 8.19403 7.76597 8.19403C8.09234 8.68138 8.44793 8.23924 8.44793 8.23924Z" fill="#EF6E4B"/>
<path d="M13.6711 10.1093C13.6711 10.1093 12.9197 10.1424 12.1016 9.75095C12.1016 9.75095 12.257 9.99573 12.8183 10.2262C13.3795 10.4561 13.6711 10.1093 13.6711 10.1093Z" fill="#1A4850"/>
<path d="M13.3124 2.43679C13.3124 2.43679 11.5593 5.09684 9.41857 5.37029C7.27785 5.64429 5.73145 4.99099 5.73145 4.99099C5.73145 4.99099 6.03301 1.891 8.12411 0.879358C8.12411 0.879358 9.19088 -1.09652 13.313 0.879358C17.4351 2.85523 17.7835 4.88073 17.2857 6.95529C16.7879 9.0293 15.3225 10.9214 15.3225 10.9214C15.3225 10.9214 18.1027 4.65635 13.3124 2.43679Z" fill="#8B383E"/>
<path d="M8.62054 1.16769C8.62054 1.16769 6.70145 -0.0512504 4.3584 0.00167491C2.01536 0.0546002 2.77561 3.19539 3.24477 5.4618C3.71393 7.72822 1.88856 10.7185 2.74253 10.9219C3.5965 11.1254 5.52993 10.1225 5.06132 6.55338C4.59271 2.98368 5.77305 1.51942 7.14525 2.80782L8.62054 1.16769Z" fill="#8B383E"/>
<path d="M23.5753 89.9994C23.5753 89.9994 23.3278 86.6574 23.9806 85.7847C24.6333 84.912 26.4311 86.5951 26.4311 86.5951L28.0332 85.8657C28.0332 85.8657 27.9522 86.9116 29.2488 87.7666C30.5455 88.6217 31.599 88.3786 31.6801 89.9994H23.5753Z" fill="#CFD8DC"/>
<path d="M8.53322 86.5141C8.53322 86.5141 8.57402 85.4043 10.1138 85.5339C11.6536 85.6634 11.5433 86.7804 11.5433 86.7804C11.5433 86.7804 11.7754 86.6006 11.9778 86.7804C12.1801 86.9601 12.0086 88.5004 12.3984 88.8246C12.7882 89.1488 12.6664 90 12.6664 90H8.16771C8.16771 90 7.92458 88.9056 8.37058 88.5004C8.81714 88.0947 7.68201 86.6359 8.53322 86.5141Z" fill="#CFD8DC"/>
<path d="M17.7003 29.8113L17.6308 29.7881L17.8773 25.1296C17.8773 25.1296 19.5362 22.0461 17.5586 18.2129C16.3777 17.0601 15.1638 16.4278 15.1638 16.4278C12.8538 13.1288 11.0632 13.2694 11.0632 13.2694C12.8863 13.8366 14.7371 16.4559 14.7371 16.4559C12.7452 17.2057 7.45487 16.339 7.45487 16.339C6.11464 13.2931 5.06055 12.9788 5.06055 12.9788C6.42392 14.4971 6.57884 16.2966 6.57884 16.2966C6.94435 20.6359 6.22711 23.9674 5.34171 25.6969C5.34171 25.6969 6.87765 29.9452 5.65706 33.6268C5.65706 33.6268 8.68703 48.087 8.67049 57.9278C8.67049 57.9278 17.0977 59.9439 22.5209 57.1394C22.5209 57.1394 19.7964 34.966 17.7003 29.8113Z" fill="#F24052"/>
<path d="M2.15718 13.9177C-1.30447 15.0501 4.95174 29.7545 6.55548 29.841C6.55548 29.841 8.78882 27.8723 8.1052 26.1264C7.42159 24.3804 5.76988 16.6257 5.76988 16.6257C5.76988 16.6257 4.10714 13.2793 2.15718 13.9177Z" fill="#FF8B66"/>
<path d="M8.02603 25.9119C8.02603 25.9119 6.26516 27.2841 6.5546 29.841C6.5546 29.841 15.4901 31.141 19.7043 30.9139L20.1371 29.7187C20.1371 29.7187 10.7688 27.2571 8.02603 25.9119Z" fill="#FF8B66"/>
<path d="M21.5595 29.0637L22.0027 27.6243L25.4258 28.0151L24.7229 30.6702L21.3252 30.1123L21.5595 29.0637Z" fill="#FFB878"/>
<path d="M19.2779 29.4882C19.9781 29.4987 20.681 28.7175 21.1104 28.6789C21.5399 28.6398 22.5207 28.1711 22.5207 28.1711C22.5207 28.1711 22.7114 28.4446 22.3597 28.6398C22.0085 28.8349 21.4225 29.556 21.6176 29.4882C21.8128 29.4204 23.4138 29.604 23.8047 29.4926C24.195 29.3813 23.9998 29.8929 23.8047 29.9882C23.6095 30.0842 22.9904 32.6748 19.2773 30.9304V29.4882H19.2779Z" fill="#FF8B66"/>
<path d="M22.0027 29.6552C22.0027 29.6552 22.2816 28.9805 22.8285 29.0637C23.3754 29.1475 23.0628 29.1789 23.8049 28.9678C24.5469 28.7566 24.9764 28.5383 24.8981 29.3112C24.8198 30.0842 24.4295 30.507 24.6247 30.9398C24.8198 31.3726 24.6638 31.3952 24.1561 31.7353C23.6483 32.0755 23.8076 32.7007 23.4548 32.8175C23.102 32.9344 22.7436 33.2101 22.7111 33.3589C22.6786 33.5078 25.9528 33.6892 27.18 32.4509C27.18 32.4509 27.0691 33.5497 26.46 33.3589C25.8508 33.1682 24.9372 33.8777 24.9372 34.3237C24.9372 34.7697 24.5293 34.9649 24.0304 34.8871C23.5314 34.8089 23.0628 34.923 22.9459 35.8034C22.8291 36.6838 22.6819 34.5029 22.5209 34.3243C22.3599 34.1456 21.1498 34.1186 20.8372 33.5657C20.5246 33.0127 20.6878 33.2861 20.1376 33.0518C19.5874 32.8175 19.5234 32.1372 19.5234 32.1372C19.5234 32.1372 20.4463 32.7045 20.9541 32.3897C21.4618 32.0749 20.1376 31.2766 20.1376 31.2766C20.1376 31.2766 21.4166 31.6455 21.6542 31.216C21.8913 30.7876 22.0027 29.6552 22.0027 29.6552Z" fill="#8BBDDB"/>
<path d="M27.0009 20.0096V18.0178H23.5508V18.4472L26.2654 18.6815V20.0096H27.0009Z" fill="#8BBDDB"/>
<path d="M35.2085 34.8391H34.037V22.5671C34.037 21.4799 33.1527 20.5951 32.065 20.5951H26.0855C25.2762 20.5951 24.6168 21.2539 24.6168 22.0638V23.3676H23.4453V22.0638C23.4453 20.6078 24.6295 19.4236 26.0855 19.4236H32.065C33.7983 19.4236 35.2085 20.8338 35.2085 22.5671V34.8391Z" fill="#6097B2"/>
<path d="M44.6661 35.2797V37.932C44.6661 40.9967 42.1825 43.4804 39.1178 43.4804H14.1811C11.1164 43.4804 8.63281 40.9967 8.63281 37.932V34.8392L21.8426 35.0641L44.6661 35.2797Z" fill="#662C33"/>
<path d="M63.1071 33.8738H7.72852V35.8045H63.1071V33.8738Z" fill="#BCCACE"/>
<path d="M21.843 33.8738H7.72852V35.8045H21.843V33.8738Z" fill="#CFD8DC"/>
<path d="M63.1069 35.8045H20.1377V90H63.1069V35.8045Z" fill="#662C33"/>
<path d="M63.1067 35.8045H21.8184V90H63.1067V35.8045Z" fill="#8B383E"/>
</svg>
