<svg width="150" height="90" viewBox="0 0 150 90" fill="none" xmlns="http://www.w3.org/2000/svg">
<path d="M117.698 88.5894C117.698 89.3685 92.1631 90 60.6637 90C29.1642 90 3.62891 89.3685 3.62891 88.5894C3.62891 87.8103 29.1642 87.1788 60.6637 87.1788C92.1631 87.1788 117.698 87.8103 117.698 88.5894Z" fill="#F5F5F5"/>
<path d="M133.716 0.183105H103.455V43.5602H133.716V0.183105Z" fill="#407BFF"/>
<path opacity="0.8" d="M133.716 0.183105H103.455V43.5602H133.716V0.183105Z" fill="white"/>
<path opacity="0.8" d="M113.326 0.183105C107.913 3.59752 103.544 6.32966 103.544 6.32966V15.1828L127.65 0.183105H113.326Z" fill="white"/>
<path opacity="0.8" d="M133.715 0.183105H131.561C124.66 4.81349 103.544 18.0182 103.544 18.0182V21.6884L133.715 2.91524V0.183105H133.715Z" fill="white"/>
<path d="M85.3943 0H55.1338V43.3771H85.3943V0Z" fill="#407BFF"/>
<path opacity="0.8" d="M85.3943 0H55.1338V43.3771H85.3943V0Z" fill="white"/>
<path opacity="0.8" d="M85.3944 0C85.3944 0.537593 55.2236 19.4046 55.2236 19.4046V28.2578L85.3944 9.4846V0Z" fill="white"/>
<path opacity="0.8" d="M85.3944 12.4272C85.3944 12.9648 55.2236 31.8319 55.2236 31.8319V35.5023L85.3944 16.7291V12.4272Z" fill="white"/>
<path d="M26.565 38.9854L25.8418 35.3023H33.0279L33.6025 36.5447V35.3023H34.7934L34.9576 36.8829L35.4094 35.3023H37.5856L36.6231 38.8717L26.565 38.9854Z" fill="#407BFF"/>
<path opacity="0.3" d="M26.565 38.9854L25.8418 35.3023H33.0279L33.6025 36.5447V35.3023H34.7934L34.9576 36.8829L35.4094 35.3023H37.5856L36.6231 38.8717L26.565 38.9854Z" fill="white"/>
<path d="M31.7337 40.0045H30.5957V54.6587H31.7337V40.0045Z" fill="#263238"/>
<path d="M37.1065 38.8718H26.3604V40.0045H37.1065V38.8718Z" fill="#263238"/>
<path opacity="0.2" d="M31.7337 40.0045H30.5957V40.6964H31.7337V40.0045Z" fill="black"/>
<path d="M27.183 43.4491C26.109 43.4158 25.3034 42.4094 24.9772 41.3857C24.6508 40.362 24.6446 39.2574 24.3173 38.2342C23.8968 36.92 22.8892 35.7618 21.5734 35.3468C20.2576 34.9318 18.666 35.3723 17.8933 36.5154C17.1206 37.6584 17.3897 39.4322 18.5606 40.1619L19.1155 42.0174C20.5076 44.4153 23.6994 45.5894 26.3135 44.6651C26.0618 44.3476 25.8102 44.0302 25.5585 43.7127C26.0991 43.8961 26.728 43.7942 27.183 43.4491Z" fill="#263238"/>
<g opacity="0.7">
<path d="M27.183 43.4491C26.109 43.4158 25.3034 42.4094 24.9772 41.3857C24.6508 40.362 24.6446 39.2574 24.3173 38.2342C23.8968 36.92 22.8892 35.7618 21.5734 35.3468C20.2576 34.9318 18.666 35.3723 17.8933 36.5154C17.1206 37.6584 17.3897 39.4322 18.5606 40.1619L19.1155 42.0174C20.5076 44.4153 23.6994 45.5894 26.3135 44.6651C26.0618 44.3476 25.8102 44.0302 25.5585 43.7127C26.0991 43.8961 26.728 43.7942 27.183 43.4491Z" fill="white"/>
</g>
<path d="M19.9662 40.2691H19.2041V62.9955H19.9662V40.2691Z" fill="#263238"/>
<path opacity="0.4" d="M19.9662 40.2691H19.2041V62.9955H19.9662V40.2691Z" fill="white"/>
<path d="M18.7408 40.2692C18.7408 40.2692 18.3258 40.1017 18.0693 39.7385C18.0693 39.7385 21.1399 39.7764 21.1019 39.7385C21.0639 39.7005 20.8328 40.167 20.2655 40.2692H18.7408Z" fill="#407BFF"/>
<path d="M12.9548 41.741C12.5193 41.7346 11.9387 41.7328 11.3622 41.7401C10.4474 41.7521 9.66274 42.3962 9.47181 43.291L8.83139 46.2891L8.03777 50.8675C7.98463 51.1746 8.22087 51.4557 8.5328 51.4557H12.8851C13.3171 51.4557 13.6674 51.1053 13.6674 50.6733V42.4656C13.6672 42.0698 13.3507 41.7468 12.9548 41.741ZM10.9677 44.6878L10.4138 47.5667C10.3459 47.9193 10.0048 48.1503 9.65216 48.0824C9.29928 48.0146 9.06856 47.6734 9.13642 47.3208L9.69034 44.4419C9.7582 44.0892 10.0993 43.8583 10.452 43.9261C10.8046 43.994 11.0356 44.3352 10.9677 44.6878Z" fill="#407BFF"/>
<path opacity="0.3" d="M12.9548 41.741C12.5193 41.7346 11.9387 41.7328 11.3622 41.7401C10.4474 41.7521 9.66274 42.3962 9.47181 43.291L8.83139 46.2891L8.03777 50.8675C7.98463 51.1746 8.22087 51.4557 8.5328 51.4557H12.8851C13.3171 51.4557 13.6674 51.1053 13.6674 50.6733V42.4656C13.6672 42.0698 13.3507 41.7468 12.9548 41.741ZM10.9677 44.6878L10.4138 47.5667C10.3459 47.9193 10.0048 48.1503 9.65216 48.0824C9.29928 48.0146 9.06856 47.6734 9.13642 47.3208L9.69034 44.4419C9.7582 44.0892 10.0993 43.8583 10.452 43.9261C10.8046 43.994 11.0356 44.3352 10.9677 44.6878Z" fill="white"/>
<path d="M13.2078 40.2532H11.1738V41.7353H13.2078V40.2532Z" fill="#263238"/>
<path d="M16.7911 84.5267C16.424 84.7087 16.7911 49.9436 16.7911 49.9436H36.0099C36.0099 49.9436 32.7047 84.8345 32.3374 84.5267C31.9702 84.2192 16.7911 84.5267 16.7911 84.5267Z" fill="#407BFF"/>
<path opacity="0.2" d="M16.7617 52.9705L35.4836 55.4364L35.6948 53.2447L16.7617 52.9705Z" fill="black"/>
<path d="M2.18728 83.7589L1.04102 71.2951H12.0882L10.8509 83.7122L2.18728 83.7589Z" fill="#263238"/>
<path opacity="0.3" d="M2.18728 83.7589L1.04102 71.2951H12.0882L10.8509 83.7122L2.18728 83.7589Z" fill="white"/>
<path d="M12.4877 71.1835H0.597656V71.9677H12.4877V71.1835Z" fill="#263238"/>
<path d="M34.8978 83.6409H0.597656V85.4124H34.8978V83.6409Z" fill="#263238"/>
<path d="M15.4317 51.2231H13.2227V83.6411H15.4317V51.2231Z" fill="#263238"/>
<path d="M36.0103 51.2413H0.597656V53.0687H36.0103V51.2413Z" fill="#263238"/>
<path d="M8.39879 86.2507C8.68047 84.5151 7.50182 82.8798 5.7662 82.5981C4.03058 82.3164 2.39522 83.495 2.11354 85.2307C1.83186 86.9663 3.01052 88.6016 4.74614 88.8833C6.48177 89.165 8.11711 87.9863 8.39879 86.2507Z" fill="#263238"/>
<path d="M5.25396 87.3164C6.13311 87.3164 6.8458 86.6037 6.8458 85.7245C6.8458 84.8453 6.13311 84.1327 5.25396 84.1327C4.3748 84.1327 3.66211 84.8453 3.66211 85.7245C3.66211 86.6037 4.3748 87.3164 5.25396 87.3164Z" fill="#407BFF"/>
<path d="M33.4219 85.3702C33.7963 83.0633 32.2296 80.8896 29.9226 80.5152C27.6157 80.1408 25.442 81.7074 25.0676 84.0144C24.6932 86.3214 26.2598 88.495 28.5668 88.8695C30.8738 89.2439 33.0475 87.6772 33.4219 85.3702Z" fill="#263238"/>
<path d="M29.2428 86.7875C30.4114 86.7875 31.3587 85.8402 31.3587 84.6717C31.3587 83.5031 30.4114 82.5558 29.2428 82.5558C28.0743 82.5558 27.127 83.5031 27.127 84.6717C27.127 85.8402 28.0743 86.7875 29.2428 86.7875Z" fill="#407BFF"/>
<path d="M7.77149 39.6571H7.30566V40.958H7.77149V39.6571Z" fill="#263238"/>
<path d="M8.06474 46.5921C7.77857 45.698 6.09747 44.8395 6.16901 44.1956C6.24055 43.5518 6.23066 42.6933 6.23066 42.6933H4.55945C4.41637 42.8363 2.98555 45.6621 3.52222 48.9884L3.98091 51.206H7.34933C7.34933 51.2064 8.35067 47.4865 8.06474 46.5921Z" fill="#407BFF"/>
<path d="M6.3347 41.7924H4.34766V42.619H6.3347V41.7924Z" fill="#263238"/>
<path d="M2.95703 41.3844C2.95703 41.3844 3.1827 39.911 4.25213 39.828C5.32134 39.7447 7.30562 39.828 7.30562 39.828V40.8261H6.33464V41.7925H4.43018V41.0755C4.43018 41.0755 3.95516 40.7428 2.95703 41.3844Z" fill="#263238"/>
<path d="M6.33519 41.4219C6.33519 41.4219 6.48794 42.2525 7.72392 42.3413L7.77176 42.1336C7.77176 42.1336 6.82931 41.8415 6.80423 40.8259H6.33496L6.33519 41.4219Z" fill="#263238"/>
<path d="M36.5817 49.0946H15.875V51.3278H36.5817V49.0946Z" fill="#407BFF"/>
<path opacity="0.3" d="M36.5817 49.0946H15.875V51.3278H36.5817V49.0946Z" fill="black"/>
<path opacity="0.2" d="M1.15545 72.5442L1.10254 71.9677H11.992V72.5442H1.15545Z" fill="black"/>
<path opacity="0.7" d="M13.6663 44.1042H11.8623L10.9785 49.7661H13.6663V44.1042Z" fill="white"/>
<g opacity="0.5">
<path d="M12.4877 71.1835H0.597656V71.9677H12.4877V71.1835Z" fill="white"/>
</g>
<path d="M1.10254 71.5755C1.10254 71.5755 2.70589 77.8513 11.4891 77.3048" stroke="#263238" stroke-miterlimit="10"/>
<path d="M107.505 34.394L106.541 38.3333L98.4473 43.1307L99.0364 44.7048C99.0364 44.7048 108.224 42.2954 108.836 41.4609C109.448 40.6263 111.112 35.1089 111.112 35.1089L107.505 34.394Z" fill="#E9B376"/>
<path opacity="0.3" d="M107.268 35.3599L107.116 35.9803L109.945 36.7387L110.364 37.4831L110.531 36.9664L110.272 35.6913L107.268 35.3599Z" fill="black"/>
<path d="M100.331 42.4873C100.331 42.4873 99.9195 41.8225 99.2887 41.6817C98.658 41.5409 98.1917 41.2605 97.7155 41.1883C97.2394 41.1161 97.6619 41.61 97.94 41.8273C98.2179 42.0447 98.531 42.2938 98.3339 42.476C98.137 42.6585 95.8868 43.1767 95.6425 43.4606C95.3982 43.7445 95.7883 43.7746 95.7883 43.7746C95.7883 43.7746 95.2452 43.9151 95.2422 44.1454C95.2415 44.2052 95.3367 44.3455 95.5941 44.3202C96.1736 44.2634 97.3834 44.0815 97.3834 44.0815C97.3137 44.0904 95.8366 44.4217 95.6218 44.5001C95.3411 44.6027 95.2611 44.7943 95.3257 44.9551C95.4179 45.184 97.2635 44.8357 97.3516 44.8755C97.3516 44.8755 96.2824 45.0405 96.1738 45.3398C96.0655 45.639 96.7441 45.5719 97.3314 45.3991C97.8697 45.2406 98.9672 45.0708 99.4988 44.8564C100.154 44.5926 100.534 44.2682 100.563 43.6067C100.592 42.9451 100.331 42.4873 100.331 42.4873Z" fill="#407BFF"/>
<path opacity="0.3" d="M95.8555 43.7424C96.2935 43.6407 96.7363 43.5588 97.1819 43.4974" stroke="black" stroke-width="0.25" stroke-miterlimit="10" stroke-linecap="round" stroke-linejoin="round"/>
<path opacity="0.3" d="M97.7696 44.8259C97.4943 44.3143 97.3737 43.7208 97.4276 43.1422" stroke="black" stroke-width="0.25" stroke-miterlimit="10" stroke-linecap="round" stroke-linejoin="round"/>
<path d="M99.7015 42.2225L101.635 41.0717L102.543 43.9841L99.7015 44.6002L100.075 43.3131L99.6357 42.2377" fill="#407BFF"/>
<path d="M111.03 81.7916L109.241 86.7712L107.569 86.249L108.092 81.0065L111.03 81.7916Z" fill="#E9B376"/>
<path d="M109.506 88.2404L109.505 88.2407C109.467 88.6057 109.441 88.8567 109.441 88.8567L107.93 88.8601C107.93 88.8601 107.624 88.6984 107.445 88.7205C107.266 88.7428 106.644 88.8629 106.644 88.8629L102.632 88.8721C102.664 88.7037 102.703 88.554 102.748 88.421C102.802 88.2591 102.866 88.1217 102.936 88.0056C103.184 87.5993 103.523 87.4542 103.892 87.4302C104.453 87.3937 106.219 86.2097 106.219 86.2097C106.219 86.2097 106.859 85.984 106.893 85.301C106.905 85.045 107.282 84.7317 107.462 84.7057C107.829 84.6519 108.034 84.8838 108.088 85.2504L108.15 85.6765L108.997 85.5426C108.997 85.5426 109.858 85.1067 109.817 85.5283" fill="#263238"/>
<g opacity="0.2">
<path d="M102.633 88.872L106.645 88.8628C106.645 88.8628 107.267 88.7428 107.446 88.7205C107.625 88.6984 107.931 88.8601 107.931 88.8601L109.442 88.8566C109.442 88.8566 109.468 88.6059 109.506 88.2406L102.749 88.4212C102.704 88.5539 102.664 88.7037 102.633 88.872Z" fill="white"/>
</g>
<path d="M105.339 86.6495C105.358 86.6313 105.386 86.6292 105.408 86.6435C105.508 86.7093 105.591 86.8024 105.649 86.9191C105.679 86.9807 105.589 87.0403 105.558 86.9782C105.508 86.8744 105.434 86.7921 105.347 86.7343C105.318 86.715 105.313 86.6745 105.338 86.6502C105.339 86.6502 105.339 86.6495 105.339 86.6495Z" fill="#407BFF"/>
<path d="M105.657 86.4608C105.675 86.4427 105.704 86.4406 105.726 86.4549C105.825 86.5206 105.909 86.6138 105.966 86.7304C105.996 86.7921 105.906 86.8517 105.876 86.7896C105.825 86.6858 105.752 86.6035 105.665 86.5457C105.636 86.5264 105.631 86.4859 105.656 86.4615C105.656 86.4613 105.657 86.4608 105.657 86.4608Z" fill="#407BFF"/>
<path d="M105.988 86.2845C106.007 86.2663 106.036 86.2642 106.058 86.2785C106.157 86.3443 106.241 86.4375 106.298 86.5541C106.328 86.6157 106.238 86.6753 106.208 86.6132C106.157 86.5095 106.084 86.4271 105.997 86.3694C105.968 86.35 105.963 86.3096 105.988 86.2852L105.988 86.2845Z" fill="#407BFF"/>
<path d="M122.577 81.2389L123.366 86.6309L125.127 86.7024L125.645 81.4919L122.577 81.2389Z" fill="#E9B376"/>
<path d="M126.648 89.1056L122.712 89.1443C122.712 89.1443 122.624 88.9798 122.718 88.5388C122.732 88.47 122.751 88.3946 122.776 88.3122C122.777 88.3081 122.778 88.3039 122.779 88.3C122.815 88.1779 122.856 88.0277 122.899 87.8655C123.073 87.2048 123.276 86.3417 123.276 86.3417C123.276 86.3417 123.917 84.9335 124.687 85.276C125.362 85.5764 125.211 86.4568 125.211 86.4568C125.211 86.4568 125.282 86.972 125.796 87.422C126.114 87.7001 126.429 87.9145 126.584 88.2628C126.613 88.3279 126.636 88.3971 126.652 88.4723C126.654 88.4813 126.656 88.491 126.657 88.5004C126.691 88.6683 126.691 88.8659 126.648 89.1056Z" fill="#263238"/>
<g opacity="0.2">
<path d="M122.719 88.5388C122.625 88.9798 122.713 89.1442 122.713 89.1442L126.649 89.1056C126.692 88.8659 126.692 88.6683 126.659 88.4999L122.719 88.5388Z" fill="white"/>
</g>
<path d="M125.058 86.6787C124.835 86.5085 124.544 86.5336 124.347 86.7298C124.294 86.7825 124.211 86.7013 124.264 86.6486C124.51 86.4038 124.865 86.3868 125.139 86.5959C125.198 86.641 125.117 86.7236 125.058 86.6787Z" fill="#407BFF"/>
<path d="M125.171 87.0451C124.948 86.8747 124.657 86.9 124.46 87.0962C124.407 87.1489 124.324 87.0677 124.377 87.015C124.624 86.7703 124.978 86.7532 125.252 86.9623C125.312 87.0074 125.229 87.09 125.171 87.0451Z" fill="#407BFF"/>
<path d="M125.284 87.3821C125.061 87.2119 124.771 87.2369 124.574 87.4331C124.521 87.4858 124.438 87.4046 124.491 87.3517C124.737 87.107 125.092 87.0899 125.366 87.299C125.425 87.3444 125.343 87.4269 125.284 87.3821Z" fill="#407BFF"/>
<path d="M126.671 47.8603L118.431 48.0109L113.258 47.9049C113.258 47.9049 109.779 63.5975 109.5 66.549C109.221 69.5006 106.725 85.0526 106.725 85.0526L110.755 85.8962C110.755 85.8962 115.164 69.2506 115.478 67.6521C115.752 66.2587 118.842 57.3138 119.631 55.0392C119.717 55.5027 119.805 55.9681 119.895 56.4295C120.121 58.5174 120.844 65.1739 121.155 67.6505C121.155 67.6505 121.917 81.808 122.679 85.9139L126.464 85.8833C126.906 80.0395 127.025 59.527 127.025 59.527L127.025 59.5267C127.261 55.0696 126.671 47.8603 126.671 47.8603Z" fill="#263238"/>
<g opacity="0.5">
<path d="M115.402 50.2256C114.937 51.8098 113.665 53.0911 112.084 53.568C111.999 53.5938 112.037 53.7272 112.122 53.7014C113.75 53.2103 115.058 51.8919 115.536 50.261C115.562 50.1752 115.427 50.14 115.402 50.2256Z" fill="black"/>
<path d="M119.718 50.1828C119.638 51.5655 119.56 52.9506 119.48 54.3336C119.477 54.4228 119.339 54.4242 119.342 54.3349C119.384 53.6257 119.424 52.9142 119.464 52.2027C119.125 52.4691 118.723 52.1542 118.608 51.8032C118.42 51.2343 118.482 50.5561 118.619 49.984C118.641 49.8969 118.775 49.9334 118.753 50.0183C118.657 50.4204 118.619 50.831 118.652 51.243C118.667 51.4523 118.69 51.693 118.789 51.8837C118.901 52.0965 119.179 52.2743 119.398 52.0783C119.422 52.058 119.449 52.0555 119.471 52.0663C119.507 51.4397 119.544 50.8108 119.58 50.1839C119.584 50.0951 119.722 50.0938 119.718 50.1828Z" fill="black"/>
<path d="M123.784 50.3783C123.783 52.2104 125.208 53.7307 127.033 53.8567C127.12 53.8627 127.118 53.7265 127.031 53.7205C125.28 53.5995 123.919 52.1303 123.92 50.377C123.921 50.2893 123.784 50.2907 123.784 50.3783Z" fill="black"/>
</g>
<g opacity="0.3">
<path d="M126.671 47.8603L118.431 48.0109L113.258 47.9049C113.258 47.9049 109.779 63.5975 109.5 66.549C109.221 69.5006 106.725 85.0526 106.725 85.0526L110.755 85.8962C110.755 85.8962 115.164 69.2506 115.478 67.6521C115.752 66.2587 118.842 57.3138 119.631 55.0392C119.717 55.5027 119.805 55.9681 119.895 56.4295C120.121 58.5174 120.844 65.1739 121.155 67.6505C121.155 67.6505 121.917 81.808 122.679 85.9139L126.464 85.8833C126.906 80.0395 127.025 59.527 127.025 59.527L127.025 59.5267C127.261 55.0696 126.671 47.8603 126.671 47.8603Z" fill="white"/>
</g>
<path d="M110.143 28.7781C108.513 29.7351 106.89 35.3963 106.89 35.3963L111.857 37.0169L113.439 33.6984L110.143 28.7781Z" fill="#407BFF"/>
<path opacity="0.2" d="M111.225 33.5212L110.966 36.7489L109.821 36.3527C110.283 35.1161 110.054 30.5522 110.054 30.5522C110.054 30.5522 110.806 32.7023 111.225 33.5212Z" fill="black"/>
<path d="M120.552 26.7129C119.622 27.4076 118.575 28.9943 119.406 30.724C119.996 31.9533 121.724 34.3424 121.724 34.3424L126.056 31.905C126.056 31.905 122.181 25.8081 120.552 26.7129Z" fill="#407BFF"/>
<path d="M111.043 28.3627C112.207 28.0273 115.738 26.7241 120.773 26.6213L123.44 31.51L125.943 43.6872C125.943 43.6872 126.436 45.0821 126.847 47.745C122.239 50.8125 115.931 50.7449 112.275 49.4569C112.133 47.8867 112.378 48.1911 112.035 45.1652C111.432 39.8329 110.278 33.7158 110.098 28.84C110.095 28.719 110.926 28.3963 111.043 28.3627Z" fill="#407BFF"/>
<path d="M111.522 33.9259C111.424 34.3705 112.161 43.7424 112.161 43.7424C112.161 43.7424 112.276 46.5769 112.399 47.0211C112.522 47.4653 109.053 73.1722 111.407 74.3818C113.761 75.5913 124.081 74.8922 124.081 74.8922C124.081 74.8922 123.852 46.1256 124.407 44.5183C124.962 42.9111 125.941 42.2352 125.941 42.2352L125.266 38.8063L123.624 38.8923C123.624 38.8923 121.468 31.7122 120.52 32.0739C119.571 32.4355 111.522 33.9259 111.522 33.9259Z" fill="#263238"/>
<path d="M111.962 34.2562C112.166 34.2822 112.37 34.308 112.574 34.334C112.574 34.3319 112.573 34.3298 112.572 34.3277L112.568 34.3116C112.566 34.3114 112.576 34.403 112.573 34.3427C112.57 34.2873 112.565 34.2323 112.563 34.1768C112.557 34.005 112.557 33.8332 112.558 33.6613C112.56 33.1401 112.572 32.6186 112.586 32.0973C112.616 30.9692 112.657 29.8414 112.701 28.7135C112.711 28.4605 112.72 28.2074 112.731 27.9546C112.75 27.5106 112.06 27.5113 112.041 27.9546C111.957 29.966 111.839 31.9885 111.869 34.002C111.871 34.1584 111.864 34.3321 111.901 34.4855C111.979 34.8046 112.374 34.884 112.558 34.6049C112.804 34.233 112.206 33.887 111.962 34.2562Z" fill="#263238"/>
<path d="M120.707 33.3468C120.018 31.1203 119.328 28.894 118.639 26.6675C118.508 26.2444 117.841 26.425 117.973 26.851C118.663 29.0776 119.352 31.3038 120.042 33.5304C120.173 33.9532 120.839 33.7728 120.707 33.3468Z" fill="#263238"/>
<path opacity="0.6" d="M117.504 35.7609L119.892 34.9091L120.475 36.5439L118.087 37.3955" fill="white"/>
<path d="M118.085 34.6567L118.524 35.4076C118.58 35.5058 118.701 35.5458 118.805 35.5005C118.896 35.4626 118.953 35.3694 118.943 35.2707L118.848 34.3004L118.085 34.6567Z" fill="#407BFF"/>
<path opacity="0.4" d="M118.085 34.6567L118.524 35.4076C118.58 35.5058 118.701 35.5458 118.805 35.5005C118.896 35.4626 118.953 35.3694 118.943 35.2707L118.848 34.3004L118.085 34.6567Z" fill="black"/>
<g opacity="0.2">
<path d="M120.005 47.0811C121.054 46.8437 121.92 45.7363 122.373 44.7607C122.84 43.7545 123.359 42.0541 123.359 42.0541C122.742 42.8498 122.126 43.6453 121.509 44.441C121.13 44.9302 120.745 45.4255 120.253 45.8016C119.571 46.3231 118.728 46.5824 117.894 46.7876C116.817 47.0528 115.722 47.2449 114.619 47.3624C114.619 47.3624 117.125 47.7325 120.005 47.0811Z" fill="black"/>
</g>
<path d="M125.831 32.0318C125.831 32.0318 128.957 36.7362 128.526 37.9846C128.096 39.233 120.589 45.5132 120.589 45.5132L119.519 43.7677L124.609 37.2527L122.58 33.8608L125.831 32.0318Z" fill="#E9B376"/>
<path d="M116.575 26.8977C116.575 26.8977 115.968 25.5846 116.051 22.965C116.05 22.9624 115.907 22.9383 115.906 22.9358C115.917 22.5698 115.94 22.2279 115.967 21.9298C115.968 21.9213 115.967 21.9188 115.967 21.9188L113.159 24.8345C113.437 25.5943 113.543 27.1728 113.539 27.8518C113.539 27.8518 113.413 29.1122 114.959 28.7701C116.088 28.5199 116.575 26.8977 116.575 26.8977Z" fill="#E9B376"/>
<path opacity="0.2" d="M113.382 25.9453L115.191 25.021C115.169 25.6626 114.822 26.5057 113.501 26.9055C113.501 26.9055 113.463 26.2032 113.382 25.9453Z" fill="black"/>
<path d="M109.377 19.6609C109.182 20.5332 109.477 22.2661 110.616 21.5976C111.754 20.9291 109.712 18.1616 109.377 19.6609Z" fill="#263238"/>
<path d="M115.577 20.2915C115.893 22.4639 116.116 23.6827 115.258 25.0005C113.969 26.9828 111.179 26.5659 110.217 24.526C109.351 22.6896 108.979 19.4456 110.908 18.1724C112.809 16.9178 115.26 18.119 115.577 20.2915Z" fill="#E9B376"/>
<path d="M115.399 17.6928C114.857 16.5723 111.804 17.1414 111.103 17.9182C110.998 18.0344 112.937 18.5489 112.822 18.5324L113.708 18.6453C113.829 18.5906 114.11 18.687 114.323 19.0553C114.323 19.0553 114.482 21.3922 115.613 22.1492C116.455 21.5247 116.631 21.0908 116.705 20.2655C116.815 19.0357 116.019 18.2465 115.399 17.6928Z" fill="#263238"/>
<path d="M116.798 21.9022C116.742 22.4904 116.418 22.9955 116.037 23.2957C115.463 23.7475 114.89 23.3013 114.809 22.6128C114.737 21.993 114.948 21.0115 115.639 20.8288C116.32 20.649 116.862 21.23 116.798 21.9022Z" fill="#E9B376"/>
<path d="M112.637 21.5523C112.683 21.7717 112.603 21.9728 112.459 22.0015C112.315 22.0303 112.161 21.8755 112.116 21.6558C112.07 21.4363 112.149 21.2353 112.293 21.2065C112.437 21.178 112.591 21.3328 112.637 21.5523Z" fill="#263238"/>
<path d="M110.493 22.045C110.539 22.2645 110.459 22.4655 110.315 22.4943C110.171 22.5228 110.017 22.3682 109.971 22.1488C109.925 21.9293 110.005 21.7283 110.149 21.6995C110.293 21.671 110.447 21.8256 110.493 22.045Z" fill="#263238"/>
<path d="M111.168 21.777C111.168 21.777 110.701 23.0128 110.571 23.5035C110.935 23.7155 111.434 23.4784 111.434 23.4784L111.168 21.777Z" fill="#D58745"/>
<path d="M112.956 20.4056C112.926 20.4261 112.885 20.4302 112.85 20.4127C112.428 20.2057 112.092 20.3968 112.089 20.3989C112.039 20.4281 111.974 20.4116 111.944 20.3619C111.915 20.3122 111.932 20.2482 111.981 20.2188C111.999 20.2084 112.419 19.9685 112.943 20.2255C112.995 20.251 113.017 20.3138 112.991 20.3656C112.983 20.3826 112.971 20.3959 112.956 20.4056Z" fill="#263238"/>
<path opacity="0.2" d="M116.185 21.4118C116.071 21.3018 115.885 21.2915 115.743 21.3598C115.601 21.4281 115.499 21.5613 115.433 21.7048C115.355 21.8771 115.322 22.0704 115.34 22.259" stroke="black" stroke-width="0.5" stroke-miterlimit="10" stroke-linecap="round" stroke-linejoin="round"/>
<path d="M113.515 22.9757L111.841 24.0935C112.003 24.2657 112.168 24.4399 112.37 24.5641C112.572 24.6883 112.79 24.7053 113.02 24.6511C113.35 24.5731 113.608 24.3037 113.664 23.9695C113.72 23.6355 113.633 23.2936 113.515 22.9757Z" fill="black"/>
<path d="M111.976 24.0035C111.976 24.0035 112.163 24.2004 112.287 24.2038C112.411 24.2073 113.625 23.3122 113.625 23.3122L113.515 22.9757L111.976 24.0035Z" fill="white"/>
<path d="M112.777 24.6805C112.777 24.6805 112.783 24.3317 113.122 24.0785C113.46 23.8252 113.678 23.8512 113.678 23.8512C113.678 23.8512 113.668 24.2655 113.347 24.4948C113.025 24.7242 112.777 24.6805 112.777 24.6805Z" fill="#DE5753"/>
<path d="M109.206 19.9942C109.206 19.9942 109.899 16.4866 112.988 16.5901C116.077 16.6937 116.687 18.3626 116.735 20.1681C116.735 20.1681 113.716 19.5144 112.424 19.3968C111.133 19.2795 109.206 19.9942 109.206 19.9942Z" fill="#407BFF"/>
<path opacity="0.2" d="M109.206 19.9942C109.206 19.9942 109.899 16.4866 112.988 16.5901C116.077 16.6937 116.687 18.3626 116.735 20.1681C116.735 20.1681 113.716 19.5144 112.424 19.3968C111.133 19.2795 109.206 19.9942 109.206 19.9942Z" fill="black"/>
<path d="M110.715 19.1457C109.074 19.4475 108.471 19.5218 107.069 20.234C106.844 20.3481 106.617 20.4773 106.469 20.6818C106.322 20.8863 106.277 21.1854 106.429 21.3862C106.53 21.5189 106.687 21.6172 106.853 21.6353C107.434 21.6988 108.72 21.6022 109.511 21.4704L109.529 20.6779C109.537 20.274 109.796 19.9147 110.18 19.7898C110.701 19.6205 111.378 19.4562 111.974 19.4663C113.368 19.49 114.557 19.6522 115.935 20.003C114.752 19.4355 113.989 19.2022 112.631 19.0796C112.263 19.0465 111.697 18.9649 110.715 19.1457Z" fill="#407BFF"/>
<path d="M113.916 16.3797C113.794 16.3003 113.634 16.29 113.497 16.3394C113.361 16.3889 113.248 16.4933 113.174 16.6187L114.09 16.7537C114.114 16.6102 114.038 16.4591 113.916 16.3797Z" fill="#407BFF"/>
<path d="M109.349 21.3172C109.329 21.3169 109.309 21.3112 109.291 21.2992C109.243 21.2668 109.23 21.2015 109.262 21.1534C109.582 20.6712 110.065 20.6777 110.086 20.6751C110.144 20.6763 110.191 20.7239 110.19 20.7819C110.19 20.8396 110.143 20.8856 110.086 20.8852C110.066 20.884 109.694 20.884 109.437 21.2709C109.416 21.3013 109.383 21.3176 109.349 21.3172Z" fill="#263238"/>
<path d="M96.3171 85.7446C98.6609 80.267 101.196 74.8701 103.859 69.5409C106.606 64.0453 109.488 58.6098 112.629 53.3284C113.337 52.1378 114.057 50.9535 114.802 49.7854C115.013 49.4535 115.228 49.1238 115.455 48.8023C115.512 48.722 115.569 48.6422 115.628 48.563C115.635 48.5538 115.83 48.2973 115.703 48.4602C115.823 48.3063 115.948 48.1554 116.077 48.0089C116.337 47.7142 116.62 47.4503 116.912 47.189C117.145 46.9808 116.754 47.2916 117.001 47.117C117.078 47.0625 117.155 47.0078 117.234 46.956C117.392 46.8522 117.556 46.757 117.723 46.6703C117.807 46.627 117.893 46.5863 117.979 46.5474C117.776 46.639 118.059 46.5189 118.081 46.5111C118.257 46.4481 118.437 46.3952 118.62 46.3542C118.71 46.334 118.802 46.3165 118.893 46.3025C118.652 46.3397 118.953 46.302 118.986 46.3002C119.078 46.2949 119.17 46.2928 119.262 46.2944C119.294 46.2949 119.617 46.3147 119.492 46.3029C119.335 46.2882 119.63 46.3294 119.628 46.3289C119.713 46.3469 119.797 46.368 119.881 46.3924C119.95 46.4129 120.018 46.4391 120.088 46.4603C120.321 46.532 119.887 46.3558 120.103 46.4642C120.229 46.527 120.352 46.5889 120.471 46.6629C120.53 46.6995 120.586 46.74 120.643 46.7777C120.733 46.8435 120.718 46.8311 120.598 46.7402C120.634 46.769 120.669 46.7984 120.704 46.8283C120.79 46.9035 120.873 46.9829 120.953 47.0657C121.001 47.1156 121.047 47.1669 121.093 47.2194C121.138 47.2711 121.302 47.4064 121.107 47.227C121.317 47.42 121.469 47.7655 121.596 48.0162C121.629 48.0816 121.661 48.1476 121.691 48.2143C121.698 48.2281 121.795 48.4515 121.728 48.2939C121.662 48.1356 121.755 48.364 121.76 48.3776C121.787 48.4478 121.813 48.5184 121.838 48.5895C121.948 48.9023 122.038 49.2221 122.112 49.545C122.175 49.8227 122.223 50.1024 122.269 50.3833C122.312 50.6469 122.244 50.1503 122.273 50.4153C122.282 50.4921 122.292 50.5687 122.299 50.6455C122.318 50.8231 122.333 51.0012 122.344 51.1797C122.395 51.9788 122.385 52.7835 122.369 53.5835C122.332 55.3907 122.201 57.194 122.073 58.9963C121.823 62.525 121.594 66.0795 122.111 69.5959C122.507 72.2825 123.381 74.9614 124.827 77.2712C125.543 78.4152 126.407 79.4895 127.422 80.3822C127.951 80.8469 128.518 81.2759 129.116 81.6463C129.571 81.9271 130.102 82.2777 130.627 82.3944C131.282 82.54 131.959 82.6117 132.628 82.6481C133.169 82.6775 133.687 82.151 133.663 81.6129C133.637 81.0268 133.208 80.6093 132.628 80.5778C132.42 80.5665 132.213 80.5518 132.006 80.5308C131.916 80.5216 131.826 80.5106 131.737 80.5005C132.002 80.5308 131.748 80.5014 131.699 80.4938C131.505 80.4639 131.296 80.3907 131.101 80.3806C131.097 80.3804 131.071 80.3694 131.066 80.3721C131.123 80.3951 131.18 80.4181 131.236 80.4411C131.187 80.4179 131.137 80.3942 131.088 80.37C130.965 80.3102 130.844 80.2479 130.724 80.1835C130.414 80.0172 130.113 79.8354 129.822 79.6397C129.688 79.5497 129.556 79.457 129.427 79.3613C129.393 79.3365 129.179 79.169 129.38 79.3287C129.317 79.2788 129.254 79.2288 129.192 79.178C128.944 78.9746 128.704 78.7605 128.473 78.5373C128.242 78.3135 128.02 78.0805 127.807 77.8394C127.7 77.7184 127.596 77.5954 127.493 77.4704C127.442 77.4079 127.392 77.3444 127.341 77.2814C127.27 77.1907 127.275 77.1965 127.354 77.2988C127.322 77.2558 127.289 77.2126 127.257 77.1691C126.867 76.6437 126.515 76.0911 126.197 75.5191C126.037 75.2299 125.885 74.9359 125.742 74.6376C125.682 74.5126 125.624 74.387 125.567 74.261C125.533 74.1851 125.5 74.1087 125.466 74.0326C125.42 73.9249 125.422 73.9307 125.473 74.0498C125.451 73.9985 125.43 73.947 125.409 73.8955C124.892 72.6257 124.515 71.2997 124.26 69.9531C124.203 69.6518 124.152 69.349 124.108 69.0456C124.101 69.001 124.063 68.7206 124.098 68.9906C124.088 68.9083 124.077 68.8257 124.067 68.7431C124.044 68.5513 124.023 68.359 124.005 68.1667C123.921 67.29 123.881 66.4092 123.869 65.5286C123.844 63.6872 123.947 61.8471 124.072 60.0105C124.198 58.1698 124.347 56.3299 124.413 54.4855C124.47 52.9061 124.496 51.3218 124.253 49.756C124.059 48.5055 123.66 47.206 122.894 46.1819C122.003 44.9899 120.689 44.211 119.169 44.2236C115.611 44.2528 113.664 47.6581 112.029 50.3168C108.84 55.5043 105.943 60.8722 103.18 66.2972C100.41 71.737 97.7796 77.2517 95.3318 82.8443C95.0615 83.4617 94.794 84.0801 94.5288 84.6998C94.3164 85.1962 94.3641 85.8329 94.9 86.1161C95.3454 86.3507 96.0896 86.2762 96.3171 85.7446Z" fill="#E0E0E0"/>
<path d="M147.72 86.1619H134.551C134.035 86.1619 133.617 85.7439 133.617 85.2284V69.1245C133.617 68.609 134.035 68.191 134.551 68.191H147.72C148.235 68.191 148.653 68.609 148.653 69.1245V85.2284C148.653 85.7439 148.235 86.1619 147.72 86.1619Z" fill="#407BFF"/>
<path d="M149.091 70.7978H133.206V73.0395H149.091V70.7978Z" fill="#263238"/>
<path d="M133.264 68.9311C133.391 68.9311 149.091 68.9311 149.091 68.9311L148.85 67.5023H146.227L144.323 65.5985H137.127L135.453 67.5042L133.264 67.587V68.9311H133.264Z" fill="#263238"/>
<path d="M146.484 88.5931C148.07 88.5931 149.356 87.3074 149.356 85.7214C149.356 84.1353 148.07 82.8496 146.484 82.8496C144.898 82.8496 143.612 84.1353 143.612 85.7214C143.612 87.3074 144.898 88.5931 146.484 88.5931Z" fill="#263238"/>
<path d="M136.784 88.6454C137.742 88.6454 138.518 87.8692 138.518 86.9118C138.518 85.9544 137.742 85.1783 136.784 85.1783C135.827 85.1783 135.051 85.9544 135.051 86.9118C135.051 87.8692 135.827 88.6454 136.784 88.6454Z" fill="#263238"/>
<path d="M133.617 80.4494H131.47V82.597H133.617V80.4494Z" fill="#407BFF"/>
<path opacity="0.3" d="M148.653 73.0395H133.617V73.8527H148.653V73.0395Z" fill="black"/>
<path d="M100.88 86.5233H86.0391V88.3925H100.88V86.5233Z" fill="#263238"/>
<path d="M98.6529 85.8069H87.9668V86.8973H98.6529V85.8069Z" fill="#263238"/>
<path d="M93.5225 85.9144C93.5786 85.9144 95.1028 82.6564 95.1028 82.6564L97.6771 83.1756L96.4255 85.8067L93.5225 85.9144Z" fill="#263238"/>
<path d="M119.437 43.1185C119.301 43.131 117.27 43.8866 116.526 44.8829L117.459 44.6784L116.446 47.1996C116.446 47.1996 116.242 48.2718 117.616 47.6401C118.989 47.0084 119.424 48.1897 120.277 46.9321C121.13 45.6745 122.058 44.4327 122.058 44.4327L123.555 43.3638L120.984 40.662L119.437 43.1185Z" fill="#407BFF"/>
<path opacity="0.3" d="M133.618 80.4494H133.206V82.597H133.618V80.4494Z" fill="black"/>
<path d="M149.229 74.8921C149.229 76.8343 149.229 78.7768 149.229 80.7192C149.229 80.8303 149.402 80.8303 149.402 80.7192C149.402 78.7768 149.402 76.8346 149.402 74.8921C149.402 74.7813 149.229 74.781 149.229 74.8921Z" fill="#407BFF"/>
<path d="M149.229 81.6776C149.229 81.9143 149.229 82.1512 149.229 82.3879C149.229 82.499 149.402 82.499 149.402 82.3879C149.402 82.1512 149.402 81.9143 149.402 81.6776C149.402 81.5665 149.229 81.5665 149.229 81.6776Z" fill="#407BFF"/>
<path d="M105.569 52.9949C105.616 53.584 105.241 54.0622 104.731 54.0622H88.5729C88.0604 54.0622 87.6079 53.5838 87.561 52.9949L86.6013 41.1034C86.5907 40.9808 86.5987 40.8642 86.622 40.7565C86.7131 40.3379 87.0331 40.0358 87.4388 40.0358H103.597C104.11 40.0358 104.562 40.5143 104.609 41.1034L105.569 52.9949Z" fill="#263238"/>
<path opacity="0.7" d="M105.569 52.9949C105.616 53.584 105.241 54.0622 104.731 54.0622H88.5729C88.0604 54.0622 87.6079 53.5838 87.561 52.9949L86.6013 41.1034C86.5907 40.9808 86.5987 40.8642 86.622 40.7565C86.7131 40.3379 87.0331 40.0358 87.4388 40.0358H103.597C104.11 40.0358 104.562 40.5143 104.609 41.1034L105.569 52.9949Z" fill="white"/>
<path d="M104.674 54.0623H88.5729C88.0604 54.0623 87.6079 53.5838 87.561 52.9949L86.6013 41.1035C86.5907 40.9809 86.5987 40.8642 86.622 40.7566H102.723C103.233 40.7566 103.686 41.2351 103.735 41.824L104.695 53.7152C104.705 53.8383 104.697 53.9547 104.674 54.0623Z" fill="#263238"/>
<path opacity="0.5" d="M104.674 54.0623H88.5729C88.0604 54.0623 87.6079 53.5838 87.561 52.9949L86.6013 41.1035C86.5907 40.9809 86.5987 40.8642 86.622 40.7566H102.723C103.233 40.7566 103.686 41.2351 103.735 41.824L104.695 53.7152C104.705 53.8383 104.697 53.9547 104.674 54.0623Z" fill="white"/>
<path d="M93.8389 51.2892L97.087 51.3037L96.4583 57.1547L99.6491 57.2043V57.8933L91.0557 57.9138V57.234L93.1267 57.1942L93.8389 51.2892Z" fill="#263238"/>
<path opacity="0.3" d="M97.0863 51.3037C97.0769 51.3911 97.8056 54.0623 97.8056 54.0623H96.79L97.0863 51.3037Z" fill="black"/>
<path opacity="0.3" d="M93.5037 54.0623L93.8382 51.2892L92.999 54.0623H93.5037Z" fill="black"/>
<path d="M85.7855 58.2112H84.6689V88.923H85.7855V58.2112Z" fill="#263238"/>
<path opacity="0.3" d="M85.7855 58.2112H84.6689V88.923H85.7855V58.2112Z" fill="white"/>
<path d="M77.7592 58.2112H76.6426V88.923H77.7592V58.2112Z" fill="#263238"/>
<path opacity="0.3" d="M77.7592 58.2112H76.6426V88.923H77.7592V58.2112Z" fill="white"/>
<path opacity="0.2" d="M76.6426 60.1534V62.1354L77.7594 61.6374V59.9846L76.6426 60.1534Z" fill="black"/>
<path opacity="0.2" d="M84.6689 60.1534V62.1354L85.7855 61.6374V59.9846L84.6689 60.1534Z" fill="black"/>
<path d="M109.578 58.2112H108.461V88.923H109.578V58.2112Z" fill="#263238"/>
<path opacity="0.3" d="M109.578 58.2112H108.461V88.923H109.578V58.2112Z" fill="white"/>
<path opacity="0.2" d="M108.461 60.1534V62.1354L109.578 61.6374V59.9846L108.461 60.1534Z" fill="black"/>
<path d="M119.829 58.2112H118.712V88.923H119.829V58.2112Z" fill="#263238"/>
<path opacity="0.3" d="M119.829 58.2112H118.712V88.923H119.829V58.2112Z" fill="white"/>
<path opacity="0.2" d="M118.712 60.132V62.1142L119.829 61.616V59.9634L118.712 60.132Z" fill="black"/>
<path d="M121.218 57.88H75.1953V60.1532H121.218V57.88Z" fill="#263238"/>
<path opacity="0.3" d="M121.218 57.88H110.422V60.1532H121.218V57.88Z" fill="black"/>
<path opacity="0.6" d="M93.8389 51.2892L97.087 51.3036L96.4583 57.1546L99.6491 57.2043V57.8932L91.0557 57.9137V57.234L93.1267 57.1942L93.8389 51.2892Z" fill="white"/>
<path d="M74.0946 75.3771C74.7001 74.6309 75.8703 74.1329 77.155 73.8932C77.0542 74.2608 77.1297 74.5996 77.3471 74.6829C77.5893 74.7758 77.9143 74.5157 78.0731 74.1018C78.1179 73.985 78.1428 73.8695 78.1524 73.7602C79.4478 73.6549 80.7431 73.8039 81.6076 74.2189C81.6076 74.2189 80.7613 74.9817 79.8025 76.9876C79.773 76.9865 79.7436 76.9855 79.7135 76.9858C79.0931 76.992 78.593 77.2917 78.5966 77.655C78.5994 77.9204 78.8706 78.1456 79.2582 78.2459C79.2078 78.3743 79.1575 78.5049 79.1075 78.6407C78.1943 81.1124 75.758 79.3255 75.7799 77.6338C75.7799 77.6338 72.7379 77.0493 74.0946 75.3771Z" fill="#407BFF"/>
<path d="M71.0933 72.1865C70.3473 71.381 68.9758 70.9009 67.4932 70.7238C67.6356 71.1353 67.5749 71.5273 67.3333 71.6386C67.064 71.7626 66.6741 71.4902 66.4622 71.0304C66.4024 70.9007 66.3654 70.7705 66.346 70.6467C64.8614 70.6235 63.3958 70.8903 62.4414 71.4281C62.4414 71.4281 63.4635 72.2344 64.7063 74.4496C64.7399 74.4462 64.7733 74.443 64.8076 74.4411C65.5154 74.4018 66.1077 74.7059 66.1307 75.1204C66.1475 75.4231 65.8551 75.7003 65.4208 75.8434C65.4878 75.986 65.5549 76.1312 65.6223 76.2823C66.8484 79.0317 69.4922 76.8126 69.3406 74.8856C69.3406 74.8856 72.7652 73.9916 71.0933 72.1865Z" fill="#407BFF"/>
<path d="M69.2816 71.5829C69.5983 70.0364 70.9265 68.4239 72.6171 67.1009C72.7489 67.7128 73.1158 68.1497 73.4956 68.1064C73.9191 68.0581 74.1956 67.4326 74.1132 66.7092C74.09 66.5051 74.0385 66.3177 73.9701 66.1511C75.7782 65.0159 77.7788 64.2515 79.3532 64.2009C79.3532 64.2009 78.6978 65.9542 78.8209 69.6039C78.7772 69.6246 78.7335 69.6456 78.69 69.6688C77.7906 70.1482 77.2889 70.9637 77.5695 71.4902C77.7745 71.8751 78.3408 71.9979 78.9815 71.85C79.0054 72.0754 79.0311 72.3039 79.0608 72.5397C79.603 76.834 74.6982 76.0765 73.4482 73.5944C73.4482 73.5944 68.5717 75.0484 69.2816 71.5829Z" fill="#407BFF"/>
<path opacity="0.2" d="M69.2816 71.5829C69.5983 70.0364 70.9265 68.4239 72.6171 67.1009C72.7489 67.7128 73.1158 68.1497 73.4956 68.1064C73.9191 68.0581 74.1956 67.4326 74.1132 66.7092C74.09 66.5051 74.0385 66.3177 73.9701 66.1511C75.7782 65.0159 77.7788 64.2515 79.3532 64.2009C79.3532 64.2009 78.6978 65.9542 78.8209 69.6039C78.7772 69.6246 78.7335 69.6456 78.69 69.6688C77.7906 70.1482 77.2889 70.9637 77.5695 71.4902C77.7745 71.8751 78.3408 71.9979 78.9815 71.85C79.0054 72.0754 79.0311 72.3039 79.0608 72.5397C79.603 76.834 74.6982 76.0765 73.4482 73.5944C73.4482 73.5944 68.5717 75.0484 69.2816 71.5829Z" fill="white"/>
<path d="M76.8398 67.1116C76.8844 67.062 76.9085 67.0365 76.9085 67.0365C76.8851 67.0613 76.8628 67.0866 76.8398 67.1116Z" fill="#263238"/>
<path d="M72.8153 81.3801C71.9985 76.8395 73.2188 71.9715 76.0809 68.353" stroke="#263238" stroke-width="0.75" stroke-miterlimit="10"/>
<path d="M66.7559 72.654C70.1889 74.4365 72.0856 78.2634 72.5932 79.752C72.5932 79.752 76.7965 76.7022 78.8231 75.4038" stroke="#263238" stroke-width="0.75" stroke-miterlimit="10" stroke-linecap="round" stroke-linejoin="round"/>
<path d="M77.8532 82.8312H67.5322L67.5364 80.9406H77.8426L77.8532 82.8312Z" fill="#263238"/>
<path d="M68.2803 82.2147L69.8928 88.923H75.8312L77.2691 82.2147H68.2803Z" fill="#263238"/>
<path opacity="0.3" d="M68.4287 82.8312H77.1374L76.978 83.5737H68.5835L68.4287 82.8312Z" fill="black"/>
<path d="M68.1074 80.5527C68.4134 80.5527 68.7195 80.5527 69.0255 80.5527" stroke="#407BFF" stroke-width="0.5" stroke-miterlimit="10" stroke-linecap="round" stroke-linejoin="round"/>
<path d="M69.4482 80.5527C70.2858 80.5527 71.1231 80.5527 71.9607 80.5527" stroke="#407BFF" stroke-width="0.5" stroke-miterlimit="10" stroke-linecap="round" stroke-linejoin="round"/>
<path d="M82.0155 53.019C81.7128 52.0729 79.9341 51.1647 80.0098 50.4835C80.0855 49.8024 80.0751 48.8942 80.0751 48.8942H78.3071C78.1557 49.0456 76.6421 52.0351 77.2098 55.5542L77.6952 57.9003H81.2589C81.2589 57.9003 82.3182 53.9649 82.0155 53.019Z" fill="#407BFF"/>
<path d="M80.1863 48.2046H78.084V49.0792H80.1863V48.2046Z" fill="#263238"/>
<path d="M76.6123 47.7728C76.6123 47.7728 76.8511 46.2141 77.9824 46.1262C79.1137 46.0383 81.2128 46.1262 81.2128 46.1262V47.1821H80.1857V48.2046H78.171V47.4462C78.171 47.4462 77.6682 47.094 76.6123 47.7728Z" fill="#263238"/>
<path d="M80.1855 47.8126C80.1855 47.8126 80.3473 48.6914 81.6548 48.7854L81.7056 48.5658C81.7056 48.5658 80.7084 48.2568 80.682 47.1821H80.1855V47.8126Z" fill="#263238"/>
<path opacity="0.3" d="M80.6668 51.4637L77.0836 53.2637C77.0836 53.2637 77.0647 54.6108 77.0836 54.5931C77.1024 54.5753 81.3777 52.1248 81.3629 52.1105C81.3482 52.096 80.6668 51.4637 80.6668 51.4637Z" fill="white"/>
<path opacity="0.3" d="M77.1826 55.3718L81.7037 52.4825C81.7037 52.4825 81.8852 52.7392 81.8781 52.728C81.871 52.7165 77.3052 55.922 77.3052 55.922L77.1826 55.3718Z" fill="white"/>
<path d="M45.0712 81.8484L45.0664 86.3582L47.3343 86.5211L48.1314 82.2845C47.0939 81.5926 46.0733 81.4274 45.0712 81.8484Z" fill="#B97964"/>
<path d="M45.1461 85.8875C44.9229 86.4826 44.9082 88.918 44.9082 88.918L49.7153 88.9231C50.001 88.0425 49.5588 87.4414 48.9982 87.3616C48.7572 87.3275 48.4738 87.0802 48.2672 86.864C48.2658 86.8359 47.9718 85.4833 47.7901 85.4187C47.7901 85.4187 47.665 85.2779 47.5582 85.4185C47.4515 85.5588 47.359 86.0161 47.359 86.0161C46.6089 85.0842 45.8737 85.2087 45.1461 85.8875Z" fill="#263238"/>
<path d="M45.0893 86.5945C45.6324 86.3944 46.2153 86.4705 46.689 86.8032C46.7718 86.8614 46.8505 86.7252 46.7683 86.6675C46.2639 86.313 45.6262 86.2299 45.0477 86.4432C44.9533 86.4777 44.9941 86.6295 45.0893 86.5945Z" fill="white"/>
<path d="M49.7006 88.5667L44.9642 88.5617C44.9207 88.5617 44.8857 88.5265 44.8857 88.483C44.8857 88.4397 44.9209 88.4045 44.9644 88.4045L49.7008 88.4096C49.7443 88.4096 49.7793 88.4448 49.7793 88.4883C49.7791 88.5317 49.7439 88.5667 49.7006 88.5667Z" fill="white"/>
<path d="M51.2246 81.8483L51.2197 86.3581L53.4876 86.521L54.2847 82.2844C53.2475 81.5925 52.2268 81.4273 51.2246 81.8483Z" fill="#B97964"/>
<path d="M51.2984 85.8875C51.0753 86.4826 51.0605 88.918 51.0605 88.918L55.8676 88.9231C56.1531 88.0425 55.7112 87.4414 55.1506 87.3616C54.9095 87.3275 54.6261 87.0802 54.4195 86.864C54.4181 86.8359 54.1242 85.4833 53.9424 85.4187C53.9424 85.4187 53.8173 85.2779 53.7106 85.4185C53.6038 85.5588 53.5113 86.0161 53.5113 86.0161C52.7614 85.0842 52.026 85.2087 51.2984 85.8875Z" fill="#263238"/>
<path d="M51.2387 86.5945C51.7818 86.3944 52.3647 86.4705 52.8384 86.8032C52.9212 86.8614 52.9999 86.7252 52.9177 86.6675C52.4133 86.313 51.7756 86.2299 51.1971 86.4432C51.1028 86.4777 51.1435 86.6295 51.2387 86.5945Z" fill="white"/>
<path d="M55.852 88.5669L51.1156 88.5618C51.0721 88.5618 51.0371 88.5266 51.0371 88.4831C51.0371 88.4399 51.0723 88.4047 51.1156 88.4047L55.852 88.4097C55.8955 88.4097 55.9304 88.4449 55.9304 88.4884C55.9304 88.5319 55.8955 88.5669 55.852 88.5669Z" fill="white"/>
<path d="M53.8682 40.4755C53.8682 40.4755 56.9481 45.3842 58.1107 52.8873C59.3617 60.9615 58.1107 72.7189 58.1107 72.7189H46.6538V57.4268L45.4951 42.3779L53.8682 40.4755Z" fill="#263238"/>
<path d="M44.3396 33.6341C44.2266 33.6306 43.4459 38.6047 43.4981 38.7507C43.6909 39.2888 49.4335 38.0873 49.4335 38.0873L49.7953 39.6228C49.7953 39.6228 47.2877 40.8404 44.5903 41.2807C41.8071 41.7348 40.766 40.5022 40.7531 38.6143C40.7413 36.8845 41.4567 32.6783 41.4567 32.6783L44.3396 33.6341Z" fill="#B97964"/>
<path d="M53.9648 42.3599L45.0691 41.8447C43.7668 43.5504 43.2541 46.8482 43.3452 49.6735C43.443 51.4818 43.7491 53.8334 44.0838 56.0834C44.5671 59.3329 45.1098 62.3703 45.1694 63.2511C45.1751 63.2515 45.2662 63.2506 45.2722 63.2511C45.2655 64.3918 44.554 68.236 44.5529 69.9483C44.5497 75.7823 44.4742 84.7233 44.4742 84.7233H48.7968C48.7968 84.7233 50.6396 64.6741 50.6787 63.4595C50.6831 63.3247 50.6884 63.1871 50.6941 63.0484L50.8154 60.9268C50.9458 58.9865 51.1197 56.8271 51.1742 54.6455L51.3762 51.108C53.9439 50.1828 55.1285 47.0492 55.561 46.3869C54.8143 43.9136 54.6128 43.428 53.9648 42.3599Z" fill="#263238"/>
<path d="M55.297 45.3313C55.297 45.3313 56.6105 49.8559 57.7248 60.677C57.9374 62.7416 57.2447 65.8629 56.9015 67.7929L54.5434 84.7431L50.3754 84.7231C50.7363 76.9258 51.3689 67.9376 52.1391 64.5977L47.165 47.6646L55.297 45.3313Z" fill="#263238"/>
<g opacity="0.4">
<path d="M53.9648 42.3599L45.0691 41.8447C43.7668 43.5504 43.2541 46.8482 43.3452 49.6735C43.443 51.4818 43.7491 53.8334 44.0838 56.0834C44.5671 59.3329 45.1098 62.3703 45.1694 63.2511C45.1751 63.2515 45.2662 63.2506 45.2722 63.2511C45.2655 64.3918 44.554 68.236 44.5529 69.9483C44.5497 75.7823 44.4742 84.7233 44.4742 84.7233H48.7968C48.7968 84.7233 50.6396 64.6741 50.6787 63.4595C50.6831 63.3247 50.6884 63.1871 50.6941 63.0484L50.8154 60.9268C50.9458 58.9865 51.1197 56.8271 51.1742 54.6455L51.3762 51.108C53.9439 50.1828 55.1285 47.0492 55.561 46.3869C54.8143 43.9136 54.6128 43.428 53.9648 42.3599Z" fill="white"/>
<path d="M55.297 45.3313C55.297 45.3313 56.6105 49.8559 57.7248 60.677C57.9374 62.7416 57.2447 65.8629 56.9015 67.7929L54.5434 84.7431L50.3754 84.7231C50.7363 76.9258 51.3689 67.9376 52.1391 64.5977L47.165 47.6646L55.297 45.3313Z" fill="white"/>
</g>
<path opacity="0.2" d="M52.1381 64.5977L50.4156 58.7341C49.8626 56.2999 49.1959 54.9312 48.6213 54.0713C48.6296 53.9783 48.5999 53.8771 48.5999 53.8771C48.5799 53.8824 48.4216 53.7281 48.1861 53.4826C47.983 53.2333 47.8026 53.0403 47.6588 52.8705L47.6927 52.9593C46.7237 51.9182 45.3281 50.3633 45.3281 50.3633C45.3281 50.3633 46.3881 52.7449 47.8371 53.8771C47.9462 53.9622 48.0382 54.026 48.1196 54.077L52.1381 64.5977Z" fill="black"/>
<path d="M54.6395 30.1325C55.731 32.2054 56.1577 34.0164 56.1577 34.0164L51.7928 34.8393C51.7928 34.8393 50.8317 30.3294 51.301 29.2103C51.7369 28.1715 52.05 28.6667 53.6241 29.2446C54.0602 29.4047 54.4232 29.7217 54.6395 30.1325Z" fill="#407BFF"/>
<path d="M43.2745 34.4754L41.9492 29.9566C42.7875 28.7054 46.9357 27.7441 46.9357 27.7441L49.6685 27.8936C49.6685 27.8936 50.7189 28.128 51.6181 28.4213C52.8186 28.8128 53.4678 29.1277 53.754 29.7939C53.754 29.7939 53.8782 32.2555 53.5771 35.2971C53.4942 36.1335 53.6815 39.5615 53.915 40.9978L55.2508 44.5038C47.4958 47.7358 43.9866 44.3908 43.9866 44.3908C44.2112 43.7042 44.7437 41.9074 44.8451 41.2361C44.7718 40.3799 44.7322 40.0241 44.3697 38.5249C44.2999 38.2353 43.3961 34.7565 43.2745 34.4754Z" fill="#407BFF"/>
<path d="M42.2935 29.5906C41.3218 30.1199 40.8682 33.5666 40.8682 33.5666L44.2566 35.0353C44.2566 35.0353 45.5692 32.0824 45.0079 30.7749C44.5306 29.6709 43.5265 28.9159 42.2935 29.5906Z" fill="#407BFF"/>
<path d="M63.2207 31.5267C63.3513 31.054 63.1595 30.5327 62.8202 30.1785C62.4811 29.8242 62.0146 29.617 61.5414 29.4886C61.223 29.4023 60.8856 29.3481 60.5637 29.4214C60.2419 29.4948 59.9383 29.718 59.847 30.0349C59.7761 30.2808 59.835 30.5597 59.7184 30.7876C59.6491 30.9233 59.5263 31.0223 59.4108 31.1219C59.2953 31.2212 59.1792 31.3316 59.1315 31.4766C59.0839 31.6213 59.1304 31.8083 59.2698 31.8699L59.1812 31.826C59.1387 32.5113 58.5882 33.0627 58.4352 33.7321C58.2933 34.3541 58.5249 35.029 58.9634 35.4928C59.4016 35.9565 60.0241 36.2208 60.6569 36.3016C61.2414 36.3763 61.8586 36.2974 62.3661 35.9977C62.6336 35.8397 62.879 35.6 62.932 35.2938C62.9927 34.9423 62.7919 34.6064 62.6313 34.2878C62.4298 33.8873 62.2803 33.4273 62.3957 32.9939C62.5411 32.4485 63.0702 32.0708 63.2207 31.5267Z" fill="#407BFF"/>
<g opacity="0.3">
<path d="M63.2207 31.5267C63.3513 31.054 63.1595 30.5327 62.8202 30.1785C62.4811 29.8242 62.0146 29.617 61.5414 29.4886C61.223 29.4023 60.8856 29.3481 60.5637 29.4214C60.2419 29.4948 59.9383 29.718 59.847 30.0349C59.7761 30.2808 59.835 30.5597 59.7184 30.7876C59.6491 30.9233 59.5263 31.0223 59.4108 31.1219C59.2953 31.2212 59.1792 31.3316 59.1315 31.4766C59.0839 31.6213 59.1304 31.8083 59.2698 31.8699L59.1812 31.826C59.1387 32.5113 58.5882 33.0627 58.4352 33.7321C58.2933 34.3541 58.5249 35.029 58.9634 35.4928C59.4016 35.9565 60.0241 36.2208 60.6569 36.3016C61.2414 36.3763 61.8586 36.2974 62.3661 35.9977C62.6336 35.8397 62.879 35.6 62.932 35.2938C62.9927 34.9423 62.7919 34.6064 62.6313 34.2878C62.4298 33.8873 62.2803 33.4273 62.3957 32.9939C62.5411 32.4485 63.0702 32.0708 63.2207 31.5267Z" fill="white"/>
</g>
<path d="M55.7796 34.0883L57.0161 37.1896L59.1547 34.3719L60.8287 35.0715C60.8287 35.0715 59.5172 37.2736 58.4821 39.5015C57.3798 41.8738 55.8919 41.4614 54.9925 39.8015C54.1685 38.2805 52.7949 34.6507 52.7949 34.6507L55.7796 34.0883Z" fill="#B97964"/>
<path d="M46.7659 24.0334C47.0058 25.2331 47.5529 27.6326 46.7227 28.4363C46.7227 28.4363 47.0562 29.6359 49.2733 29.6359C51.7087 29.6359 50.4299 28.4363 50.4299 28.4363C49.0982 28.1195 49.1247 27.1334 49.3526 26.2073L46.7659 24.0334Z" fill="#B97964"/>
<path d="M51.7848 21.8327C51.7553 21.8324 51.727 21.8207 51.7059 21.8C51.6645 21.7577 51.6645 21.69 51.7059 21.6477C51.9543 21.4071 52.3026 21.2992 52.6437 21.3569C52.7008 21.3701 52.7364 21.4269 52.7233 21.4839C52.7231 21.4851 52.7228 21.4862 52.7224 21.4874C52.7104 21.5447 52.6543 21.5815 52.5968 21.5695C52.5961 21.5693 52.5952 21.5693 52.5945 21.569C52.3237 21.5212 52.0468 21.6086 51.8524 21.8028C51.8351 21.8214 51.8105 21.8322 51.7848 21.8327Z" fill="#263238"/>
<path d="M52.1169 23.2216C52.1818 23.6681 52.3079 24.1036 52.4921 24.5156C52.2763 24.6046 52.0323 24.5927 51.8262 24.4829L52.1169 23.2216Z" fill="#A24E3F"/>
<path d="M52.0242 22.8763C51.9834 23.0558 52.046 23.2242 52.1629 23.2515C52.2797 23.2787 52.4076 23.1565 52.4348 22.9796C52.4619 22.803 52.4157 22.6343 52.2988 22.6044C52.1817 22.5745 52.0676 22.6969 52.0242 22.8763Z" fill="#263238"/>
<path d="M52.2607 22.5992L52.7174 22.5773C52.7174 22.5773 52.4211 22.8628 52.2607 22.5992Z" fill="#263238"/>
<path d="M46.161 20.8378C45.7886 23.0694 45.5847 24.0045 46.4329 25.3962C47.7105 27.4865 50.5264 27.4729 51.5539 25.3962C52.4808 23.5343 52.9321 20.199 50.9858 18.8155C49.6152 17.8236 47.6999 18.1307 46.708 19.5013C46.4218 19.8967 46.2344 20.3549 46.161 20.8378Z" fill="#B97964"/>
<path d="M48.9033 17.7599C50.765 16.995 52.709 17.5078 52.8965 19.4433C53.084 21.3786 50.9042 23.2216 50.9042 23.2216L48.9033 17.7599Z" fill="#263238"/>
<path d="M49.8004 22.7839C49.7494 23.2196 49.8715 23.6578 50.1402 24.0042C50.5018 24.4581 51.0183 24.2191 51.2002 23.7024C51.3661 23.2375 51.3741 22.4383 50.8768 22.1694C50.5138 21.9826 50.068 22.1255 49.881 22.4885C49.834 22.5805 49.8067 22.681 49.8004 22.7839Z" fill="#B97964"/>
<path opacity="0.3" d="M50.6778 22.7259C50.5869 22.7142 50.4967 22.7687 50.4461 22.8448C50.3955 22.921 50.3787 23.015 50.3771 23.1066C50.3716 23.3863 50.5011 23.6656 50.718 23.8423" stroke="black" stroke-width="0.5" stroke-miterlimit="10" stroke-linecap="round" stroke-linejoin="round"/>
<path opacity="0.3" d="M42.543 30.6705C42.5577 30.7169 43.0829 33.7946 44.1498 34.0755C44.6581 34.2093 48.7378 34.1357 48.7378 34.1357L49.0992 33.5685L49.7132 34.1357H52.3052L50.824 31.5559L50.9754 27.343L42.543 30.6705Z" fill="black"/>
<path d="M50.5075 23.1619C51.4235 21.4191 50.9039 18.2679 48.8807 17.6772C47.0613 17.1462 44.1769 17.69 44.2857 20.9464C44.3945 24.2028 43.6343 23.8621 42.8126 25.9534C41.95 28.1488 42.2028 31.039 43.6619 33.4047H47.691L48.4262 32.3461L49.2971 33.4047H52.795C51.0686 31.0093 52.1005 30.074 52.3098 27.8995C52.5189 25.7252 49.7201 24.6599 50.5075 23.1619Z" fill="#263238"/>
<path d="M46.3645 18.2787C46.2568 18.0296 46.0378 17.8051 45.7673 17.7878C45.6281 17.7791 45.4922 17.8249 45.3604 17.8704L45.3355 18.0425C45.2295 18.3121 45.0123 18.5198 44.8495 18.7593C44.6866 18.9987 44.5783 19.3192 44.7167 19.5736C44.8203 19.7638 45.0399 19.8667 45.2555 19.8897C45.6468 19.9311 46.0503 19.7335 46.2695 19.4066C46.4887 19.0797 46.5207 18.6399 46.3645 18.2787Z" fill="#407BFF"/>
<path d="M45.8938 19.494C46.0265 19.2028 46.1176 18.5391 46.0562 18.2911C45.9653 17.9249 45.7086 17.6194 45.4142 17.3836C45.2649 17.264 45.102 17.1575 44.9208 17.0963C44.6233 16.9958 44.2974 17.0236 43.991 17.092C43.6436 17.1692 43.2969 17.3036 43.0446 17.5546C42.7018 17.8952 42.5806 18.4404 42.7462 18.8943C42.9119 19.3481 43.3561 19.687 43.8378 19.7268C43.5364 19.8142 43.2496 19.9518 42.9928 20.1321C42.9703 20.148 42.9459 20.1675 42.9431 20.1951C42.9406 20.2211 42.9588 20.2446 42.977 20.2632C43.1355 20.4265 43.3772 20.4864 43.6043 20.473C43.8313 20.4599 44.0491 20.3821 44.2633 20.3055C44.1971 20.5257 44.131 20.7456 44.0648 20.9658C44.0443 21.0336 44.0238 21.1058 44.0432 21.1739C44.0866 21.3283 44.2928 21.3607 44.4503 21.3324C44.933 21.2464 45.3291 20.879 45.5646 20.4493C45.727 20.1526 45.8223 19.8264 45.8938 19.494Z" fill="#263238"/>
<path d="M54.9734 43.1381C54.5681 42.0724 53.6118 37.626 53.6118 37.626L49.3564 41.6595C48.5798 42.0586 47.5789 42.0432 46.7105 41.599C45.365 40.9105 44.5185 39.1521 44.5185 39.1521C44.5185 39.1521 44.6673 40.1893 44.6494 41.164C44.6312 42.1386 44.1631 43.5899 44.1631 43.5899C44.1631 43.5899 45.6652 43.1462 48.3136 42.9104C50.962 42.6746 55.9393 46.063 55.9393 46.063C55.9393 46.063 55.3787 44.2039 54.9734 43.1381Z" fill="#263238"/>
<path d="M48.3882 42.0999C48.2203 40.6645 47.6169 39.3006 46.642 38.2293C46.4596 38.0288 46.192 37.818 45.9484 38.0695C45.7361 38.2887 45.7669 38.6519 45.8205 38.925C45.9592 39.6351 46.4513 40.2955 46.895 40.8485C47.4197 41.5025 48.0445 42.0677 48.7388 42.537C48.9233 42.6617 49.096 42.3629 48.9129 42.2391C47.9155 41.5651 47.0634 40.6659 46.4685 39.6172C46.3084 39.3349 46.1621 39.026 46.1334 38.6979C46.1263 38.6156 46.1016 38.3147 46.227 38.3216C46.3271 38.3269 46.4736 38.5569 46.5359 38.6301C46.918 39.0784 47.235 39.5824 47.4832 40.1163C47.7738 40.7409 47.9629 41.4156 48.0429 42.0997C48.0687 42.3178 48.414 42.3205 48.3882 42.0999Z" fill="#263238"/>
<path d="M48.3231 42.2219C48.8729 41.9346 49.1644 41.3733 49.382 40.8178C49.6585 40.1116 49.8434 39.3706 49.9359 38.618C49.9663 38.3714 49.9778 38.0624 49.7528 37.8979C49.5223 37.7296 49.243 37.84 49.0514 38.013C48.5704 38.4468 48.3144 39.1671 48.2001 39.7865C48.0399 40.6531 48.1262 41.5339 48.2164 42.403C48.2392 42.6217 48.5844 42.624 48.5614 42.403C48.4786 41.6041 48.3875 40.7854 48.5141 39.9862C48.5683 39.6428 48.6606 39.3 48.8071 38.9839C48.878 38.8312 48.961 38.6833 49.0565 38.5446C49.1331 38.4332 49.2874 38.1873 49.4365 38.1673C49.7654 38.1232 49.5423 38.9545 49.5085 39.1323C49.4376 39.5038 49.3433 39.8707 49.2267 40.2303C49.0238 40.8555 48.7696 41.5994 48.149 41.924C47.9521 42.0269 48.1264 42.325 48.3231 42.2219Z" fill="#263238"/>
<path d="M47.6243 42.686C47.6799 42.7046 47.7358 42.7235 47.7915 42.7421C47.7492 42.6867 47.7071 42.6312 47.6648 42.5758C47.4078 44.5205 47.3045 46.4809 47.3554 48.4417C47.3611 48.6635 47.7062 48.6642 47.7004 48.4417C47.6496 46.4809 47.7529 44.5203 48.0098 42.5758C48.0199 42.499 47.9484 42.4313 47.8831 42.4095C47.8274 42.3909 47.7715 42.372 47.7158 42.3534C47.5051 42.2823 47.4145 42.6156 47.6243 42.686Z" fill="#263238"/>
<path d="M47.7893 42.6808C48.2653 44.548 48.9556 46.3537 49.844 48.0636C49.9464 48.2607 50.2443 48.0864 50.1419 47.8895C49.2668 46.2051 48.5908 44.4281 48.1222 42.589C48.0672 42.3741 47.7343 42.4652 47.7893 42.6808Z" fill="#263238"/>
<path d="M59.1686 34.4119C59.1686 34.4119 58.7911 33.8474 58.9068 33.2981C59.0225 32.7485 58.9687 32.279 59.0828 31.8764C59.1971 31.4739 59.4354 31.9859 59.5072 32.2838C59.579 32.5817 59.6634 32.919 59.8785 32.8288C60.0936 32.7389 61.3132 31.1461 61.6256 31.0552C61.938 30.9641 61.8214 31.2834 61.8214 31.2834C61.8214 31.2834 62.128 30.9045 62.3111 30.9853C62.3587 31.0062 62.4353 31.1321 62.3226 31.3267C62.0691 31.7642 61.4899 32.6553 61.4899 32.6553C61.5221 32.6036 62.3157 31.5546 62.4549 31.4132C62.6371 31.2282 62.8174 31.2337 62.9212 31.3428C63.0691 31.498 62.1294 32.832 62.1291 32.916C62.1291 32.916 62.6444 32.1299 62.92 32.1518C63.1958 32.1739 62.8984 32.6864 62.5503 33.0885C62.2313 33.457 61.702 34.2638 61.3413 34.607C60.8968 35.03 60.5035 35.214 59.97 34.9987C59.4366 34.7832 59.1686 34.4119 59.1686 34.4119Z" fill="#B97964"/>
</svg>
