<svg width="136" height="90" viewBox="0 0 136 90" fill="none" xmlns="http://www.w3.org/2000/svg">
<path d="M135.612 88.6355C135.612 89.3889 105.341 90 68 90C30.6587 90 0.387695 89.3891 0.387695 88.6355C0.387695 87.8821 30.6587 87.2712 68 87.2712C105.341 87.2712 135.612 87.8821 135.612 88.6355Z" fill="#CADCED"/>
<path d="M83.246 79.177H60.8262L64.0685 73.1502H86.4885L83.246 79.177Z" fill="#C94747"/>
<path d="M74.1238 79.1034L75.4589 78.2729L75.494 77.488L74.4914 78.1116L73.4889 77.5806L73.456 76.4466L74.4586 75.823L73.7388 75.5074L72.4037 76.3378L72.4007 77.0823L72.3122 77.1374L66.4323 80.7945L65.5528 80.4559L64.2175 81.2864L64.1826 82.0715L65.1853 81.4479L66.1875 81.979L66.2207 83.1127L65.218 83.7363L65.9378 84.052L67.2729 83.2215L67.2759 82.4772L73.2444 78.7648L74.1238 79.1034Z" fill="#AAB8C4"/>
<path d="M66.9318 80.6496C66.0226 80.9446 65.1142 81.2415 64.2062 81.5401L64.1826 82.0716L65.1853 81.448L66.1877 81.979L66.2207 83.113L65.218 83.7366L65.9376 84.0522L67.2727 83.2217L67.2757 82.4772L73.2442 78.765L74.1236 79.1036L75.4587 78.2731L75.4751 77.9056C72.5759 78.633 69.7718 79.7279 66.9318 80.6496Z" fill="#8F9BA5"/>
<path d="M69.2252 81.2634L68.0487 82.3812C67.8818 82.5395 67.6181 82.5329 67.4598 82.366L62.7864 77.4464C62.6281 77.2796 62.6347 77.0159 62.8015 76.8575L63.9781 75.7399C64.1449 75.5814 64.4086 75.5882 64.567 75.755L69.2404 80.6747C69.3989 80.8413 69.3921 81.105 69.2252 81.2634Z" fill="#F89334"/>
<path d="M67.4839 81.7091C67.3962 81.7923 67.2577 81.7887 67.1744 81.7012L63.4752 77.807C63.392 77.7193 63.3956 77.5808 63.4831 77.4978C63.5707 77.4146 63.7093 77.4182 63.7923 77.5056L67.4916 81.3998C67.575 81.4873 67.5716 81.6259 67.4839 81.7091Z" fill="#CF7A2B"/>
<path d="M68.0335 81.187C67.9458 81.2702 67.8075 81.2666 67.7242 81.1792L64.025 77.2849C63.9418 77.1973 63.9454 77.0587 64.0329 76.9755C64.1206 76.8923 64.2589 76.8959 64.3423 76.9834L68.0416 80.8776C68.1248 80.9655 68.1212 81.1038 68.0335 81.187Z" fill="#CF7A2B"/>
<path d="M68.5833 80.6651C68.4956 80.7483 68.357 80.7447 68.274 80.6572L64.5748 76.763C64.4916 76.6754 64.4952 76.537 64.5827 76.4538C64.6704 76.3706 64.8089 76.3742 64.8921 76.4617L68.5914 80.3559C68.6746 80.4433 68.671 80.5819 68.5833 80.6651Z" fill="#CF7A2B"/>
<path d="M74.675 83.3104L73.8711 81.9006C73.7573 81.7007 73.8269 81.4464 74.0267 81.3323L79.9213 77.9713C80.1212 77.8574 80.3755 77.927 80.4896 78.1269L81.2935 79.5367C81.4073 79.7365 81.3377 79.9908 81.1379 80.1049L75.2433 83.466C75.0432 83.5801 74.7889 83.5103 74.675 83.3104Z" fill="#F8897A"/>
<path d="M74.6586 81.5133C74.5988 81.4084 74.6354 81.2748 74.7403 81.215L79.4063 78.5545C79.5112 78.4947 79.6449 78.5313 79.7047 78.6363C79.7645 78.7412 79.7279 78.8749 79.6229 78.9347L74.957 81.5951C74.8521 81.6549 74.7184 81.6183 74.6586 81.5133Z" fill="#CF7265"/>
<path d="M75.0346 82.1716C74.9748 82.0667 75.0114 81.933 75.1163 81.8732L79.7822 79.2128C79.8872 79.153 80.0208 79.1896 80.0806 79.2945C80.1404 79.3994 80.1038 79.5331 79.9989 79.5929L75.333 82.2533C75.228 82.3131 75.0946 82.2765 75.0346 82.1716Z" fill="#CF7265"/>
<path d="M75.4096 82.8301C75.3498 82.7252 75.3864 82.5915 75.4913 82.5317L80.1572 79.8713C80.2622 79.8115 80.3958 79.8481 80.4556 79.953C80.5154 80.058 80.4788 80.1916 80.3739 80.2514L75.708 82.9118C75.603 82.9716 75.4694 82.935 75.4096 82.8301Z" fill="#CF7265"/>
<path d="M81.6412 88.72H75.3701V80.7188H83.3714V86.9899C83.3711 87.9455 82.5966 88.72 81.6412 88.72Z" fill="#F15555"/>
<path d="M76.0718 88.72H61.0619C60.1065 88.72 59.332 87.9455 59.332 86.9901V80.719H77.8019V86.9901C77.8019 87.9455 77.0272 88.72 76.0718 88.72Z" fill="#FF5A5A"/>
<path opacity="0.72" d="M83.3718 80.7188H77.8018V81.535H83.3718V80.7188Z" fill="#B8CDE0"/>
<path opacity="0.72" d="M77.8017 80.7188H59.332V81.535H77.8017V80.7188Z" fill="#B8CDE0"/>
<path d="M84.146 78.8405H76.3072C76.0626 78.8405 75.8643 79.0389 75.8643 79.2834V80.2761C75.8643 80.5206 76.0624 80.719 76.3072 80.719H84.146C84.3906 80.719 84.5889 80.5208 84.5889 80.2761V79.2834C84.5887 79.0389 84.3906 78.8405 84.146 78.8405Z" fill="#F15555"/>
<path d="M78.0724 78.8405H58.5572C58.3126 78.8405 58.1143 79.0389 58.1143 79.2834V80.2761C58.1143 80.5206 58.3126 80.719 58.5572 80.719H78.0724C78.317 80.719 78.5154 80.5208 78.5154 80.2761V79.2834C78.5154 79.0389 78.317 78.8405 78.0724 78.8405Z" fill="#FF5A5A"/>
<path d="M86.1434 73.1502H64.0678L63.7236 71.9473H86.1434V73.1502Z" fill="#FF5A5A"/>
<path d="M83.2457 79.177L81.9521 79.7797L86.1439 71.9473L86.4883 73.1502L83.2457 79.177Z" fill="#F15555"/>
<path d="M60.8258 79.177L59.5322 79.7797L63.724 71.9473L64.0681 73.1502L60.8258 79.177Z" fill="#F15555"/>
<path d="M119.407 33.5773H121.507C121.828 33.5773 122.089 33.8376 122.089 34.1588V34.9305H118.825V34.1588C118.825 33.8376 119.085 33.5773 119.407 33.5773Z" fill="#8CAFD4"/>
<path d="M112.873 88.6424H123.287V64.0985H112.873V88.6424Z" fill="#E8F4FF"/>
<path d="M96.0637 73.0817L113.697 64.0986L121.176 73.0817V88.6425H100.477H92.1582L95.7817 79.9587C96.6933 77.7733 96.7933 75.3341 96.0637 73.0817Z" fill="#E8F4FF"/>
<path d="M92.9548 86.733L92.1582 88.6423H123.287V86.733H92.9548Z" fill="#E8F4FF"/>
<path d="M111.221 75.7402C105.896 75.7402 96.5334 75.7402 96.5334 75.7402C96.4974 74.8431 96.3442 73.9486 96.0635 73.0817L113.244 64.3289C114.313 66.473 115.191 69.3337 115.191 71.2224C115.191 72.8233 114.189 75.7402 111.221 75.7402Z" fill="#E8F4FF"/>
<path d="M109.256 58.9937H123.287V57.8446H109.256V58.9937Z" fill="#BBD6F2"/>
<path d="M108.772 64.0984H123.287V58.9936H108.772V64.0984Z" fill="white"/>
<path d="M116.03 58.9938H123.287V37.6761H112.873L116.03 58.9938Z" fill="white"/>
<path d="M123.287 37.6761H112.873V38.8875H123.287V37.6761Z" fill="#E8F4FF"/>
<path d="M118.08 58.9937H123.287V37.676H118.08V58.9937Z" fill="#E8F4FF"/>
<path d="M113.982 34.3101H123.287V37.6761H112.911C112.277 37.6761 111.764 37.1625 111.764 36.5289C111.763 35.3034 112.757 34.3101 113.982 34.3101Z" fill="white"/>
<path d="M97.6037 73.1502H109.322C111.738 73.1502 113.697 71.1915 113.697 68.7754V58.5952C113.697 57.9022 113.135 57.3405 112.442 57.3405H82.393L81.2448 59.7522C80.8255 60.6329 80.814 61.6534 81.2135 62.5432C84.1118 68.9978 90.5283 73.1502 97.6037 73.1502Z" fill="white"/>
<path d="M80.9466 61.5591C80.8766 60.947 80.9747 60.3206 81.2455 59.7522L82.3937 57.3405H112.443C113.136 57.3405 113.697 57.9022 113.697 58.5952V61.5591H80.9466Z" fill="#E8F4FF"/>
<path d="M81.6064 58.9938L82.3937 57.3405H112.443C113.136 57.3405 113.697 57.9022 113.697 58.5952V58.9938H81.6064Z" fill="#E8F4FF"/>
<path d="M92.0337 54.1276H107.829C109.454 54.1276 110.997 54.8376 112.054 56.0712L113.697 57.9891H81.5459C81.1745 57.9891 80.8457 57.7488 80.7329 57.3948C80.592 56.9528 80.8301 56.479 81.269 56.3285L83.5676 55.5398C86.2921 54.6048 89.153 54.1276 92.0337 54.1276Z" fill="white"/>
<path opacity="0.72" d="M47.3047 30.7301V2.15494C47.3047 1.31297 47.9872 0.630417 48.8292 0.630417H71.123C71.965 0.630417 72.6476 1.31297 72.6476 2.15494V30.7301C72.6476 31.5721 71.965 32.2546 71.123 32.2546H48.829C47.9872 32.2544 47.3047 31.5718 47.3047 30.7301Z" fill="#B8CDE0"/>
<path d="M46.7529 30.0997V1.52452C46.7529 0.682555 47.4355 0 48.2775 0H70.5713C71.4132 0 72.0958 0.682555 72.0958 1.52452V30.0997C72.0958 30.9416 71.4132 31.6242 70.5713 31.6242H48.2775C47.4355 31.624 46.7529 30.9414 46.7529 30.0997Z" fill="white"/>
<path d="M70.8658 1.91123V29.7123C70.8658 30.0884 70.561 30.3932 70.1849 30.3932H48.6633C48.2872 30.3932 47.9824 30.0884 47.9824 29.7123V1.91123C47.9824 1.53515 48.2872 1.23038 48.6633 1.23038H70.1849C70.561 1.23038 70.8658 1.53515 70.8658 1.91123Z" fill="#ADE2FF"/>
<path opacity="0.29" d="M62.3129 30.394H50.082L63.6674 1.23018H70.8652V11.2814L62.3129 30.394Z" fill="white"/>
<path opacity="0.29" d="M61.2364 1.23038L47.9824 30.3934V25.8422L59.1679 1.23038H61.2364Z" fill="white"/>
<path d="M50.4639 51.3357C51.4361 50.3456 53.8109 49.3293 54.0984 48.7112C54.5 47.8482 54.6733 47.1182 55.4188 46.5648C56.1642 46.0115 56.7667 45.414 57.167 44.963C57.5674 44.512 58.0667 44.2483 58.6833 44.282C59.2996 44.3156 58.719 45.181 58.3297 45.4264C57.9405 45.6718 57.5618 46.3907 57.5065 46.7391C57.4512 47.0877 58.8895 47.1663 59.7702 47.0203C60.6509 46.8745 61.5242 47.0918 62.2359 47.1548C62.9476 47.2178 63.1783 47.6547 63.1783 47.6547C63.1783 47.6547 63.6846 47.7067 64.0549 48.03C64.4253 48.3532 63.8636 48.6499 63.8636 48.6499C63.8636 48.6499 63.9477 48.8849 63.588 49.035C63.2283 49.185 62.5753 48.9311 62.5753 48.9311C62.5753 48.9311 62.4427 49.3604 61.6357 49.2678C60.8286 49.1752 59.412 49.3646 58.4687 49.5434C57.5255 49.7222 56.44 50.6508 55.7247 50.4299C55.0093 50.2089 52.4111 53.5719 52.4111 53.5719L50.4639 51.3357Z" fill="#FEC4AD"/>
<path d="M42.7032 53.0053C44.5274 52.7233 50.8132 50.2685 53.7541 49.0865C54.3741 50.3486 54.6231 50.8047 55.3019 51.503C50.3646 54.7174 46.5544 57.0458 43.4141 57.9844C42.511 58.2542 41.3715 58.3885 40.0867 58.4158C36.719 58.4873 31.4501 58.4217 27.7285 57.5404L29.2807 51.7271C29.2807 51.7271 40.7352 53.3095 42.7032 53.0053Z" fill="#FFBC00"/>
<path opacity="0.72" d="M71.2178 64.2522C70.4013 64.2522 69.6794 64.6505 69.2303 65.2615C69.2233 65.2711 69.2159 65.2804 69.2091 65.29C69.1763 65.336 69.1456 65.3834 69.1158 65.4318C69.1084 65.4439 69.1003 65.4554 69.0931 65.4675H66.051V65.1781C66.051 65.0697 65.9631 64.9818 65.8548 64.9818H65.3276H65.2821H64.9788V65.2851V65.4675H61.1982V67.973H64.9788V68.1554V68.4587H65.2821H65.3276H65.8548C65.9631 68.4587 66.051 68.3708 66.051 68.2624V67.973H66.9841H69.0924C69.1014 67.9879 69.1116 68.0019 69.1207 68.0168C69.1444 68.0551 69.168 68.0932 69.1937 68.1301C69.208 68.1505 69.2233 68.1696 69.2382 68.1897C69.268 68.2297 69.2976 68.2699 69.3297 68.308C69.7824 68.8458 70.4599 69.1885 71.218 69.1885C72.581 69.1885 73.686 68.0835 73.686 66.7205C73.6858 65.3573 72.5808 64.2522 71.2178 64.2522Z" fill="#B8CDE0"/>
<path opacity="0.72" d="M74.8652 40.9645H47.471C46.9002 40.9645 46.4375 41.4272 46.4375 41.998V43.3388C46.4375 43.9097 46.9002 44.3724 47.471 44.3724H47.6479L48.6446 45.468L51.0577 48.1212C52.1961 49.3712 53.8075 50.0839 55.4978 50.0839H66.8384C68.5287 50.0839 70.1401 49.3712 71.2785 48.1212L73.6916 45.468L74.6883 44.3724H74.865C75.4358 44.3724 75.8985 43.9097 75.8985 43.3388V41.998C75.8987 41.4274 75.436 40.9645 74.8652 40.9645Z" fill="#B8CDE0"/>
<path d="M71.3791 68.2975C72.7422 68.2975 73.8472 67.1926 73.8472 65.8295C73.8472 64.4665 72.7422 63.3615 71.3791 63.3615C70.0161 63.3615 68.9111 64.4665 68.9111 65.8295C68.9111 67.1926 70.0161 68.2975 71.3791 68.2975Z" fill="#8CAFD4"/>
<path d="M71.3782 67.9685C72.5595 67.9685 73.5172 67.0108 73.5172 65.8295C73.5172 64.6482 72.5595 63.6906 71.3782 63.6906C70.1969 63.6906 69.2393 64.6482 69.2393 65.8295C69.2393 67.0108 70.1969 67.9685 71.3782 67.9685Z" fill="#E8F4FF"/>
<path d="M71.4517 64.2226H69.5083C69.1369 64.6547 68.9111 65.2153 68.9111 65.8295C68.9111 66.4344 69.1295 66.9877 69.4909 67.417H71.4517C72.3339 67.417 73.049 66.7019 73.049 65.8197C73.0488 64.9377 72.3337 64.2226 71.4517 64.2226Z" fill="#B8CDE0"/>
<path d="M72.9966 66.2081C73.2082 65.3146 72.6555 64.4188 71.762 64.2071C70.8686 63.9955 69.9728 64.5482 69.7611 65.4417C69.5495 66.3351 70.1022 67.2309 70.9956 67.4426C71.8891 67.6542 72.7849 67.1015 72.9966 66.2081Z" fill="#E8F4FF"/>
<path d="M72.4822 65.8295C72.4822 66.5215 71.9214 67.0823 71.2295 67.0823H61.3594V64.5768H71.2295C71.9214 64.5768 72.4822 65.1376 72.4822 65.8295Z" fill="#E8F4FF"/>
<path d="M67.1454 64.5768H66.0127V67.0823H67.1454V64.5768Z" fill="#E8F4FF"/>
<path d="M61.3594 64.5768V67.0823H63.1099V64.5768H61.3594Z" fill="#B8CDE0"/>
<path d="M66.2119 64.2874V67.3717C66.2119 67.4801 66.124 67.568 66.0157 67.568H65.4429C65.2754 67.568 65.1396 67.4322 65.1396 67.2649V64.3944C65.1396 64.2269 65.2754 64.0911 65.4429 64.0911H66.0157C66.124 64.0911 66.2119 64.179 66.2119 64.2874Z" fill="#E8F4FF"/>
<path d="M65.1396 64.091V67.5678H65.4885V64.091H65.1396Z" fill="#E8F4FF"/>
<path d="M61.1686 49.3622H58.6631V63.29H61.1686V49.3622Z" fill="#E8F4FF"/>
<path d="M61.1686 54.0152H58.6631V55.1478H61.1686V54.0152Z" fill="#8CAFD4"/>
<path d="M61.1686 62.9169H58.6631V63.29H61.1686V62.9169Z" fill="#E8F4FF"/>
<path d="M61.1686 49.3622H58.6631V50.4228H61.1686V49.3622Z" fill="#E8F4FF"/>
<path d="M59.9157 69.5898C58.8311 69.5898 57.9521 68.7106 57.9521 67.6262V63.6801H61.8796V67.6262C61.8793 68.7106 61.0003 69.5898 59.9157 69.5898Z" fill="#E8F4FF"/>
<path d="M61.8793 63.6801H57.9521V65.3425H61.8793V63.6801Z" fill="#E8F4FF"/>
<path d="M61.7596 48.6024H58.0712C57.9629 48.6024 57.875 48.5145 57.875 48.4062V47.1058H61.9559V48.4062C61.9559 48.5145 61.868 48.6024 61.7596 48.6024Z" fill="#8CAFD4"/>
<path d="M61.7596 48.6024H58.0712C57.9629 48.6024 57.875 48.5145 57.875 48.4062V47.1058H61.9559V48.4062C61.9559 48.5145 61.868 48.6024 61.7596 48.6024Z" fill="#B8CDE0"/>
<path d="M61.4583 49.6746H58.374C58.2656 49.6746 58.1777 49.5867 58.1777 49.4784V48.6026H61.6546V49.4784C61.6546 49.5867 61.5667 49.6746 61.4583 49.6746Z" fill="#E8F4FF"/>
<path d="M61.6546 48.6024H58.1777V48.9512H61.6546V48.6024Z" fill="#E8F4FF"/>
<path d="M61.4583 54.215H58.374C58.2656 54.215 58.1777 54.1271 58.1777 54.0188V53.4461C58.1777 53.2786 58.3135 53.1428 58.481 53.1428H61.3515C61.519 53.1428 61.6548 53.2786 61.6548 53.4461V54.0188C61.6546 54.1271 61.5667 54.215 61.4583 54.215Z" fill="#E8F4FF"/>
<path d="M61.6546 53.143H58.1777V53.4918H61.6546V53.143Z" fill="#E8F4FF"/>
<path d="M73.2204 41.7668L72.2231 42.8633L69.81 45.5165C68.6715 46.7664 67.0602 47.4792 65.3698 47.4792H54.0293C52.3387 47.4792 50.7276 46.7664 49.5891 45.5165L47.176 42.8633L46.1787 41.7668H73.2204Z" fill="#E8F4FF"/>
<path d="M73.2206 41.7668L72.2233 42.8633H47.176L46.1787 41.7668H73.2206Z" fill="#E8F4FF"/>
<path d="M73.3964 41.7675H46.0023C45.4314 41.7675 44.9688 41.3048 44.9688 40.734V39.3931C44.9688 38.8223 45.4314 38.3596 46.0023 38.3596H73.3964C73.9672 38.3596 74.4299 38.8223 74.4299 39.3931V40.734C74.4299 41.3048 73.9672 41.7675 73.3964 41.7675Z" fill="white"/>
<path d="M61.9376 64.0911H57.8927C57.6716 64.0911 57.4922 63.9116 57.4922 63.6905C57.4922 63.4694 57.6716 63.29 57.8927 63.29H61.9376C62.1588 63.29 62.3382 63.4694 62.3382 63.6905C62.3384 63.9116 62.159 64.0911 61.9376 64.0911Z" fill="#E8F4FF"/>
<path d="M68.0004 37.4051H66.0547V38.3607H68.0004V37.4051Z" fill="#E8F4FF"/>
<path d="M68.0004 37.4051H66.0547V37.8829H68.0004V37.4051Z" fill="#E8F4FF"/>
<path d="M68.26 36.7023H65.7939V37.4049H68.26V36.7023Z" fill="#E8F4FF"/>
<path d="M53.9047 37.4051H51.959V38.3607H53.9047V37.4051Z" fill="#E8F4FF"/>
<path d="M53.9047 37.4051H51.959V37.8829H53.9047V37.4051Z" fill="#E8F4FF"/>
<path d="M54.1653 36.7023H51.6992V37.4049H54.1653V36.7023Z" fill="#E8F4FF"/>
<path d="M55.2217 33.9075V34.071C55.2217 34.2093 55.2883 34.3223 55.3732 34.3281C56.0862 34.3755 59.1125 34.7912 60.0585 38.4209H63.4413C63.4413 38.4209 61.1016 33.9812 56.8035 33.0751C56.5004 33.0113 56.1828 32.9649 55.85 32.9389C55.5088 32.9121 55.2217 33.3522 55.2217 33.9075Z" fill="#E8F4FF"/>
<path d="M61.593 38.42H60.0587C59.4426 36.0574 57.9447 35.0558 56.7775 34.6327C56.1524 34.4058 55.6216 34.3445 55.3726 34.3281C55.2883 34.3219 55.2217 34.2096 55.2217 34.0706V33.8929C55.223 33.7375 55.2494 33.5923 55.2909 33.4636C57.0516 33.441 58.7909 34.2934 60.2096 36.0367C60.7656 36.7195 61.2095 37.5351 61.593 38.42Z" fill="#E8F4FF"/>
<path d="M56.7775 34.6327C56.1524 34.4058 55.6216 34.3445 55.3726 34.3281C55.2883 34.3219 55.2217 34.2095 55.2217 34.0706V33.8929H56.2392C56.5095 33.8929 56.736 34.2117 56.7775 34.6327Z" fill="#8CAFD4"/>
<path d="M31.5685 74.3606C31.5685 74.3606 41.5657 79.9577 45.3728 82.1077C49.18 84.2576 48.7414 87.3398 48.7254 88.4753L21.6126 88.3825L22.6678 84.0922C22.6678 84.0922 32.5337 86.0405 35.2892 86.6894C35.2892 86.6894 26.7838 85.7189 22.6678 84.0922C18.5516 82.4655 16.8281 80.474 16.8281 80.474L31.5685 74.3606Z" fill="#003D7D"/>
<path d="M20.5321 84.4046L17.9141 83.7989C17.9141 83.7989 13.5751 85.5709 12.4775 86.6423C12.1361 86.9756 11.2909 87.9127 11.5523 88.3122C11.8392 88.7504 12.4966 88.3122 13.647 88.3122C14.6116 88.3122 17.2428 88.3024 18.0618 88.3024C19.0002 88.3024 20.2178 88.3056 20.2178 88.3056L20.5321 84.4046Z" fill="#133A50"/>
<path d="M20.1704 84.3508L19.9746 88.7109L23.776 88.7201L24.5984 83.8498L20.1704 84.3508Z" fill="#2873AC"/>
<path d="M29.7356 45.4999C29.7356 45.4999 27.7882 46.9995 26.5936 48.2037C26.0728 48.7288 26.0796 48.842 25.3096 48.842L31.8493 54.2599C31.8493 54.2599 30.8228 52.9394 31.2097 51.7601C31.5581 50.6987 33.081 48.2565 34.1349 47.4792L29.7356 45.4999Z" fill="#FEC4AD"/>
<path d="M29.2004 46.762C28.921 48 30.1644 50.2218 30.8095 51.4575C30.9169 51.6633 31.0282 51.8685 31.1432 52.0722C31.157 51.9679 31.1768 51.8636 31.2106 51.7604C31.5591 50.699 33.0819 48.2567 34.1358 47.4794L29.7366 45.4999C29.7366 45.4999 29.542 45.6497 29.239 45.8921C29.2775 46.1607 29.2707 46.4508 29.2004 46.762Z" fill="#F0B9A3"/>
<path d="M37.0925 44.35C37.1991 44.6464 37.9227 46.0488 37.8468 46.3176C37.7414 46.6905 36.7707 46.5021 36.5302 46.8099C36.1411 47.3079 36.398 47.7019 36.1824 48.2665C35.921 48.9508 36.0217 49.9281 35.5801 50.3289C34.8439 50.9967 32.7967 50.4197 31.8285 49.9241C29.5344 48.7499 27.7755 46.2312 28.3738 43.1183C28.5877 42.0052 29.4049 40.8123 30.2258 40.0133C31.1906 39.0743 32.9212 38.9832 33.9781 39.2607C34.6121 39.4274 35.1883 39.9428 35.615 40.4136C36.0015 40.8399 36.63 41.4167 36.7815 42.0158C36.7817 42.0163 36.8524 43.6821 37.0925 44.35Z" fill="#FEC4AD"/>
<path d="M27.1596 39.8004C27.1519 39.7972 27.094 39.4452 27.6197 38.4649C28.4996 36.8239 32.338 36.8384 35.114 37.3852C36.0394 37.5674 36.9712 36.8544 37.47 37.4316C37.8529 37.8745 37.5869 40.6913 36.9803 41.2885C35.9691 42.2837 32.9505 41.3701 31.8072 40.8903C30.9846 40.5451 32.0405 41.8457 32.2026 42.4927C32.3082 42.9139 31.7304 44.404 31.672 44.693C30.7322 44.4517 31.1193 43.6663 30.4427 43.0655C29.8176 42.5104 29.1515 43.3573 29.3475 44.0547C29.651 45.1353 30.4895 45.2419 30.4895 45.2419C30.4563 45.8174 30.0526 46.405 30.0526 46.405C30.0526 46.405 28.3072 47.1331 27.9445 46.759C27.6718 46.4776 26.4672 44.0573 26.1605 43.3692C25.5061 41.9002 25.9062 40.6881 27.1596 39.8004Z" fill="#411919"/>
<path d="M25.3097 48.8422C25.3097 48.8422 24.1097 48.8831 22.1629 51.1542C13.0211 61.8195 16.8281 80.4741 16.8281 80.4741C16.8281 80.4741 24.9725 82.1299 30.9757 72.8363C30.9757 72.8363 30.1916 70.117 30.5062 66.1221C30.8601 61.6264 32.2819 55.6795 31.5644 53.3249C31.2794 52.3895 30.238 52.0894 29.2807 51.3104C27.0824 49.5216 25.3097 48.8422 25.3097 48.8422Z" fill="#FFBC00"/>
<path d="M24.1525 49.3368C24.6133 49.3328 26.8531 48.9218 30.4419 53.9202C30.9531 54.6321 31.4925 55.102 31.7485 55.7441C31.6257 58.6189 30.7699 62.7727 30.5062 66.1221C30.1916 70.1169 30.9757 72.8363 30.9757 72.8363C24.9725 82.1301 16.8281 80.474 16.8281 80.474C16.8281 80.474 13.0211 61.8194 22.1629 51.1542C22.7761 50.4386 23.4782 49.8323 24.1525 49.3368Z" fill="#004B9A"/>
<path d="M28.2568 52.6289C26.0291 49.1891 23.334 49.4854 21.7278 52.6289C20.1215 55.7724 18.248 65.765 18.9973 68.8876C19.7467 72.0103 23.5843 73.1345 25.8499 69.762C28.1155 66.3894 29.2397 58.3579 29.3646 56.5655C29.4896 54.7732 28.8128 53.4871 28.2568 52.6289Z" fill="#FFBC00"/>
<path d="M16.8281 80.4741L18.5519 82.4655C21.37 85.7215 29.921 86.5198 33.2931 83.8419L40.2572 75.4276L37.4995 82.8999L40.6984 83.7989C40.6984 83.7989 48.9631 73.1441 48.3487 68.5124C48.238 67.6785 47.2986 65.6234 46.122 65.8199C39.2579 66.9653 28.5533 71.9431 28.5533 71.9431L16.8281 80.4741Z" fill="#004B9A"/>
<path d="M36.47 85.4529L35.6357 88.3515L45.2749 88.6288C45.2749 88.6288 44.5877 87.4397 44.0497 87.0907C43.3033 86.6063 40.2619 85.7347 40.2619 85.7347L36.47 85.4529Z" fill="#133A50"/>
<path d="M36.3818 85.527L40.262 85.7345L41.6797 83.3201L37.1859 81.9435L36.3818 85.527Z" fill="#2873AC"/>
<path d="M49.9756 67.0831L51.9047 65.386L53.339 64.8137L54.6575 65.3266L54.029 66.2739L49.9756 67.0831Z" fill="#E6B397"/>
<path d="M54.3019 57.6956L53.0879 57.41L53.3163 56.4397L54.4898 55.446L54.8133 55.5222L54.3019 57.6956Z" fill="#E8F4FF"/>
<path d="M55.5264 57.9838L56.7404 58.2694L56.9687 57.2991L56.3611 55.8865L56.0376 55.8103L55.5264 57.9838Z" fill="#E8F4FF"/>
<path d="M52.0631 57.1689L51.6366 58.9816C51.6034 59.1227 51.6178 59.271 51.6779 59.403L52.8014 60.8121L54.3202 61.1695L56.0893 60.441C56.2018 60.3497 56.281 60.2234 56.3142 60.0821L56.7407 58.2694L52.0631 57.1689Z" fill="#E8F4FF"/>
<path d="M52.7201 57.9189L52.4648 57.8589L52.2762 58.6613L52.5314 58.7213L52.7201 57.9189Z" fill="#4B698F"/>
<path d="M53.1908 58.0314L52.9355 57.9714L52.7468 58.7737L53.002 58.8338L53.1908 58.0314Z" fill="#4B698F"/>
<path d="M53.6605 58.1418L53.4053 58.0818L53.2165 58.8842L53.4717 58.9442L53.6605 58.1418Z" fill="#4B698F"/>
<path d="M54.1293 58.2534L53.874 58.1933L53.6853 58.9957L53.9405 59.0557L54.1293 58.2534Z" fill="#4B698F"/>
<path d="M53.1983 56.9529L53.0898 57.4139L54.3039 57.6996L54.4124 57.2387L53.1983 56.9529Z" fill="#E8F4FF"/>
<path d="M55.6338 57.5246L55.5254 57.9856L56.7394 58.2712L56.8479 57.8102L55.6338 57.5246Z" fill="#E8F4FF"/>
<path d="M53.569 65.1716L54.2852 61.1612L52.8402 60.8213L51.7441 64.8232C52.3507 64.9477 52.9594 65.062 53.569 65.1716Z" fill="#E8F4FF"/>
<path d="M54.1752 61.7761L54.2851 61.1612L52.8401 60.8213L52.7441 61.1716C53.2209 61.3742 53.6974 61.5773 54.1752 61.7761Z" fill="#E8F4FF"/>
<path d="M53.8882 64.4798L51.8076 63.9903L49.9123 72.0466L51.9929 72.5361L53.8882 64.4798Z" fill="#4B698F"/>
<path d="M51.0994 71.6711C50.9804 71.643 50.9066 71.5238 50.9347 71.4048L52.4354 65.026C52.4635 64.907 52.5826 64.8332 52.7016 64.8613C52.8206 64.8894 52.8944 65.0085 52.8663 65.1275L51.3657 71.5063C51.3376 71.6253 51.2184 71.6989 51.0994 71.6711Z" fill="#B8CDE0"/>
<path d="M48.1166 66.953C48.1166 66.953 50.1377 66.7979 50.77 66.6163C51.4023 66.435 52.8585 66.435 53.4408 66.144C54.2952 65.7171 54.6578 65.3263 54.6578 65.3263L54.8956 66.1198L54.7434 66.5052L54.6693 67.6243L54.2026 68.8202C54.3522 69.1492 54.1466 69.5928 54.1466 69.5928L52.8639 70.1491C52.8639 70.1491 50.6157 69.8897 50.0691 69.7937C49.5226 69.6979 47.502 69.7954 47.502 69.7954L48.1166 66.953Z" fill="#FEC4AD"/>
<path d="M27.1564 51.637C27.1564 51.637 32.6134 61.7323 35.9256 63.3358C38.7515 64.7038 48.1162 66.9531 48.1162 66.9531L48.2362 70.5082C48.2362 70.5082 35.7432 69.8729 32.3553 67.8985C29.043 65.9681 22.117 58.9944 21.1109 55.0508C20.6818 53.3692 22.1721 48.4053 27.1564 51.637Z" fill="#FFBC00"/>
<path d="M50.3321 67.0467C49.8623 66.4031 51.4705 65.4243 51.4705 65.4243L51.4209 66.1292C51.6714 66.4784 52.3314 66.8941 52.3314 66.8941L50.3321 67.0467Z" fill="#FEC4AD"/>
</svg>
