<?xml version="1.0" encoding="UTF-8"?>
<svg id="Layer_1" data-name="Layer 1" xmlns="http://www.w3.org/2000/svg" viewBox="0 0 405.96 514.98">
  <g id="freepik--Floor--inject-61">
    <line x1="-311.61" y1="394.46" x2="405.39" y2="394.46" style="fill: none; stroke: #263238; stroke-linecap: round; stroke-linejoin: round;"/>
  </g>
  <g id="freepik--Bucket--inject-61">
    <path d="M123.97,376.83c-1.74-2.18-3-2.4-3-2.4l-6.47-12.84-.7-1.39-5.62-11.15s.58-1.17-.13-3.87-3.72-4.74-3.72-4.74l-7.46,2.95-6.81,4.24s-.15,3.64,1.6,5.82,3,2.4,3,2.4l5.62,11.15.7,1.39,6.52,12.8s-.58,1.17.13,3.87c.04.17.09.33.15.49,2.22,5.92,11.23,3.84,15.38-.62,2.06-2.21,2.92-5,1.17-7.71-.15-.11-.25-.25-.36-.39Z" style="fill: #263238; stroke: #263238; stroke-linecap: round; stroke-linejoin: round;"/>
    <rect x="88.65" y="341.13" width="15.54" height="3.07" transform="translate(-143.92 80.07) rotate(-26.75)" style="fill: #fff; stroke: #263238; stroke-linecap: round; stroke-linejoin: round; stroke-width: 1px;"/>
    <rect x="133.88" y="340.58" width="28.83" height="23.01" transform="translate(-176.12 150.32) rotate(-35.28)" style="fill: #92e3a9; stroke: #263238; stroke-linecap: round; stroke-linejoin: round; stroke-width: 1px;"/>
    <polygon points="151.25 334.05 153.43 334.41 166.71 353.19 164.53 352.83 151.25 334.05" style="fill: #92e3a9; stroke: #263238; stroke-linecap: round; stroke-linejoin: round;"/>
    <rect x="131.7" y="340.21" width="28.83" height="23.01" transform="translate(-176.3 148.99) rotate(-35.28)" style="fill: #fff; stroke: #263238; stroke-linecap: round; stroke-linejoin: round; stroke-width: 1px;"/>
    <path d="M134.04,329.67s3,.28,3.41.64,1.43,2.35,2.28,3.27,2.21,1.42,2.21,1.14-2.35-4.2-3.06-6-1.5-2.2-1.85-2.2-2.99,3.15-2.99,3.15Z" style="fill: #fff; stroke: #263238; stroke-linecap: round; stroke-linejoin: round;"/>
    <path d="M140.41,322.92s-10.49.42-11,.55-5,2.77-5,2.77l1.1,4.21h2.35l-.22,1h6.69l3.19-4.66,3.18-.28-.29-3.59Z" style="fill: #fff; stroke: #263238; stroke-linecap: round; stroke-linejoin: round;"/>
    <rect x="140.39" y="322.46" width="4" height="4" style="fill: #263238; stroke: #263238; stroke-linecap: round; stroke-linejoin: round;"/>
    <rect x="127.39" y="331.46" width="7" height="5" style="fill: #fff; stroke: #263238; stroke-linecap: round; stroke-linejoin: round;"/>
    <polygon points="136.57 347.16 136.37 339.41 134.24 336.35 131.04 336.42 127.84 336.35 125.71 339.41 125.52 347.16 122.22 362.46 131.04 362.46 139.86 362.46 136.57 347.16" style="fill: #263238; stroke: #263238; stroke-linecap: round; stroke-linejoin: round;"/>
    <polygon points="136.56 347.46 136.37 339.81 134.24 336.75 131.04 336.82 127.84 336.75 125.71 339.81 125.52 347.46 136.56 347.46" style="fill: #fff; stroke: #263238; stroke-linecap: round; stroke-linejoin: round;"/>
    <path d="M120.51,326.46h3.76c1.17,0,2.12.95,2.12,2.12v2.88h-8v-2.88c0-1.17.95-2.12,2.12-2.12Z" style="fill: #263238; stroke: #263238; stroke-linecap: round; stroke-linejoin: round;"/>
    <path d="M131.63,336.46c-.67-2.54-5.41-5.01-5.41-5.01h-8.02s-4.74,2.47-5.4,5.01,0,6.99,0,6.99h18.83s.66-4.45,0-6.99Z" style="fill: #fff; stroke: #263238; stroke-linecap: round; stroke-linejoin: round;"/>
    <path d="M114.16,349.46h15.46c.98,0,1.77.79,1.77,1.77h0v16.23h-19v-16.24c0-.97.79-1.75,1.77-1.76Z" style="fill: #fff; stroke: #263238; stroke-linecap: round; stroke-linejoin: round;"/>
    <path d="M131.41,343.46h-18.49c.88.85,1.53,1.91,1.89,3.07.45,1.73-1.62,3.93-1.62,3.93h17.93s-2.05-2.2-1.61-3.93c.37-1.16,1.02-2.22,1.89-3.07Z" style="fill: #fff; stroke: #263238; stroke-linecap: round; stroke-linejoin: round;"/>
    <path d="M159.39,372.46h5.91s2.41,16.22,3,23.23-4.8,16.22-9.6,17.59l-4.81,1.41" style="fill: none; stroke: #263238; stroke-linecap: round; stroke-linejoin: round;"/>
    <rect x="155.96" y="370.71" width="7.21" height="4.21" transform="translate(-226.55 496.79) rotate(-84.63)" style="fill: #92e3a9; stroke: #263238; stroke-linecap: round; stroke-linejoin: round; stroke-width: 1px;"/>
    <path d="M147.86,433.46h-41.68c-1.41,0-2.61-1.04-2.81-2.44l-9.65-69.56h66.63l-9.65,69.56c-.2,1.42-1.42,2.46-2.85,2.44Z" style="fill: #0a70ff; stroke: #263238; stroke-linecap: round; stroke-linejoin: round;"/>
    <rect x="90.39" y="361.46" width="73" height="3" style="fill: #0a70ff; stroke: #263238; stroke-linecap: round; stroke-linejoin: round;"/>
    <line x1="136.39" y1="371.46" x2="146.39" y2="371.46" style="fill: none; stroke: #263238; stroke-linecap: round; stroke-linejoin: round;"/>
    <line x1="97.39" y1="371.46" x2="133.39" y2="371.46" style="fill: none; stroke: #263238; stroke-linecap: round; stroke-linejoin: round;"/>
  </g>
  <g id="g1932">
    <g id="g1952">
      <g id="path1918">
        <path d="M340.72,368.15s-27.17,24.91-29.86,43.51c-2.68,18.6-1.68,47.83-3.02,51.15-1.34,3.32-51.66,29.23-65.75,29.56-14.09.33-40.26-2.66-42.94-13.62-2.68-10.96,8.39-57.79,8.39-57.79,0,0-29.86-18.27-26.5-39.86,47.64,4.32,159.69-12.95,159.69-12.95h0Z" style="fill: #6394ce; stroke: #263238; stroke-miterlimit: 10;"/>
      </g>
      <g id="path1919">
        <path d="M349.11,349.89s3.02,12.29,0,16.27c-3.02,3.99-63.07,30.56-97.96,33.88s-70.11-8.64-74.14-15.28c-4.03-6.64-.34-19.93,9.73-24.25,10.06-4.32,88.9-26.9,88.9-26.9l73.47,16.27Z" style="fill: #fff; stroke: #263238; stroke-miterlimit: 10;"/>
      </g>
      <g id="path1920" style="opacity: .71;">
        <path d="M275.64,333.61s-19.43,5.57-40.19,11.69c20.88,5.16,69.8,17.48,83.73,23.11,14.7-5.44,28.33-10.38,31.1-11.38-.17-1.83-.44-3.52-.68-4.82l-3.07-2.9-70.88-15.7Z" style="fill: #064080; stroke: #263238; stroke-miterlimit: 10;"/>
      </g>
      <g id="path1935">
        <path d="M263.67,336.59s69.97,21.31,76.96,20.78c7-.53,25.57-8.53,30.95-11.72,5.38-3.2-8.61-98.04-10.76-101.24-2.15-3.2-56.51-11.72-60.28-11.72s-21.8,4.8-23.95,6.39c-2.15,1.6-20.72,93.78-12.92,97.51Z" style="fill: #fff; stroke: #263238; stroke-miterlimit: 10;"/>
      </g>
      <g id="path1936">
        <path d="M361.1,245.12c-5.45,1.95-15.2,6.11-17.5,11.81-3.23,7.99.27,69.8-4.84,73.53-4.2,3.06-54.39-3.93-76.73-9.03-.53,8.38-.19,14.28,1.65,15.16,0,0,69.97,21.31,76.96,20.78,7-.53,25.57-8.52,30.95-11.72,5.19-3.08-7.64-91.37-10.49-100.53h0Z" style="fill: #fff; stroke: #263238; stroke-miterlimit: 10;"/>
      </g>
      <g id="path1937">
        <path d="M278.47,242.28s61.36,8.79,61.36,10.39-61.09-7.99-61.36-10.39Z" style="fill: #fff; stroke: #263238; stroke-miterlimit: 10;"/>
      </g>
      <g id="path1938">
        <path d="M272.25,255.98c-.09.43-.19.9-.28,1.34,5.15,1.1,14.71,3.14,27.32,5.71,16.86,3.43,35.06,6.96,41.03,7.37,6.05.42,13.68-2.37,19.88-5.22,1.53-.7,2.96-1.41,4.27-2.08-.07-.44-.15-1.01-.22-1.43-1.4.73-2.93,1.5-4.62,2.27-6.11,2.81-13.68,5.49-19.21,5.1-5.61-.39-24-3.92-40.85-7.35-12.61-2.57-22.18-4.61-27.32-5.71Z" style="fill: #a2cfdb; stroke: #263238; stroke-miterlimit: 10;"/>
      </g>
      <g id="path1939">
        <path d="M334.98,271.15s-.04,0-.06,0c-8.81-.79-56.7-10.52-58.74-10.93-.34-.07-.57-.4-.5-.74.07-.34.41-.56.75-.49.5.1,49.85,10.13,58.59,10.91.35.03.61.34.58.68-.03.33-.31.57-.63.57Z" style="fill: #fff; stroke-width: 0px;"/>
      </g>
      <g id="path1940">
        <path d="M243.42,351.95c-19.38,5.75-50.76,14.2-46.11,21.48,4.65,7.29,29.84,10.74,44.56,9.21,14.73-1.53,47.66-11.51,50.38-15.73,2.71-4.22-40.69-16.11-48.83-14.96Z" style="fill: #d5e6ec; stroke: #263238; stroke-miterlimit: 10;"/>
      </g>
      <g id="path1941">
        <path d="M244.28,351.88c-.32.01-.61.03-.86.07-19.38,5.75-50.76,14.2-46.11,21.49.68,1.06,1.8,2.04,3.24,2.93,8.81-4.4,30.71-14.5,44.42-13.29,10.37.91,25.83,5.6,36.75,9.27,5.57-2.09,9.65-4.06,10.52-5.43,2.63-4.09-38.02-15.38-47.96-15.03h0Z" style="fill: #698eaf; stroke: #263238; stroke-miterlimit: 10; stroke-width: .5px;"/>
      </g>
      <g id="path1943">
        <path d="M342.6,359.39s-14.08,6.97-28.99,12.91c-14.91,5.94-57.15,20.09-75.37,19.27-18.22-.82-37.48-4.92-44.72-6.97-7.25-2.05-15.94-6.97-15.12-11.27,0,0,4.97,6.97,17.81,10.04,12.84,3.07,33.75,5.94,41.62,6.15s24.64-3.69,36.44-6.35c11.8-2.66,62.74-22.55,68.33-23.78h0Z" style="fill: #fff; stroke: #263238; stroke-miterlimit: 10; stroke-width: .75px;"/>
      </g>
      <g id="path1944">
        <path d="M192.55,368.92c.14.08.67-.38,2.03-1.11,1.08-.55,2.02-.97,3.69-1.68,3.38-1.44,6.12-2.5,10.86-4.31.84-.32,1.7-.65,2.58-.98,3.65-1.38,6.72-2.51,9.71-3.63,5.91-2.2,9.89-3.67,9.79-4.02-.1-.34-4.31.54-10.34,2.43-2.94.92-6.29,2.07-9.85,3.41-.88.33-1.74.66-2.59,1-4.4,1.73-7.81,3.25-10.77,4.83-1.53.81-2.63,1.49-3.55,2.18-1.29.93-1.79,1.73-1.55,1.86Z" style="fill: #fff; stroke-width: 0px;"/>
      </g>
      <g id="path1945">
        <path d="M241.23,332.23l-22.35-63.07c-5.55-15.66,2.84-28.19,18.74-27.98,2.21.03,4.51.31,6.84.84l11.28,2.55c22.3,5.04,43.2,23.56,50.11,44.41l21.74,65.58c1.01,3.04-.7,5.41-3.81,5.3-.46-.02-.94-.09-1.42-.21l-71.07-18.4c-4.47-1.16-8.59-4.85-10.07-9.01h0Z" style="fill: #fff; stroke: #263238; stroke-miterlimit: 10;"/>
      </g>
      <g id="path1946">
        <path d="M233,245.83c-4.35-.23-8.35.49-11.7,2.1-4.4,5.26-5.28,12.98-2.41,21.17l22.33,62.92c1.47,4.16,5.59,7.84,10.06,8.99l70.24,18.15c-.02-.09-.04-.19-.07-.28l-21.72-65.41c-6.9-20.8-27.79-39.27-50.08-44.3l-11.28-2.54c-1.82-.41-3.62-.67-5.37-.78Z" style="fill: #bdd9f9; stroke: #263238; stroke-miterlimit: 10;"/>
      </g>
      <g id="path1950">
        <path d="M235.25,252.96c1.29.08,2.62.27,3.96.58h0l11.28,2.55c17.9,4.04,36.31,20.36,41.85,37.09h0s18.75,56.55,18.75,56.55l-60.32-15.62c-.92-.24-1.84-1.07-2.15-1.92h0s-22.34-63.05-22.34-63.05c-1.97-5.62-1.42-11.08,1.29-14.94,2.28-.9,4.86-1.39,7.68-1.24h0Z" style="fill: #698eaf; stroke-width: 0px;"/>
      </g>
      <g id="path1951">
        <path d="M235.25,253.1c-.53-.03-1.04-.01-1.55,0-2.41,3.82-2.85,9.03-.97,14.4l22.33,63.04h0c.3.86,1.23,1.69,2.15,1.93l52.63,13.63-17.5-52.79s0,0,0,0c-5.54-16.73-23.95-33.04-41.85-37.09l-11.28-2.55h0c-1.34-.3-2.66-.49-3.96-.57h0Z" style="fill: #bfcfe2; stroke: #263238; stroke-miterlimit: 10;"/>
      </g>
    </g>
  </g>
  <g id="Toilet_Brush" data-name="Toilet Brush">
    <rect x="181.33" y="271.18" width="5.88" height="112.1" rx="2.94" ry="2.94" transform="translate(-186.93 270.22) rotate(-51.88)" style="fill: #fff; stroke: #263238; stroke-linecap: round; stroke-linejoin: round;"/>
    <path id="path243" d="M250.56,352.56s8.84,3.38,9.14,4.28c.3.9-.15,3.61-.66,5.13-.52,1.51-2.5,4.17-4.42,6.62-1.91,2.44-6.92,5.14-10.68,6.62-3.76,1.49-7,2.52-8.18,1.74-1.18-.78-6.04-6.65-6.04-6.65l20.84-17.74Z" style="fill: #fff; stroke: #000; stroke-linecap: round; stroke-linejoin: round; stroke-width: .75px;"/>
    <path id="path244" d="M251.07,353.87l2.87,2.17-1.25,1.2s5.09,3.81,4.35,3.5-4.86-2.34-5.16-1.12c-.29,1.22,3.54,4.11,3.54,4.11,0,0-4.27-2.3-5.01-1.2-.74,1.1,3.32,4.05,3.32,4.05,0,0-3.98-3.17-5.23-1.96s2.14,4.69,2.14,4.69c0,0-3.24-3.56-4.42-2.58-1.18.99,2.58,5.16,1.92,4.63-.66-.53-4.27-3.72-5.38-2.59-1.1,1.12,1.7,4.57,1.7,4.57,0,0-2.58-3.74-3.83-2.89-1.25.85.89,4.12.89,4.12,0,0-3.24-3.56-4.27-3.01s1.11,3.83,1.11,3.83c0,0-3.17-3.07-4.2-2.87s-2.87-2.17-2.87-2.17c0,0,.29-1.93,1.18-2.75s18.63-13.73,18.63-13.73h0Z" style="fill: #6394ce; stroke-width: 0px;"/>
    <path id="path240" d="M225.12,356.29c-.74.38-1.9,1.26-2.7,3.16-.17.41-.55,1.23-.26,1.54,2.42,2.61,5,5.24,4.49,7.48-.07.33,0,.66.21.92,1.12,1.38,1.93,2.03,2.36,2.32.21.14.47.21.73.19,1.86-.14,10.41-1.09,16.29-7.24,6.62-6.93,6.39-11.83,5.06-12.64-1.33-.81-2.77-1.13-4.3.03-1.53,1.16-2.75,2.8-4.79,3.89-1.68.9-5.84,1.39-7.28,1.54-.29.03-.56.16-.77.37-.36.34-1.08.83-2.28.9-1.46.08-4.09-1.87-5.25-2.61-.35-.22-1.11-.04-1.5.16Z" style="fill: #0a70ff; stroke: #000; stroke-linecap: round; stroke-linejoin: round; stroke-width: .75px;"/>
    <path id="path248" d="M184.16,327.94s.63-1.31,1.69-1.62c.33,1.32,9.54,8.22,10.21,8.22-1.22.74-1.69,1.62-1.69,1.62,0,0-2.36-2.62-5.05-4.98-2.69-2.36-4.53-2.96-5.16-3.24h0Z" style="fill: #fff; opacity: .5; stroke-width: 0px;"/>
  </g>
  <g id="freepik--character-2--inject-61">
    <polygon points="137.08 210.93 139.74 199.75 144.34 219.81 137.08 210.93" style="fill: #263238; stroke: #263238; stroke-linecap: round; stroke-linejoin: round;"/>
    <polygon points="129.27 232.19 144.34 219.81 137.08 210.93 129.27 232.19" style="fill: #0a70ff; stroke: #263238; stroke-linecap: round; stroke-linejoin: round;"/>
    <path d="M152.05,157.17c-3.71,7.03-7.23,19.53-8.4,25.39s-3.9,17.18-3.9,17.18c1.98-.87,4.09-1.4,6.25-1.56,2.49-.11,4.97-.37,7.42-.78,0,0,2.15,6.66,5.27,9s12.68-1.82,12.68-1.82c1,1.43,3.93,1.27,5,0s1.52-4.5,2.07-6c.78-2.15,5.3-2.9,8.06-5.44,2.76-2.54,5-10.38,5-10.38,0,0,3.54-1.76,4.3-8.2.76-6.44.58-10.94-4.89-18.16s-20.11-7.81-20.11-7.81c-6.07-1.17-15.04,1.55-18.75,8.58Z" style="fill: #e9b376; stroke: #263238; stroke-linecap: round; stroke-linejoin: round;"/>
    <path d="M191.5,182.76s3.54-1.76,4.3-8.2c.76-6.44.57-10.94-4.9-18.16s-20.11-7.81-20.11-7.81c-6.06-1.17-15.04,1.59-18.75,8.59-3.57,6.77-6.95,18.57-8.25,24.67,2.2.52,4.93.08,4.93-1.24,0-1.75,2.35-8.79,5.47-8.2s2.15,3.88,3.32,6.25,2.34,1.37,2.34,1.37c0,0,1.57,2.92,9.18,3.12s11.51-3.7,13.86-3.51,3.13,4.1,4.69,5.27c1.56,1.21,3.92-2.15,3.92-2.15Z" style="fill: #263238; stroke: #263238; stroke-linecap: round; stroke-linejoin: round;"/>
    <path d="M170,189.99c3.91.19,7.62,4.49,7.62,4.49" style="fill: none; stroke: #263238; stroke-linecap: round; stroke-linejoin: round;"/>
    <path d="M168.64,191.35c1.76,5.1,5.08,4.1,5.08,4.1" style="fill: none; stroke: #263238; stroke-linecap: round; stroke-linejoin: round;"/>
    <path d="M164.54,200.73c1.76,2.93,3.9,2.73,3.9,2.73" style="fill: none; stroke: #263238; stroke-linecap: round; stroke-linejoin: round;"/>
    <path d="M150.67,185.3c-2.14-.78-1.95-4.69-1.95-4.69" style="fill: #fff; stroke: #263238; stroke-linecap: round; stroke-linejoin: round;"/>
    <path d="M108.23,249.93l13.61,25.35,26.61,30.55,13.23-6.14s-10.38-13.64-13.69-18.24c-3.31-4.59-9.35-13.14-9.35-13.14l-13.86-25.26-16.54,6.87Z" style="fill: #e9b376; stroke: #263238; stroke-linecap: round; stroke-linejoin: round;"/>
    <path d="M171.5,300.6c3.66,2.51,14.72,14.14,16.35,16.19s6.8,10.49,7.41,11.5.02,3.33-1.71,3.02-7.49-8.25-8.82-8.32.04,5.22-3.26,5.56c-3.29.33-3.56-3.56-3.56-3.56,0,0-2.16,1.51-3.48,1.26-1.32-.25-2.43-2.37-2.71-2.72s-1.13-.23-1.97-.12c-.96.15-1.92-.25-2.49-1.03-.76-.96-4.36-9.3-4.36-9.3l-22.51-7.7,10.33-20.24s17.12,12.94,20.79,15.45Z" style="fill: #0a70ff; stroke: #263238; stroke-linecap: round; stroke-linejoin: round;"/>
    <path d="M90.24,342.01l-28.26,1.35,1.88,12.11s-1.34,19.1-2.69,28.26c-1.35,9.16,3.23,63.53,3.23,63.53,0,0-3.77,19.11-3.5,22.34s.81,8.38,3.77,9.15c2.96.77,17.76-3.23,17.76-3.23,0,0,12.92,1.88,20.44.66,7.52-1.22,8.1-5.78,7.29-7.66s-8.34-4.04-12.65-6.46-15.61-9.42-15.61-9.42l5.65-78.06,2.69-32.57Z" style="fill: #263238; stroke: #263238; stroke-linecap: round; stroke-linejoin: round;"/>
    <path d="M60.87,469.6c.27,3.23.81,8.38,3.77,9.15,2.96.77,17.76-3.23,17.76-3.23,0,0,12.92,1.88,20.44.66s8.1-5.78,7.29-7.66-8.34-4.04-12.65-6.46-15.61-9.42-15.61-9.42l.42-5.83c-3.81.8-11.34,1.78-18-.84l.11,1.29s-3.8,19.11-3.53,22.34Z" style="fill: #fff; stroke: #263238; stroke-linecap: round; stroke-linejoin: round;"/>
    <path d="M60.87,469.6c.27,3.23.81,8.38,3.77,9.15,2.96.77,17.76-3.23,17.76-3.23,0,0,12.92,1.88,20.44.66s8.1-5.78,7.29-7.66-8.34-4.04-12.65-6.46-15.61-9.42-15.61-9.42l.42-5.83c-3.81.8-11.34,1.78-18-.84l.11,1.29s-3.8,19.11-3.53,22.34Z" style="fill: #fff; stroke: #263238; stroke-linecap: round; stroke-linejoin: round;"/>
    <path d="M60.87,469.6c.27,3.23.81,8.38,3.77,9.15,2.96.77,17.76-3.23,17.76-3.23,0,0,12.92,1.88,20.44.66s8.1-5.78,7.29-7.66-8.34-4.04-12.65-6.46-15.61-9.42-15.61-9.42l.42-5.83c-3.81.8-11.34,1.78-18-.84l.11,1.29s-3.8,19.11-3.53,22.34Z" style="fill: #e9b376; stroke: #263238; stroke-linecap: round; stroke-linejoin: round;"/>
    <path d="M73.31,462.61c-3.78-.73-7.5-1.73-11.14-3-.74,4.42-1.35,8.63-1.24,10,.27,3.23.81,8.38,3.77,9.15,2.96.77,17.76-3.23,17.76-3.23,0,0,12.92,1.88,20.44.66s8.1-5.78,7.29-7.66-8.35-4.03-12.65-6.46c-2.3-1.27-6.52-3.82-10-5.95-2.07,2.72-7.04,7.88-14.23,6.49Z" style="fill: #fff; stroke: #263238; stroke-linecap: round; stroke-linejoin: round;"/>
    <path d="M82.46,475.52s12.92,1.89,20.44.66c4.11-.67,6.14-2.35,7-4.05-2.2,1.24-5.85,2.29-11.85,2.05-13.46-.54-17.09-2.13-21.27-1.08-4.18,1.05-11.41,2.59-15.27.95.5,2.22,1.4,4.22,3.16,4.7,2.96.81,17.79-3.23,17.79-3.23Z" style="fill: #0a70ff; stroke: #263238; stroke-linecap: round; stroke-linejoin: round;"/>
    <path d="M60.32,249.15c4.04,1.07,8.11,0,8.61,15.07s31.5,72.41,31.5,72.41c0,0,5.39,14.8,6.73,18.3s2.15,14.53,2.15,22.34c0,7.81,9.23,65.24,8.88,68.37-.3,2.78,11.09,18.42,18.31,23.69,5.09,3.72,22.61,9.15,22.61,12.65s-18.31,7.8-26.65,5.92c-8.34-1.88-29.34-5.38-29.61-8.34s.81-19.12.27-24.23-8.89-22.88-13.73-41.45-9.42-51.14-9.42-51.14c0,0-49.56-71.05-51.41-80.21s3-24.77,3-24.77c4.84-6.73,24.72-9.68,28.76-8.61Z" style="fill: #263238; stroke: #263238; stroke-linecap: round; stroke-linejoin: round;"/>
    <path d="M50.94,233l-11.84,35s-8.62-3.77-8.62-8.08,11.58-28,11.58-28l8.88,1.08Z" style="fill: #fff; stroke: #263238; stroke-linecap: round; stroke-linejoin: round;"/>
    <path d="M103.17,455.33c.54,5.12-.54,21.27-.27,24.23s21.27,6.45,29.61,8.34,26.65-2.42,26.65-5.92-17.52-8.93-22.61-12.65c-7.22-5.27-18.61-20.91-18.31-23.69,0-.08,0-.16,0-.24-5.41,2.22-11.22,3.27-17.06,3.09.88,2.21,1.55,4.5,1.99,6.84Z" style="fill: #e9b376; stroke: #263238; stroke-linecap: round; stroke-linejoin: round;"/>
    <path d="M132.5,487.9c8.34,1.89,26.65-2.42,26.65-5.92s-17.52-8.93-22.61-12.65c-3.59-2.89-6.83-6.19-9.66-9.82-1.71.24-4.66.89-5.95,2.55-1.89,2.43-.81,5.39-7.81,6.73-3.18.61-6.85-1-9.92-2.93-.17,5.85-.47,11.99-.31,13.7.27,2.96,21.27,6.45,29.61,8.34Z" style="fill: #fff; stroke: #263238; stroke-linecap: round; stroke-linejoin: round;"/>
    <path d="M132.52,487.87c8.34,1.89,26.65-2.42,26.65-5.92-.1-.62-.43-1.18-.94-1.55-1.47,1.7-6.12,4.58-20.6,4-14.21-.56-27.89-5.4-34.74-8.22-.05,1.56-.06,2.76,0,3.38.27,2.96,21.29,6.42,29.63,8.31Z" style="fill: #0a70ff; stroke: #263238; stroke-linecap: round; stroke-linejoin: round;"/>
    <path d="M98.8,233.05l-55-2.93-1.71,1.8,2.15,2.69s-8.08,19.65-9.69,36.07,7.54,78.6,7.54,78.6c0,0,15.35-.53,32.57-1.88,17.22-1.35,27.72-6.46,27.72-6.46,0,0-13.42-44.38-14.53-53.57-1.11-9.19.77-21.81,4-27.19,3.23-5.38,12.66-17.22,12.66-17.22l-5.71-9.91Z" style="fill: #0a70ff; stroke: #263238; stroke-linecap: round; stroke-linejoin: round;"/>
    <path d="M45.79,255.05c1.65.52,3.29.98,4.89,1.41" style="fill: none; stroke: #263238; stroke-linecap: round; stroke-linejoin: round;"/>
    <path d="M55.3,257.6c8.32,1.95,16.82,3,25.36,3.15" style="fill: none; stroke: #263238; stroke-linecap: round; stroke-linejoin: round;"/>
    <path d="M67.14,267.87c16.21-2.88,20.14-7.42,20.14-7.42" style="fill: none; stroke: #263238; stroke-linecap: round; stroke-linejoin: round;"/>
    <line x1="54.68" y1="240.82" x2="46.5" y2="234.77" style="fill: none; stroke: #263238; stroke-linecap: round; stroke-linejoin: round;"/>
    <line x1="54.33" y1="246.87" x2="47.57" y2="238.68" style="fill: none; stroke: #263238; stroke-linecap: round; stroke-linejoin: round;"/>
    <path d="M69.99,286.73c7.12-3.92,14.23-15.31,14.23-15.31" style="fill: none; stroke: #263238; stroke-linecap: round; stroke-linejoin: round;"/>
    <path d="M31.56,253.69l-4.85-4.57,14.81-19.04s-5.38-3.23-6.73-3.77,3.76-6.19,5.92-6.19,3.09,10,3.09,10l-12.24,23.57Z" style="fill: #0a70ff; stroke: #263238; stroke-linecap: round; stroke-linejoin: round;"/>
    <path d="M146.87,173.78c-2.18-1.38-4.6-2.31-7.14-2.75-3.85-.55-38.47,1.92-54.42,15.39-15.95,13.47-41.51,43.7-41.51,43.7l54.72,4.6,5.28,19,27-1.1s.36-21.88,3.35-30.22c2.99-8.34,5.59-22.65,5.59-22.65l7.13-25.97Z" style="fill: #fff; stroke: #263238; stroke-linecap: round; stroke-linejoin: round;"/>
    <polygon points="101.66 246.87 95.97 253.63 92.77 219.46 98.5 234.75 101.66 246.87" style="fill: #263238; stroke: #263238; stroke-linecap: round; stroke-linejoin: round;"/>
    <path d="M163.37,148.36c-3.96.2-7.68,1.95-10.35,4.88-4.3,4.91-10.55,21.32-17.19,26s-6.64-4.31-8.2-6.06-7.65,3.72-17.18,10.55-17.78,1.18-19.53-2.34c-1.75-3.52-.38-15.04,7.62-18.75s14.25,3.51,14.64.78c.39-2.73,2.35-8.39,7.23-10.93s10.35,2.72,13.08.78,4.46-7.04,7.62-10.94c3.16-3.9,12.49-6.25,18.16-3.32,3.53,2,6.23,5.19,7.61,9l-3.51.35Z" style="fill: #263238; stroke: #263238; stroke-linecap: round; stroke-linejoin: round;"/>
    <path d="M146.87,173.69l-9.79,37.2s-2.97-11.31-1.89-17.23,8.88-21.54,8.88-21.54l2.8,1.57Z" style="fill: #0a70ff; stroke: #263238; stroke-linecap: round; stroke-linejoin: round;"/>
  </g>
</svg>