<svg width="48" height="90" viewBox="0 0 48 90" fill="none" xmlns="http://www.w3.org/2000/svg">
<path d="M46.4489 0.688446H1.69824V47.2676H46.4489V0.688446Z" fill="#8BBDDB"/>
<path d="M30.7977 6.76477C30.7977 6.76477 28.2079 10.2608 31.6021 13.2729C34.9964 16.2849 39.5145 13.4161 39.5145 13.4161C39.5145 13.4161 39.9985 17.6264 41.7733 19.1071C43.5481 20.5879 41.343 17.468 41.5045 14.9399C41.666 12.4118 43.7 8.83778 40.3164 8.93042C36.9322 9.02407 30.7977 6.76477 30.7977 6.76477Z" fill="#11393D"/>
<path d="M16.7449 88.8261C17.2865 88.1457 18.176 88.3026 18.176 88.3026C18.2792 88.3927 18.3516 88.5932 18.4058 88.8261H19.2988C19.4046 88.3381 19.4729 87.8384 19.4061 87.558C19.2861 87.0755 18.9257 85.9593 18.7698 85.4257C18.7262 85.2769 18.6908 85.1483 18.6832 84.9934C19.1191 83.1689 20.616 76.9418 23.218 71.9231C25.2849 67.9365 25.9506 66.352 26.3602 62.7785C26.7697 59.2045 30.0278 50.2706 30.0278 50.2706C30.0278 50.2706 25.452 37.8447 23.5678 45.5723C21.6831 53.2999 21.431 62.779 21.1156 64.6708C20.8003 66.5626 17.9664 79.8207 16.2807 85.3776C15.9931 86.3248 14.7154 88.1072 14.0117 88.8266L16.7449 88.8261Z" fill="#DD8866"/>
<path d="M19.6076 89.9995C19.6076 89.9995 19.8349 86.9307 19.2355 86.1294C18.6362 85.328 16.9854 86.8735 16.9854 86.8735L15.5143 86.2038C15.5143 86.2038 15.5887 87.1641 14.398 87.9493C13.2074 88.7344 12.24 88.5112 12.165 89.9995H19.6076Z" fill="#8B383E"/>
<path d="M25.032 35.511C25.032 35.511 18.6343 60.4691 17.752 79.8648C17.752 79.8648 18.5447 80.4059 20.0735 79.8648C20.0735 79.8648 30.4811 61.9169 31.0617 51.1135C31.6424 40.31 29.6028 38.3165 29.6028 38.3165L25.032 35.511Z" fill="#F2A668"/>
<path d="M31.3169 82.4334C31.3169 83.9359 30.5687 87.3858 30.2412 88.8255H33.2032V84.8506C33.2032 84.8506 35.0656 73.709 35.9034 71.0812C37.1624 67.1346 35.914 63.5839 36.3529 61.1333C36.9331 57.8934 38.4259 55.9394 37.9212 48.0624L30.8907 49.534C30.8907 49.534 32.1259 56.7868 32.2919 60.4655C32.4625 64.2294 31.3169 74.1297 31.3169 82.4334Z" fill="#F3A17A"/>
<path d="M33.4094 86.7991C33.4094 86.7991 33.372 85.7801 31.9581 85.8991C30.5442 86.018 30.6454 87.0436 30.6454 87.0436C30.6454 87.0436 30.4323 86.8786 30.2465 87.0436C30.0607 87.2087 30.2181 88.6231 29.8602 88.9207C29.5023 89.2184 29.6142 90 29.6142 90H33.745C33.745 90 33.9683 88.9952 33.5593 88.6231C33.1492 88.2505 34.191 86.911 33.4094 86.7991Z" fill="#8B383E"/>
<path d="M34.0489 35.9307C34.0489 35.9307 40.5164 40.0235 39.0924 58.5262C37.6679 77.0289 33.6656 82.1626 33.6656 82.1626C33.6656 82.1626 32.2821 82.9619 31.3177 82.4339C31.3177 82.4339 29.551 64.6648 29.5216 51.6987C29.5216 51.6987 24.3029 45.4857 25.0329 35.5115L34.0489 35.9307Z" fill="#FFB878"/>
<path d="M29.521 16.3436C28.2979 15.0983 26.0736 15.7559 22.6408 22.4017C19.935 27.6401 20.4215 30.9544 21.8182 30.431C23.5394 29.7855 27.8955 22.6305 27.8955 22.6305L29.521 16.3436Z" fill="#CE364C"/>
<path d="M29.521 16.3436C29.521 16.3436 31.4726 18.0906 34.2629 18.7376C37.0532 19.3845 38.2155 17.6851 39.6421 19.4842C41.7839 22.185 38.2996 27.1627 36.466 29.7425C35.7826 30.7043 34.3404 33.3716 34.0488 35.9306C34.0488 35.9306 29.2077 37.3369 25.0328 35.511L24.721 29.5719C24.721 29.5719 22.0891 21.5674 29.521 16.3436Z" fill="#F24052"/>
<path d="M36.6534 6.72221C36.6534 6.72221 31.3106 4.9332 30.2344 8.69499C29.1587 12.4568 30.2455 16.3871 33.1219 16.292C36.6686 16.175 40.804 8.83825 36.6534 6.72221Z" fill="#F3A17A"/>
<path d="M33.1041 11.0216C33.0884 11.2631 32.9517 11.4504 32.7989 11.4403C32.646 11.4301 32.5346 11.2266 32.5503 10.9852C32.566 10.7437 32.7027 10.5564 32.8556 10.5665C33.0084 10.5766 33.1198 10.7801 33.1041 11.0216Z" fill="#1A4850"/>
<path d="M33.9619 12.0063C33.9856 12.2315 33.7766 12.4386 33.4946 12.4679C33.2126 12.4978 32.9651 12.3388 32.9413 12.1136C32.9175 11.8883 33.1266 11.6813 33.4086 11.6519C33.69 11.6225 33.9381 11.781 33.9619 12.0063Z" fill="#ED7D66"/>
<path d="M33.25 10.9589C33.25 10.9589 33.1224 10.4035 32.9255 10.3904C32.7286 10.3772 32.3995 10.7472 32.3995 10.7472L32.0381 10.484L32.3864 10.6207C32.3864 10.6207 32.6871 10.198 32.9604 10.2841C33.2338 10.3701 33.25 10.9589 33.25 10.9589Z" fill="#1A4850"/>
<path d="M30.8707 10.6754C30.855 10.9168 30.7183 11.1041 30.5655 11.0945C30.4126 11.0844 30.3012 10.8809 30.3169 10.6394C30.3326 10.3979 30.4693 10.2106 30.6222 10.2203C30.775 10.2304 30.8864 10.4339 30.8707 10.6754Z" fill="#1A4850"/>
<path d="M31.0156 10.6131C31.0156 10.6131 30.888 10.0577 30.6911 10.0446C30.4942 10.0314 30.1652 10.4015 30.1652 10.4015L29.8037 10.1382L30.152 10.2749C30.152 10.2749 30.4527 9.85221 30.7261 9.93827C30.9994 10.0243 31.0156 10.6131 31.0156 10.6131Z" fill="#1A4850"/>
<path d="M33.548 9.69934C33.5136 9.69732 33.4806 9.6796 33.4609 9.64822C33.2387 9.30044 32.8079 9.34144 32.8033 9.34195C32.7421 9.34853 32.6879 9.30398 32.6813 9.24323C32.6747 9.18249 32.7188 9.12781 32.78 9.12123C32.8028 9.1187 33.3521 9.06656 33.6477 9.52875C33.6806 9.58038 33.6654 9.64872 33.6138 9.68213C33.5935 9.6953 33.5708 9.70086 33.548 9.69934Z" fill="#11393D"/>
<path d="M31.0852 9.1289C31.0624 9.12738 31.0401 9.11928 31.0214 9.10359C30.706 8.84187 30.3182 9.00538 30.3015 9.01247C30.2453 9.03676 30.18 9.01095 30.1557 8.95476C30.1314 8.89856 30.1567 8.83377 30.2124 8.80896C30.2342 8.79934 30.7409 8.58217 31.1631 8.93248C31.2102 8.97146 31.2168 9.04132 31.1778 9.08891C31.154 9.11726 31.1196 9.13042 31.0852 9.1289Z" fill="#11393D"/>
<path d="M31.0023 11.3648C31.0023 11.3648 30.048 11.3734 30.1412 11.7086C30.2343 12.0437 30.7851 12.4806 30.7851 12.4806C30.7851 12.4806 31.2159 11.7825 31.0023 11.3648Z" fill="#DD774E"/>
<path d="M34.5254 8.6555C34.5254 8.6555 35.7479 10.2137 35.6857 12.2366C35.6857 12.2366 36.5822 11.1381 37.051 12.0928C37.5197 13.0476 35.6421 14.4422 35.6421 14.4422C35.6421 14.4422 35.1384 16.1907 35.958 16.0399C38.8688 15.5053 39.5102 12.2821 39.0217 10.7017C38.5322 9.12124 37.0317 7.54939 34.5254 8.6555Z" fill="#11393D"/>
<path d="M35.5748 13.5978C35.1648 14.7019 33.5934 16.6144 31.9289 16.0682C31.9289 16.0682 32.1583 17.1632 31.4662 17.7631C31.4662 17.7631 30.9995 18.2308 31.7082 18.7127C33.9321 20.2254 35.4741 19.1537 35.6993 18.7669C35.6993 18.7669 35.6447 17.4943 35.6143 16.5476C35.5546 14.6994 36.2648 13.897 36.2648 13.897C35.8153 14.1936 35.5748 13.5978 35.5748 13.5978Z" fill="#DD8866"/>
<path d="M31.0156 13.4166C31.0156 13.4166 32.3323 13.737 32.0377 13.9451C31.5664 14.2772 31.0333 13.8828 31.0156 13.4166Z" fill="#1A4850"/>
<path d="M31.8573 5.31287C31.2742 5.50827 30.126 6.3886 30.4095 7.30285C30.693 8.2171 32.6805 8.28494 32.6805 8.28494C32.6805 8.28494 31.4569 8.03132 31.5323 7.55951C31.5323 7.55951 33.7051 8.89241 35.3726 8.93139C37.0401 8.97037 38.9228 13.2733 38.9228 13.2733C38.9228 13.2733 41.2626 9.69985 39.0215 6.98038C37.2289 4.80512 33.6008 4.72868 31.8573 5.31287Z" fill="#11393D"/>
<path d="M17.6227 15.2097C17.6227 15.2097 18.537 21.2338 20.3123 22.8476C22.0872 24.4615 22.5716 28.3402 22.4102 29.1168C22.2487 29.8939 21.6032 30.7605 20.2587 29.1168C18.9141 27.4731 16.709 18.491 16.709 18.491L17.6227 15.2097Z" fill="#DD8866"/>
<path d="M20.4325 13.1316C20.4082 12.7134 20.4689 12.2907 20.6137 11.9019C19.1294 10.5559 19.015 8.97493 17.7307 9.92613C16.4398 10.8824 11.4767 9.83552 12.029 11.9885C12.9975 15.7599 12.029 23.4926 12.029 23.4926C12.029 23.4926 12.352 22.2017 13.9654 22.473C15.5792 22.7444 15.6866 21.4484 16.6666 21.3411C17.6467 21.2338 20.027 22.473 20.027 22.473C20.027 22.473 20.6349 19.6199 20.027 17.7909C19.5815 16.4504 20.115 14.226 20.4325 13.1316Z" fill="white"/>
<path d="M39.0914 19.1076C40.3868 18.9284 41.1811 20.2208 42.3282 24.2053C43.4758 28.1899 44.0494 30.0903 43.691 31.3452C43.3325 32.6001 42.5079 33.359 41.0732 32.2443C39.6391 31.1301 38.6347 25.4284 37.5949 24.8548C37.5949 24.8548 36.5718 19.4559 39.0914 19.1076Z" fill="#CE364C"/>
<path d="M32.5246 19.9322C32.5246 19.9322 31.785 20.1109 31.8174 20.3833C31.8498 20.6556 32.4548 20.6688 32.4548 20.6688C32.4548 20.6688 32.8102 20.1833 32.5246 19.9322Z" fill="#DD8866"/>
<path d="M30.0283 21.1801C30.532 21.0054 31.4119 20.7285 31.4868 20.8976C31.5617 21.0667 31.6483 21.5567 31.4194 21.5699C31.1906 21.5831 30.0283 21.7177 30.0283 21.7177V21.1801Z" fill="#DD8866"/>
<path d="M32.2379 19.1075C32.2379 19.1075 32.5963 20.3979 32.9461 20.5862L32.5923 20.7563C32.5923 20.7563 31.8977 20.2364 31.6016 19.5641L32.2379 19.1075Z" fill="#0C476B"/>
<path d="M29.7275 19.1075H32.2374V19.6811L31.592 20.7568H30.9825C30.9825 20.7568 30.9825 19.717 29.7275 19.717V19.1075Z" fill="#105E99"/>
<path d="M30.9833 20.7568L29.7173 25.1377C29.5705 25.646 29.9517 26.1537 30.4812 26.1537H32.0156C32.539 26.1537 32.9197 25.6566 32.783 25.1509L31.5933 20.7573L30.9833 20.7568Z" fill="#CFD8DC"/>
<path d="M30.0281 21.1801C30.0281 21.1801 31.7948 21.2504 32.2383 20.7568C32.6817 20.2633 32.5243 19.9322 32.5243 19.9322C32.5243 19.9322 33.4684 19.7813 33.4522 20.158C33.4365 20.5346 34.1093 22.3631 34.1093 22.3631C34.1093 22.3631 34.2004 23.3852 33.1728 23.8155C32.7116 24.0089 32.1051 23.8828 31.0972 24.1283C30.1941 24.3485 29.3907 24.0499 29.6854 23.8423C29.8317 23.7396 30.0068 23.8367 30.1552 23.8155C30.59 23.7537 30.674 23.4925 30.674 23.4925C30.674 23.4925 29.814 23.2774 30.1455 22.8471C30.1455 22.8471 29.7396 22.3089 30.0276 21.9328C30.0276 21.9328 29.0728 21.6028 30.0281 21.1801Z" fill="#F3A17A"/>
<path d="M33.7429 21.3036C37.3903 25.7519 41.11 27.5444 42.5442 29.0864C43.9783 30.6284 43.6199 32.7885 41.6476 32.7859C40.5218 32.7844 33.1729 23.8156 33.1729 23.8156L33.7429 21.3036Z" fill="#F3A17A"/>
<g opacity="0.25">
<path d="M10.7782 47.2681L38.3996 0.688416H37.1082L9.48633 47.2681H10.7782Z" fill="white"/>
<path d="M1.69824 20.7564L13.5982 0.688446H12.3068L1.69824 18.5781V20.7564Z" fill="white"/>
<path d="M18.075 47.2681L45.6964 0.688416H41.3909L13.7695 47.2681H18.075Z" fill="white"/>
<path d="M1.69824 46.7705L29.0245 0.688446H24.719L1.69824 39.5097V46.7705Z" fill="white"/>
<path d="M28.9823 47.2681L46.4488 17.8141V1.84058L19.5098 47.2681H28.9823Z" fill="white"/>
<path d="M42.996 47.2681L46.4485 41.4465V25.4724L33.5234 47.2681H42.996Z" fill="white"/>
<path d="M1.69824 0.688446V16.622L11.1465 0.688446H1.69824Z" fill="white"/>
</g>
<path d="M23.5949 0H22.2392H0.922852V47.8412H22.2392H23.5949H47.0763V0H23.5949ZM45.6877 1.38808V23.2425H23.5949V1.38808H45.6877ZM22.2392 1.38808V23.2425H2.31144V1.38808H22.2392ZM2.31194 46.4506V24.5982H22.2397V46.4506H2.31194ZM23.5949 46.4506V24.5982H45.6877V46.4506H23.5949Z" fill="#6097B2"/>
</svg>
