<svg width="228" height="228" viewBox="0 0 228 228" fill="none" xmlns="http://www.w3.org/2000/svg">
    <path
        d="M163.952 173.552C163.963 172.624 164.725 171.887 165.653 171.905C166.579 171.923 167.322 172.69 167.31 173.617C167.298 174.544 166.536 175.282 165.609 175.264C164.682 175.246 163.94 174.48 163.952 173.552Z"
        fill="#04BE84" />
    <path
        d="M137.644 173.038C137.656 172.111 138.418 171.373 139.346 171.391C140.273 171.409 141.015 172.176 141.003 173.103C140.991 174.03 140.23 174.767 139.302 174.75C138.375 174.732 137.633 173.965 137.644 173.038Z"
        fill="#04BE84" />
    <path
        d="M111.337 172.527C111.349 171.6 112.11 170.862 113.037 170.88C113.964 170.898 114.707 171.665 114.695 172.592C114.683 173.519 113.921 174.256 112.994 174.238C112.067 174.22 111.325 173.454 111.337 172.527Z"
        fill="#04BE84" />
    <path
        d="M87.8751 173.265C88.5395 172.622 88.5531 171.558 87.9055 170.889C87.258 170.221 86.1945 170.2 85.5301 170.843C84.8657 171.486 84.8521 172.55 85.4997 173.219C86.1472 173.888 87.2107 173.908 87.8751 173.265Z"
        fill="#04BE84" />
    <path
        d="M58.7152 171.507C58.7271 170.58 59.4888 169.842 60.4158 169.861C61.3427 169.879 62.0852 170.645 62.0733 171.572C62.0614 172.499 61.2997 173.237 60.3727 173.219C59.4452 173.202 58.7033 172.435 58.7152 171.507Z"
        fill="#04BE84" />
    <path
        d="M164.257 150.042C164.269 149.115 165.031 148.378 165.958 148.396C166.885 148.414 167.627 149.181 167.615 150.108C167.603 151.035 166.842 151.772 165.915 151.754C164.987 151.737 164.245 150.971 164.257 150.042Z"
        fill="#04BE84" />
    <path
        d="M137.95 149.529C137.962 148.602 138.724 147.864 139.651 147.882C140.578 147.9 141.32 148.667 141.308 149.594C141.296 150.521 140.535 151.259 139.608 151.241C138.681 151.223 137.939 150.456 137.95 149.529Z"
        fill="#04BE84" />
    <path
        d="M111.64 149.022C111.651 148.094 112.413 147.356 113.341 147.375C114.267 147.393 115.01 148.16 114.998 149.087C114.986 150.014 114.224 150.751 113.298 150.733C112.371 150.715 111.628 149.949 111.64 149.022Z"
        fill="#04BE84" />
    <path
        d="M88.1857 149.751C88.85 149.108 88.8637 148.044 88.2161 147.375C87.5685 146.707 86.505 146.686 85.8407 147.329C85.1763 147.972 85.1626 149.036 85.8102 149.705C86.4578 150.374 87.5213 150.394 88.1857 149.751Z"
        fill="#04BE84" />
    <path
        d="M61.8732 149.242C62.5375 148.599 62.5512 147.535 61.9036 146.866C61.256 146.197 60.1925 146.177 59.5282 146.82C58.8638 147.463 58.8501 148.527 59.4977 149.196C60.1453 149.864 61.2088 149.885 61.8732 149.242Z"
        fill="#04BE84" />
    <path
        d="M167.41 127.767C168.075 127.124 168.088 126.061 167.441 125.392C166.793 124.723 165.73 124.702 165.065 125.346C164.401 125.989 164.387 127.053 165.035 127.721C165.682 128.39 166.746 128.411 167.41 127.767Z"
        fill="#04BE84" />
    <path
        d="M141.098 127.257C141.762 126.614 141.776 125.55 141.128 124.881C140.481 124.213 139.417 124.192 138.753 124.835C138.088 125.479 138.075 126.542 138.722 127.211C139.37 127.88 140.433 127.9 141.098 127.257Z"
        fill="#04BE84" />
    <path
        d="M111.94 125.502C111.952 124.575 112.714 123.837 113.641 123.855C114.568 123.873 115.31 124.64 115.298 125.567C115.287 126.494 114.525 127.232 113.598 127.214C112.671 127.196 111.928 126.429 111.94 125.502Z"
        fill="#04BE84" />
    <path
        d="M85.6337 124.988C85.6456 124.061 86.4073 123.324 87.3349 123.341C88.2618 123.359 89.0042 124.126 88.9924 125.053C88.9799 125.981 88.2188 126.718 87.2912 126.7C86.3643 126.682 85.6218 125.915 85.6337 124.988Z"
        fill="#04BE84" />
    <path
        d="M59.3221 124.479C59.3334 123.552 60.0951 122.814 61.0226 122.833C61.9496 122.851 62.692 123.617 62.6802 124.545C62.6683 125.472 61.9066 126.209 60.9796 126.191C60.0521 126.174 59.3102 125.407 59.3221 124.479Z"
        fill="#04BE84" />
    <path
        d="M164.86 103.015C164.871 102.087 165.633 101.349 166.561 101.368C167.488 101.386 168.23 102.153 168.218 103.08C168.206 104.007 167.445 104.745 166.518 104.726C165.59 104.708 164.848 103.942 164.86 103.015Z"
        fill="#04BE84" />
    <path
        d="M138.547 102.504C138.559 101.577 139.321 100.839 140.248 100.857C141.175 100.875 141.917 101.642 141.905 102.569C141.893 103.496 141.132 104.234 140.205 104.216C139.277 104.198 138.535 103.431 138.547 102.504Z"
        fill="#04BE84" />
    <path
        d="M112.245 101.989C112.257 101.062 113.019 100.324 113.946 100.342C114.873 100.36 115.615 101.127 115.603 102.054C115.591 102.981 114.829 103.719 113.903 103.701C112.976 103.683 112.233 102.916 112.245 101.989Z"
        fill="#04BE84" />
    <path
        d="M88.7833 102.727C89.4477 102.084 89.4613 101.021 88.8138 100.352C88.1662 99.6829 87.1027 99.6623 86.4383 100.306C85.7739 100.949 85.7603 102.012 86.4079 102.681C87.0554 103.35 88.119 103.371 88.7833 102.727Z"
        fill="#04BE84" />
    <path
        d="M59.6234 100.969C59.6353 100.042 60.397 99.3049 61.324 99.3229C62.2509 99.3409 62.9934 100.108 62.9815 101.035C62.9702 101.962 62.2085 102.7 61.2809 102.681C60.3534 102.664 59.6115 101.898 59.6234 100.969Z"
        fill="#04BE84" />
    <path
        d="M165.159 79.4998C165.17 78.5727 165.932 77.8352 166.859 77.8532C167.786 77.8712 168.529 78.638 168.517 79.565C168.505 80.4921 167.743 81.2296 166.816 81.2116C165.889 81.1942 165.147 80.428 165.159 79.4998Z"
        fill="#04BE84" />
    <path
        d="M138.852 78.9856C138.864 78.0586 139.626 77.321 140.552 77.339C141.479 77.357 142.222 78.1238 142.211 79.0515C142.199 79.9785 141.437 80.7161 140.51 80.6981C139.582 80.68 138.839 79.9132 138.852 78.9856Z"
        fill="#04BE84" />
    <path
        d="M112.541 78.4784C112.553 77.5513 113.315 76.8138 114.241 76.8318C115.168 76.8498 115.911 77.6166 115.899 78.5436C115.887 79.4707 115.125 80.2082 114.198 80.1902C113.271 80.1722 112.529 79.4054 112.541 78.4784Z"
        fill="#04BE84" />
    <path
        d="M89.087 79.2082C89.7514 78.5649 89.765 77.5012 89.1175 76.8325C88.4699 76.1637 87.4064 76.143 86.742 76.7863C86.0776 77.4296 86.064 78.4932 86.7116 79.162C87.3591 79.8308 88.4227 79.8514 89.087 79.2082Z"
        fill="#04BE84" />
    <path
        d="M62.7745 78.6991C63.4389 78.0558 63.4525 76.9922 62.805 76.3234C62.1574 75.6546 61.0939 75.634 60.4295 76.2772C59.7651 76.9205 59.7515 77.9842 60.3991 78.653C61.0466 79.3217 62.1102 79.3424 62.7745 78.6991Z"
        fill="#04BE84" />
    <path
        d="M168.315 57.2328C168.979 56.5895 168.993 55.5259 168.345 54.8571C167.697 54.1883 166.634 54.1676 165.97 54.8109C165.305 55.4542 165.292 56.5179 165.939 57.1866C166.587 57.8554 167.65 57.8761 168.315 57.2328Z"
        fill="#04BE84" />
    <path
        d="M142.002 56.7227C142.666 56.0794 142.68 55.0158 142.033 54.347C141.385 53.6782 140.321 53.6575 139.657 54.3008C138.993 54.9441 138.979 56.0077 139.627 56.6765C140.274 57.3453 141.338 57.366 142.002 56.7227Z"
        fill="#04BE84" />
    <path
        d="M112.848 54.9638C112.859 54.0368 113.621 53.2992 114.548 53.3173C115.475 53.3353 116.218 54.1021 116.206 55.0291C116.194 55.9562 115.432 56.6937 114.505 56.6757C113.578 56.6577 112.836 55.8909 112.848 54.9638Z"
        fill="#04BE84" />
    <path
        d="M86.5331 54.4587C86.545 53.5317 87.3067 52.7941 88.2337 52.8121C89.1606 52.8301 89.9031 53.5969 89.8912 54.524C89.8793 55.451 89.1176 56.1886 88.1906 56.1706C87.2637 56.1525 86.5218 55.3864 86.5331 54.4587Z"
        fill="#04BE84" />
    <path
        d="M60.2259 53.9453C60.2372 53.0176 60.999 52.28 61.9265 52.2987C62.8534 52.3167 63.5959 53.0835 63.584 54.0105C63.5721 54.9376 62.8104 55.6751 61.8835 55.6571C60.9571 55.6397 60.2147 54.8729 60.2259 53.9453Z"
        fill="#04BE84" />
</svg>