<svg width="87" height="86" viewBox="0 0 87 86" fill="none" xmlns="http://www.w3.org/2000/svg">
    <g opacity="0.1">
        <path
            d="M82.0854 58.1316C80.0899 56.7188 78.8666 55.4718 77.488 53.4526C73.332 47.3629 70.123 40.6286 68.0117 33.5641C67.6178 32.2467 67.2383 30.8714 66.3457 29.8243C65.4539 28.7773 63.8767 28.1682 62.6672 28.8227C61.7516 29.3179 61.2939 30.3735 61.0525 31.3858C59.9955 35.8148 62.1759 40.2405 64.1779 44.3302C69.4837 55.1679 80.0807 64.3411 84.8926 67.1482C83.585 70.1782 81.6389 73.1314 78.9587 76.1101C78.0701 77.0974 77.0757 77.9873 76.0115 78.7989C70.7616 76.1161 67.4126 70.2447 65.1257 64.6127C62.975 59.3168 61.2827 53.8348 60.0738 48.2482C59.7193 46.6098 59.3872 44.9149 58.4611 43.5172C57.535 42.1196 55.8395 41.0811 54.2077 41.4652C52.4641 41.8756 51.4216 43.7172 51.1177 45.4825C50.5751 48.6382 51.7051 51.8182 52.8778 54.7977C55.825 62.2877 59.1734 69.6527 63.4887 76.4469C64.9468 78.743 66.5838 81.0285 68.7628 82.6175C64.5423 84.0691 59.8311 84.6071 55.1219 84.2026C50.9014 78.6312 49.8852 71.1359 48.8434 64.124C48.4356 61.3774 47.9068 58.4578 46.0027 56.4367C44.0987 54.4149 40.3313 53.9341 38.7291 56.2019C37.2986 58.227 38.3095 61.0058 39.3546 63.2539C40.9094 66.599 42.4649 69.9434 44.0197 73.2879C45.5272 76.5298 47.0347 79.7723 48.5415 83.0141C40.9719 80.8766 34.0705 76.1411 30.1032 68.6826C30.1032 68.6826 21.505 81.1897 22.2863 99.1682C22.2863 99.1682 19.5502 103.076 17.9869 98.7775C17.4363 97.2628 17.5962 79.2356 27.7578 67.5106C27.7578 67.5106 15.4001 66.0412 7.44636 56.8037C11.3637 53.306 16.8477 51.565 22.0574 52.3266C23.586 52.5503 25.0987 52.9725 26.6437 52.9469C28.1886 52.9212 29.8401 52.3451 30.6498 51.029C32.0599 48.7375 30.1841 45.7475 27.9268 44.2828C24.391 41.9887 19.7199 41.5513 15.8197 43.1489C14.5299 43.6771 13.3342 44.4065 12.1444 45.1332C10.0963 46.3842 8.04751 47.6345 5.9994 48.8855C5.13254 49.4149 4.23081 49.9997 3.53693 50.7277C3.53364 50.7198 3.52969 50.7133 3.52575 50.7054C0.775855 44.7202 -0.561274 37.932 0.221403 31.4206L0.399645 31.5541C10.2653 31.1306 17.1489 33.2832 26.6233 36.0687C28.8838 36.7329 31.2595 37.4933 33.549 36.9382C35.8385 36.383 37.8333 33.8943 36.925 31.7212C36.2462 30.0966 34.3349 29.385 32.5907 29.1462C29.3212 28.6997 26.005 29.2903 22.7053 29.26C15.5869 29.1936 8.55987 26.0616 3.71319 20.8538C5.86062 17.1706 9.0058 13.8367 13.3388 11.1256C15.2508 14.1952 17.9408 16.8122 20.9748 18.8097C25.5683 21.8338 30.9063 23.5544 36.2896 24.6797C39.8308 25.4197 44.2328 25.5946 46.2961 22.6231C46.521 22.2988 46.7104 21.9371 46.7591 21.5451C46.9696 19.8541 44.7886 19.0385 43.1134 18.7248C33.9456 17.0075 24.879 14.7884 18.3177 8.52305C18.3387 8.51384 18.3585 8.50397 18.3795 8.49477C22.0929 6.89323 27.2494 5.65608 32.9866 4.69517C37.1401 9.3077 42.6675 12.685 48.6895 14.2057C52.1615 15.0824 56.169 15.2527 58.9919 13.0501C59.3003 12.8093 59.5989 12.5305 59.741 12.1661C60.1258 11.1835 59.2162 10.1627 58.2717 9.6918C56.1959 8.65723 53.7532 8.85914 51.4341 8.85125C46.7696 8.83481 41.7756 6.79392 38.6942 3.29161C38.6127 3.19888 38.5331 3.10285 38.4529 3.00682C55.8993 -2.54098 76.9724 1.34018 77.786 1.06854C78.9238 0.689041 78.2997 17.9625 84.1776 34.6809C81.3034 33.8995 77.9859 31.7514 76.7968 29.9342C75.0834 27.3145 74.2034 24.2272 73.7555 21.1294C73.6062 20.0981 73.4944 19.0339 73.0163 18.1079C72.5381 17.1818 71.5864 16.4116 70.5479 16.4952C69.4436 16.584 68.6004 17.6192 68.3761 18.7038C68.1525 19.789 68.4123 20.9104 68.7043 21.9792C70.1749 27.3698 76.8192 39.7985 84.8735 43.9362C86.6815 50.0621 87.4267 55.4297 86.7578 60.4244C85.084 60.0363 83.3996 59.0623 82.0854 58.1316Z"
            fill="#8DBA3D" />
        <path
            d="M75.8313 3.08502C75.7603 3.08502 75.6886 3.10805 75.6281 3.15541C56.6077 18.1289 45.372 34.0547 39.2948 44.7787C32.7051 56.4083 30.5867 64.6139 30.5656 64.6955C30.5215 64.8718 30.6281 65.0507 30.8037 65.0954C30.9793 65.1401 31.1589 65.0336 31.2029 64.8573C31.2845 64.5337 39.815 32.1868 76.0339 3.67368C76.1766 3.56121 76.2009 3.35469 76.0891 3.21197C76.0253 3.12778 75.9286 3.08502 75.8313 3.08502Z"
            fill="#47A148" />
    </g>
</svg>